<svg width="657" height="263" viewBox="0 0 657 263" fill="none" xmlns="http://www.w3.org/2000/svg">
<path d="M286 187.598C283.143 185.564 278.286 185.564 275.429 187.598C272.571 189.633 267.714 189.633 264.857 187.598C262 185.564 257.143 185.564 254.286 187.598C251.429 189.633 246.571 189.633 243.714 187.598C240.857 185.564 236 185.564 233.143 187.598C230.286 189.633 225.429 189.633 222.571 187.598C219.714 185.564 214.857 185.564 212 187.598" stroke="#3E5930" stroke-width="4" stroke-miterlimit="10" stroke-linecap="round" stroke-linejoin="round"/>
<path d="M248.856 153.264L217.428 163.437L228.856 188.87" stroke="#3E5930" stroke-width="4" stroke-miterlimit="10" stroke-linecap="round" stroke-linejoin="round"/>
<path d="M248.857 153.264L280.286 163.437L268.857 188.87" stroke="#3E5930" stroke-width="4" stroke-miterlimit="10" stroke-linecap="round" stroke-linejoin="round"/>
<path d="M228.857 159.622V143.091C228.857 140.293 231.429 138.004 234.572 138.004H263.143C266.286 138.004 268.857 140.293 268.857 143.091V159.622" stroke="#3E5930" stroke-width="4" stroke-miterlimit="10" stroke-linecap="round" stroke-linejoin="round"/>
<path d="M237.428 145.633H260.285" stroke="#3E5930" stroke-width="4" stroke-miterlimit="10" stroke-linecap="round" stroke-linejoin="round"/>
<path d="M248.856 163.438L221.428 172.339" stroke="#3E5930" stroke-width="4" stroke-miterlimit="10" stroke-linecap="round" stroke-linejoin="round"/>
<path d="M248.857 163.438L276.286 172.339" stroke="#3E5930" stroke-width="4" stroke-miterlimit="10" stroke-linecap="round" stroke-linejoin="round"/>
<path d="M254.571 138.004H243.143V125.288C246.285 122.49 251.428 122.49 254.571 125.288V138.004Z" stroke="#3E5930" stroke-width="4" stroke-miterlimit="10" stroke-linecap="round" stroke-linejoin="round"/>
<line x1="206.5" y1="229.5" x2="186.5" y2="229.5" stroke="#3E5930" stroke-linecap="round"/>
<line x1="196.5" y1="219.5" x2="196.5" y2="239.5" stroke="#3E5930" stroke-linecap="round"/>
<path d="M173.244 122.895H173.494C175.651 122.895 177.327 123.489 178.099 124.181L178.101 124.182C178.964 124.951 179.668 126.699 179.465 128.903C179.264 131.079 178.177 133.659 175.526 136.023L160.068 149.809L159.887 149.971L159.902 150.214C160.155 154.075 160.621 160.95 161.025 166.913C161.228 169.895 161.415 172.649 161.552 174.685C161.62 175.702 161.676 176.54 161.715 177.137C161.734 177.435 161.75 177.674 161.761 177.844C161.766 177.928 161.771 177.996 161.773 178.045C161.775 178.07 161.776 178.09 161.776 178.104C161.777 178.112 161.777 178.117 161.777 178.121C161.777 178.123 161.777 178.125 161.777 178.126L161.778 178.136C161.792 178.44 161.808 178.866 161.666 179.396C161.524 179.922 161.218 180.575 160.551 181.298C159.841 182.067 158.641 183.253 157.611 184.252C157.098 184.75 156.63 185.2 156.29 185.524C156.12 185.687 155.982 185.818 155.887 185.908C155.839 185.953 155.802 185.989 155.777 186.013C155.766 186.023 155.757 186.032 155.751 186.038C155.04 186.668 154.197 187.001 153.408 187.001C153.321 187.001 153.235 186.997 153.155 186.988H153.149C152.632 186.941 151.719 186.702 151.225 185.582H151.224C150.86 184.749 145.516 171.857 143.067 165.859L142.806 165.218L142.279 165.669L132.696 173.889L132.527 174.034L132.522 174.257C132.495 175.439 132.498 177.516 132.503 179.463C132.508 181.42 132.514 183.239 132.494 183.929V183.93C132.486 184.239 132.564 184.477 132.374 185.021C132.183 185.568 131.708 186.409 130.52 187.651C129.718 188.34 128.948 188.651 128.243 188.651H128.184C127.441 188.632 126.856 188.311 126.499 187.774L126.496 187.771L123.074 182.899C121.378 180.487 119.561 177.898 118.923 176.969L118.854 176.869L118.747 176.812C116.047 175.357 113.051 173.691 110.665 172.341C109.472 171.666 108.433 171.07 107.66 170.621C106.872 170.163 106.392 169.874 106.289 169.8L106.287 169.799L106.164 169.705C105.66 169.296 105.522 168.839 105.503 168.481L105.501 168.324C105.514 167.964 105.647 167.375 106.292 166.742L106.429 166.614L106.605 166.468C108.027 165.409 108.975 164.96 109.606 164.769C110.073 164.627 110.366 164.622 110.615 164.624H110.857C110.979 164.62 111.155 164.62 111.391 164.62C112.261 164.62 113.784 164.641 115.447 164.661C117.107 164.682 118.903 164.702 120.313 164.702C120.886 164.702 121.397 164.698 121.811 164.689L121.999 164.686L122.139 164.557L131.364 156.069L131.992 155.492L131.182 155.227C124.427 153.011 109.807 148.131 108.886 147.811C108.217 147.577 107.842 147.252 107.626 146.956C107.407 146.656 107.331 146.356 107.307 146.146C107.23 145.485 107.521 144.725 108.209 144.05L108.353 143.916C108.359 143.91 108.369 143.903 108.381 143.893C108.408 143.87 108.447 143.837 108.498 143.794C108.6 143.709 108.748 143.585 108.931 143.433C109.296 143.128 109.803 142.71 110.362 142.251C111.485 141.331 112.815 140.259 113.672 139.628C115.041 138.618 116.225 138.507 116.906 138.507C117.032 138.507 117.147 138.511 117.242 138.515H117.25C117.794 138.529 140.07 139.841 148.787 140.334L148.994 140.346L149.148 140.208L164.602 126.427C167.453 123.882 170.628 122.949 173.243 122.894L173.244 122.895ZM173.492 126.07C172.217 126.07 169.75 126.414 167.257 128.635H167.256L150.457 143.616L148.547 143.511H148.548C144.312 143.27 136.865 142.839 130.267 142.454C124.056 142.09 117.621 141.717 117.096 141.693L117.086 141.692L116.919 141.688H116.906C116.737 141.689 116.581 141.744 116.459 141.803C116.331 141.864 116.199 141.949 116.067 142.046L116.066 142.047C115.219 142.675 113.775 143.843 112.586 144.819L111.888 145.394L112.744 145.68C116.226 146.847 122.678 148.996 127.872 150.716L132.49 152.24L138.557 154.23L134.011 158.283L134.005 158.288L124.785 166.771L123.59 167.834L121.889 167.869C121.456 167.877 120.917 167.882 120.309 167.882C118.72 167.882 116.643 167.856 114.807 167.833C113.433 167.817 112.199 167.802 111.433 167.802C111.42 167.79 111.409 167.776 111.394 167.764C111.348 167.728 111.27 167.676 111.16 167.652C111.103 167.64 111.041 167.636 110.976 167.645C110.91 167.653 110.851 167.672 110.798 167.699L109.976 168.118L110.775 168.578C110.78 168.581 110.785 168.583 110.79 168.586C110.799 168.597 110.809 168.611 110.821 168.624C110.836 168.64 110.857 168.66 110.883 168.682C110.909 168.703 110.946 168.73 110.996 168.754C111.038 168.774 111.094 168.789 111.16 168.797C113.592 170.19 117.318 172.279 120.699 174.101L121.571 174.571L122.1 175.341C122.917 176.532 125.594 180.336 127.524 183.083L127.525 183.084C127.62 183.218 127.711 183.35 127.802 183.479C127.801 183.521 127.802 183.561 127.802 183.6C127.802 183.607 127.801 183.615 127.801 183.622C127.803 183.724 127.836 183.808 127.871 183.867C127.905 183.924 127.943 183.964 127.97 183.988C127.997 184.013 128.023 184.032 128.042 184.044C128.078 184.067 128.111 184.081 128.13 184.089C128.151 184.098 128.17 184.104 128.185 184.109C128.208 184.117 128.235 184.123 128.259 184.13L128.61 184.634L129.014 183.999C129.045 183.949 129.073 183.886 129.086 183.811C129.099 183.734 129.093 183.658 129.074 183.59C129.048 183.493 128.996 183.426 128.956 183.382C128.906 183.31 128.855 183.238 128.804 183.164C128.806 182.859 128.81 182.5 128.81 182.104L128.805 180.044C128.801 178.45 128.796 176.702 128.808 175.366L128.825 174.188L128.862 172.726L130.036 171.683L130.035 171.682L139.614 163.472L139.622 163.465L144.306 159.287L146.559 164.808C148.52 169.609 152.071 178.183 153.762 182.244L154.044 182.923L154.571 182.411C155.656 181.358 156.958 180.075 157.662 179.313L157.663 179.314C157.816 179.15 157.957 178.985 158.032 178.786C158.111 178.577 158.095 178.377 158.09 178.255V178.254V178.247L157.359 167.374C156.948 161.345 156.471 154.313 156.213 150.39L156.106 148.756L172.874 133.804C176.36 130.693 175.952 127.597 175.536 126.605L175.449 126.398L175.236 126.326L174.938 126.238C174.766 126.195 174.557 126.154 174.315 126.124L174.346 126.07H173.492Z" fill="#3E5930" stroke="#3E5930"/>
<path d="M536.847 130.416C537.083 130.84 537.418 131.214 537.828 131.513C538.238 131.812 538.714 132.03 539.225 132.152C539.737 132.273 540.271 132.296 540.793 132.218C541.314 132.141 541.812 131.964 542.252 131.701L547.637 128.487V158.967C547.637 159.852 548.03 160.701 548.729 161.328C549.428 161.954 550.376 162.305 551.364 162.305H588.636C589.624 162.305 590.572 161.954 591.271 161.328C591.97 160.701 592.363 159.852 592.363 158.967V128.487L597.748 131.701C598.188 131.964 598.686 132.141 599.207 132.218C599.729 132.296 600.263 132.273 600.775 132.152C601.286 132.03 601.762 131.812 602.172 131.513C602.582 131.214 602.917 130.84 603.153 130.416L610.607 117.064C610.925 116.493 611.054 115.853 610.979 115.219C610.904 114.585 610.627 113.983 610.182 113.485L595.274 96.7948C594.924 96.404 594.481 96.0886 593.977 95.8719C593.474 95.6552 592.922 95.5428 592.363 95.543H581.181C580.193 95.543 579.245 95.8947 578.546 96.5207C577.847 97.1467 577.454 97.9958 577.454 98.8811C577.454 100.652 576.669 102.35 575.271 103.602C573.873 104.854 571.977 105.557 570 105.557C568.023 105.557 566.127 104.854 564.729 103.602C563.331 102.35 562.546 100.652 562.546 98.8811C562.546 97.9958 562.153 97.1467 561.454 96.5207C560.755 95.8947 559.807 95.543 558.819 95.543H547.637C547.078 95.5428 546.526 95.6552 546.023 95.8719C545.519 96.0886 545.076 96.404 544.726 96.7948L529.818 113.485C529.373 113.983 529.096 114.585 529.021 115.219C528.946 115.853 529.075 116.493 529.393 117.064L536.847 130.416ZM549.426 102.219H555.565C556.391 105.085 558.257 107.624 560.87 109.437C563.483 111.25 566.695 112.234 570 112.234C573.305 112.234 576.517 111.25 579.13 109.437C581.743 107.624 583.609 105.085 584.435 102.219H590.574L602.873 115.989L598.371 124.05L590.704 119.471C590.143 119.135 589.49 118.943 588.816 118.913C588.142 118.884 587.472 119.019 586.877 119.304C586.282 119.589 585.785 120.014 585.438 120.532C585.091 121.05 584.908 121.644 584.909 122.248V155.629H555.091V122.248C555.092 121.644 554.909 121.05 554.562 120.532C554.215 120.014 553.718 119.589 553.123 119.304C552.528 119.019 551.858 118.884 551.184 118.913C550.51 118.943 549.857 119.135 549.296 119.471L541.629 124.05L537.13 115.989L549.426 102.219Z" fill="#3E5930"/>
<path d="M370 83C370 71.9543 378.954 63 390 63H425C436.046 63 445 71.9543 445 83V263H370V83Z" fill="#7FAD67"/>
<path d="M370 243C370 231.954 378.954 223 390 223H425C436.046 223 445 231.954 445 243V263H370V243Z" fill="#3E5930"/>
<path d="M370 243C370 231.954 378.954 223 390 223H425C436.046 223 445 231.954 445 243H370Z" fill="#3E5930"/>
<path d="M370 223H445H370ZM445 243.5H370V243C370 242.833 370.002 242.667 370.006 242.5H390H444.994C444.998 242.667 445 242.833 445 243V243.5ZM370 243V223V243ZM445 223V243V223Z" fill="white"/>
<line x1="407" y1="232.5" x2="657" y2="232.5" stroke="#3E5930"/>
<line x1="107" y1="262.5" x2="407.007" y2="262.5" stroke="#3E5930"/>
<path d="M460.728 229V216.84C460.728 216.285 460.728 215.709 460.728 215.112C460.749 214.515 460.76 213.917 460.76 213.32C460.099 213.981 459.373 214.547 458.584 215.016C457.795 215.485 456.963 215.805 456.088 215.976L455.608 211.432C456.12 211.368 456.675 211.229 457.272 211.016C457.869 210.781 458.456 210.493 459.032 210.152C459.629 209.811 460.152 209.448 460.6 209.064C461.069 208.659 461.421 208.264 461.656 207.88H466.04V229H460.728ZM478.518 229.32C475.702 229.32 473.569 228.413 472.118 226.6C470.668 224.765 469.942 222.045 469.942 218.44C469.942 214.835 470.668 212.125 472.118 210.312C473.569 208.477 475.702 207.56 478.518 207.56C481.334 207.56 483.468 208.477 484.918 210.312C486.369 212.125 487.094 214.835 487.094 218.44C487.094 222.045 486.369 224.765 484.918 226.6C483.468 228.413 481.334 229.32 478.518 229.32ZM478.518 225.032C479.628 225.032 480.428 224.531 480.918 223.528C481.409 222.504 481.654 220.808 481.654 218.44C481.654 216.072 481.409 214.387 480.918 213.384C480.428 212.36 479.628 211.848 478.518 211.848C477.409 211.848 476.609 212.36 476.118 213.384C475.628 214.387 475.382 216.072 475.382 218.44C475.382 220.808 475.628 222.504 476.118 223.528C476.609 224.531 477.409 225.032 478.518 225.032ZM494.225 229L508.913 207.848H513.073L498.385 229H494.225ZM495.537 207.56C496.732 207.56 497.777 207.805 498.673 208.296C499.569 208.787 500.262 209.491 500.753 210.408C501.244 211.304 501.489 212.36 501.489 213.576C501.489 214.792 501.244 215.859 500.753 216.776C500.262 217.672 499.569 218.365 498.673 218.856C497.777 219.347 496.732 219.592 495.537 219.592C494.342 219.592 493.297 219.347 492.401 218.856C491.505 218.365 490.812 217.672 490.321 216.776C489.83 215.859 489.585 214.792 489.585 213.576C489.585 212.36 489.83 211.304 490.321 210.408C490.812 209.491 491.505 208.787 492.401 208.296C493.297 207.805 494.342 207.56 495.537 207.56ZM495.537 211.208C495.132 211.208 494.79 211.304 494.513 211.496C494.236 211.667 494.022 211.933 493.873 212.296C493.724 212.637 493.649 213.064 493.649 213.576C493.649 214.067 493.724 214.493 493.873 214.856C494.022 215.219 494.236 215.496 494.513 215.688C494.79 215.859 495.132 215.944 495.537 215.944C495.964 215.944 496.316 215.859 496.593 215.688C496.87 215.496 497.084 215.219 497.233 214.856C497.382 214.493 497.457 214.067 497.457 213.576C497.457 213.064 497.382 212.637 497.233 212.296C497.084 211.933 496.87 211.667 496.593 211.496C496.316 211.304 495.964 211.208 495.537 211.208ZM511.697 217.288C512.892 217.288 513.937 217.533 514.833 218.024C515.729 218.515 516.422 219.219 516.913 220.136C517.404 221.032 517.649 222.088 517.649 223.304C517.649 224.52 517.404 225.576 516.913 226.472C516.422 227.368 515.729 228.072 514.833 228.584C513.937 229.075 512.892 229.32 511.697 229.32C510.502 229.32 509.457 229.075 508.561 228.584C507.665 228.072 506.972 227.368 506.481 226.472C505.99 225.576 505.745 224.52 505.745 223.304C505.745 222.088 505.99 221.032 506.481 220.136C506.972 219.219 507.665 218.515 508.561 218.024C509.457 217.533 510.502 217.288 511.697 217.288ZM511.697 220.936C511.292 220.936 510.94 221.032 510.641 221.224C510.364 221.395 510.15 221.661 510.001 222.024C509.852 222.365 509.777 222.792 509.777 223.304C509.777 223.795 509.852 224.221 510.001 224.584C510.15 224.947 510.364 225.224 510.641 225.416C510.94 225.587 511.292 225.672 511.697 225.672C512.124 225.672 512.476 225.587 512.753 225.416C513.03 225.224 513.244 224.947 513.393 224.584C513.542 224.221 513.617 223.795 513.617 223.304C513.617 222.792 513.542 222.365 513.393 222.024C513.244 221.661 513.03 221.395 512.753 221.224C512.476 221.032 512.124 220.936 511.697 220.936Z" fill="#3E5930"/>
<path d="M301.728 258V245.84C301.728 245.285 301.728 244.709 301.728 244.112C301.749 243.515 301.76 242.917 301.76 242.32C301.099 242.981 300.373 243.547 299.584 244.016C298.795 244.485 297.963 244.805 297.088 244.976L296.608 240.432C297.12 240.368 297.675 240.229 298.272 240.016C298.869 239.781 299.456 239.493 300.032 239.152C300.629 238.811 301.152 238.448 301.6 238.064C302.069 237.659 302.421 237.264 302.656 236.88H307.04V258H301.728ZM319.518 258.32C316.702 258.32 314.569 257.413 313.118 255.6C311.668 253.765 310.942 251.045 310.942 247.44C310.942 243.835 311.668 241.125 313.118 239.312C314.569 237.477 316.702 236.56 319.518 236.56C322.334 236.56 324.468 237.477 325.918 239.312C327.369 241.125 328.094 243.835 328.094 247.44C328.094 251.045 327.369 253.765 325.918 255.6C324.468 257.413 322.334 258.32 319.518 258.32ZM319.518 254.032C320.628 254.032 321.428 253.531 321.918 252.528C322.409 251.504 322.654 249.808 322.654 247.44C322.654 245.072 322.409 243.387 321.918 242.384C321.428 241.36 320.628 240.848 319.518 240.848C318.409 240.848 317.609 241.36 317.118 242.384C316.628 243.387 316.382 245.072 316.382 247.44C316.382 249.808 316.628 251.504 317.118 252.528C317.609 253.531 318.409 254.032 319.518 254.032ZM335.225 258L349.913 236.848H354.073L339.385 258H335.225ZM336.537 236.56C337.732 236.56 338.777 236.805 339.673 237.296C340.569 237.787 341.262 238.491 341.753 239.408C342.244 240.304 342.489 241.36 342.489 242.576C342.489 243.792 342.244 244.859 341.753 245.776C341.262 246.672 340.569 247.365 339.673 247.856C338.777 248.347 337.732 248.592 336.537 248.592C335.342 248.592 334.297 248.347 333.401 247.856C332.505 247.365 331.812 246.672 331.321 245.776C330.83 244.859 330.585 243.792 330.585 242.576C330.585 241.36 330.83 240.304 331.321 239.408C331.812 238.491 332.505 237.787 333.401 237.296C334.297 236.805 335.342 236.56 336.537 236.56ZM336.537 240.208C336.132 240.208 335.79 240.304 335.513 240.496C335.236 240.667 335.022 240.933 334.873 241.296C334.724 241.637 334.649 242.064 334.649 242.576C334.649 243.067 334.724 243.493 334.873 243.856C335.022 244.219 335.236 244.496 335.513 244.688C335.79 244.859 336.132 244.944 336.537 244.944C336.964 244.944 337.316 244.859 337.593 244.688C337.87 244.496 338.084 244.219 338.233 243.856C338.382 243.493 338.457 243.067 338.457 242.576C338.457 242.064 338.382 241.637 338.233 241.296C338.084 240.933 337.87 240.667 337.593 240.496C337.316 240.304 336.964 240.208 336.537 240.208ZM352.697 246.288C353.892 246.288 354.937 246.533 355.833 247.024C356.729 247.515 357.422 248.219 357.913 249.136C358.404 250.032 358.649 251.088 358.649 252.304C358.649 253.52 358.404 254.576 357.913 255.472C357.422 256.368 356.729 257.072 355.833 257.584C354.937 258.075 353.892 258.32 352.697 258.32C351.502 258.32 350.457 258.075 349.561 257.584C348.665 257.072 347.972 256.368 347.481 255.472C346.99 254.576 346.745 253.52 346.745 252.304C346.745 251.088 346.99 250.032 347.481 249.136C347.972 248.219 348.665 247.515 349.561 247.024C350.457 246.533 351.502 246.288 352.697 246.288ZM352.697 249.936C352.292 249.936 351.94 250.032 351.641 250.224C351.364 250.395 351.15 250.661 351.001 251.024C350.852 251.365 350.777 251.792 350.777 252.304C350.777 252.795 350.852 253.221 351.001 253.584C351.15 253.947 351.364 254.224 351.641 254.416C351.94 254.587 352.292 254.672 352.697 254.672C353.124 254.672 353.476 254.587 353.753 254.416C354.03 254.224 354.244 253.947 354.393 253.584C354.542 253.221 354.617 252.795 354.617 252.304C354.617 251.792 354.542 251.365 354.393 251.024C354.244 250.661 354.03 250.395 353.753 250.224C353.476 250.032 353.124 249.936 352.697 249.936Z" fill="#3E5930"/>
<line x1="286" y1="107.5" x2="407" y2="107.5" stroke="#7FAD67"/>
<path d="M289.36 92.28C290.192 92.28 290.928 92.456 291.568 92.808C292.208 93.16 292.667 93.7627 292.944 94.616L290.72 95.672C290.613 95.2987 290.437 95.0053 290.192 94.792C289.957 94.568 289.621 94.456 289.184 94.456C288.896 94.456 288.635 94.5307 288.4 94.68C288.165 94.8187 287.963 95.0213 287.792 95.288C287.632 95.5547 287.504 95.88 287.408 96.264C287.323 96.648 287.28 97.08 287.28 97.56C287.28 97.6027 287.28 97.64 287.28 97.672C287.28 97.704 287.28 97.752 287.28 97.816L287.312 97.912C287.429 97.592 287.621 97.32 287.888 97.096C288.155 96.872 288.459 96.7067 288.8 96.6C289.141 96.4827 289.477 96.424 289.808 96.424C290.437 96.424 290.997 96.552 291.488 96.808C291.989 97.064 292.384 97.432 292.672 97.912C292.96 98.3813 293.104 98.952 293.104 99.624C293.104 100.349 292.944 100.979 292.624 101.512C292.304 102.035 291.851 102.44 291.264 102.728C290.688 103.016 290.011 103.16 289.232 103.16C288.347 103.16 287.568 102.957 286.896 102.552C286.224 102.147 285.701 101.549 285.328 100.76C284.955 99.96 284.768 98.9787 284.768 97.816C284.768 96.568 284.971 95.5333 285.376 94.712C285.781 93.8907 286.331 93.2827 287.024 92.888C287.717 92.4827 288.496 92.28 289.36 92.28ZM289.184 98.28C288.917 98.28 288.677 98.3387 288.464 98.456C288.251 98.5627 288.08 98.7227 287.952 98.936C287.824 99.1493 287.76 99.4 287.76 99.688C287.76 99.9653 287.824 100.211 287.952 100.424C288.08 100.637 288.251 100.803 288.464 100.92C288.688 101.037 288.928 101.096 289.184 101.096C289.632 101.096 289.979 100.973 290.224 100.728C290.469 100.483 290.592 100.136 290.592 99.688C290.592 99.3893 290.533 99.1387 290.416 98.936C290.309 98.7227 290.149 98.5627 289.936 98.456C289.733 98.3387 289.483 98.28 289.184 98.28ZM298.712 103.16C297.304 103.16 296.238 102.707 295.512 101.8C294.787 100.883 294.424 99.5227 294.424 97.72C294.424 95.9173 294.787 94.5627 295.512 93.656C296.238 92.7387 297.304 92.28 298.712 92.28C300.12 92.28 301.187 92.7387 301.912 93.656C302.638 94.5627 303 95.9173 303 97.72C303 99.5227 302.638 100.883 301.912 101.8C301.187 102.707 300.12 103.16 298.712 103.16ZM298.712 101.016C299.267 101.016 299.667 100.765 299.912 100.264C300.158 99.752 300.28 98.904 300.28 97.72C300.28 96.536 300.158 95.6933 299.912 95.192C299.667 94.68 299.267 94.424 298.712 94.424C298.158 94.424 297.758 94.68 297.512 95.192C297.267 95.6933 297.144 96.536 297.144 97.72C297.144 98.904 297.267 99.752 297.512 100.264C297.758 100.765 298.158 101.016 298.712 101.016ZM306.566 103L313.91 92.424H315.99L308.646 103H306.566ZM307.222 92.28C307.819 92.28 308.342 92.4027 308.79 92.648C309.238 92.8933 309.584 93.2453 309.83 93.704C310.075 94.152 310.198 94.68 310.198 95.288C310.198 95.896 310.075 96.4293 309.83 96.888C309.584 97.336 309.238 97.6827 308.79 97.928C308.342 98.1733 307.819 98.296 307.222 98.296C306.624 98.296 306.102 98.1733 305.654 97.928C305.206 97.6827 304.859 97.336 304.614 96.888C304.368 96.4293 304.246 95.896 304.246 95.288C304.246 94.68 304.368 94.152 304.614 93.704C304.859 93.2453 305.206 92.8933 305.654 92.648C306.102 92.4027 306.624 92.28 307.222 92.28ZM307.222 94.104C307.019 94.104 306.848 94.152 306.71 94.248C306.571 94.3333 306.464 94.4667 306.39 94.648C306.315 94.8187 306.278 95.032 306.278 95.288C306.278 95.5333 306.315 95.7467 306.39 95.928C306.464 96.1093 306.571 96.248 306.71 96.344C306.848 96.4293 307.019 96.472 307.222 96.472C307.435 96.472 307.611 96.4293 307.75 96.344C307.888 96.248 307.995 96.1093 308.07 95.928C308.144 95.7467 308.182 95.5333 308.182 95.288C308.182 95.032 308.144 94.8187 308.07 94.648C307.995 94.4667 307.888 94.3333 307.75 94.248C307.611 94.152 307.435 94.104 307.222 94.104ZM315.302 97.144C315.899 97.144 316.422 97.2667 316.87 97.512C317.318 97.7573 317.664 98.1093 317.91 98.568C318.155 99.016 318.278 99.544 318.278 100.152C318.278 100.76 318.155 101.288 317.91 101.736C317.664 102.184 317.318 102.536 316.87 102.792C316.422 103.037 315.899 103.16 315.302 103.16C314.704 103.16 314.182 103.037 313.734 102.792C313.286 102.536 312.939 102.184 312.694 101.736C312.448 101.288 312.326 100.76 312.326 100.152C312.326 99.544 312.448 99.016 312.694 98.568C312.939 98.1093 313.286 97.7573 313.734 97.512C314.182 97.2667 314.704 97.144 315.302 97.144ZM315.302 98.968C315.099 98.968 314.923 99.016 314.774 99.112C314.635 99.1973 314.528 99.3307 314.454 99.512C314.379 99.6827 314.342 99.896 314.342 100.152C314.342 100.397 314.379 100.611 314.454 100.792C314.528 100.973 314.635 101.112 314.774 101.208C314.923 101.293 315.099 101.336 315.302 101.336C315.515 101.336 315.691 101.293 315.83 101.208C315.968 101.112 316.075 100.973 316.15 100.792C316.224 100.611 316.262 100.397 316.262 100.152C316.262 99.896 316.224 99.6827 316.15 99.512C316.075 99.3307 315.968 99.1973 315.83 99.112C315.691 99.016 315.515 98.968 315.302 98.968ZM328.735 97.928C328.735 97.5547 328.634 97.2613 328.431 97.048C328.229 96.824 327.957 96.712 327.615 96.712C327.274 96.712 326.981 96.8027 326.735 96.984C326.49 97.1547 326.319 97.464 326.223 97.912L323.919 97.368C324.069 96.6 324.458 95.9867 325.087 95.528C325.727 95.0693 326.623 94.84 327.775 94.84C328.543 94.84 329.199 94.9573 329.743 95.192C330.298 95.416 330.719 95.7573 331.007 96.216C331.295 96.664 331.439 97.2187 331.439 97.88V100.808C331.439 101.224 331.621 101.432 331.983 101.432C332.069 101.432 332.149 101.427 332.223 101.416C332.309 101.405 332.383 101.389 332.447 101.368L332.287 102.92C332.138 102.995 331.967 103.048 331.775 103.08C331.583 103.123 331.365 103.144 331.119 103.144C330.714 103.144 330.351 103.08 330.031 102.952C329.711 102.813 329.461 102.611 329.279 102.344C329.098 102.067 329.007 101.72 329.007 101.304V101.208L329.311 101.096C329.311 101.555 329.173 101.939 328.895 102.248C328.629 102.557 328.282 102.787 327.855 102.936C327.439 103.085 326.997 103.16 326.527 103.16C325.717 103.16 325.071 102.973 324.591 102.6C324.111 102.216 323.871 101.667 323.871 100.952C323.871 100.387 324.042 99.912 324.383 99.528C324.725 99.144 325.263 98.8773 325.999 98.728L328.991 98.104L328.975 99.544L327.471 99.864C327.183 99.928 326.959 100.019 326.799 100.136C326.639 100.253 326.559 100.44 326.559 100.696C326.559 100.931 326.639 101.107 326.799 101.224C326.97 101.341 327.167 101.4 327.391 101.4C327.573 101.4 327.743 101.373 327.903 101.32C328.063 101.267 328.202 101.187 328.319 101.08C328.447 100.963 328.549 100.819 328.623 100.648C328.698 100.477 328.735 100.275 328.735 100.04V97.928ZM336.211 91.608V100.28C336.211 100.6 336.259 100.845 336.355 101.016C336.462 101.176 336.654 101.256 336.931 101.256C337.08 101.256 337.208 101.245 337.315 101.224C337.422 101.203 337.544 101.171 337.683 101.128L337.507 102.76C337.326 102.877 337.075 102.973 336.755 103.048C336.446 103.123 336.152 103.16 335.875 103.16C334.968 103.16 334.344 102.941 334.003 102.504C333.662 102.056 333.491 101.432 333.491 100.632V91.608H336.211ZM341.679 92.456V100.152C341.679 100.536 341.769 100.813 341.951 100.984C342.132 101.144 342.388 101.224 342.719 101.224C342.964 101.224 343.177 101.192 343.359 101.128C343.54 101.064 343.705 100.979 343.855 100.872L344.143 102.552C343.876 102.733 343.54 102.883 343.135 103C342.74 103.107 342.335 103.16 341.919 103.16C341.012 103.16 340.292 102.968 339.759 102.584C339.236 102.189 338.975 101.528 338.975 100.6V93.208L341.679 92.456ZM344.015 95V96.936H337.615V95H344.015ZM345.273 103V95H347.673L347.785 96.728C347.977 96.1307 348.27 95.6667 348.665 95.336C349.06 95.0053 349.556 94.84 350.153 94.84C350.356 94.84 350.526 94.856 350.665 94.888C350.804 94.92 350.916 94.9627 351.001 95.016L350.729 97.256C350.644 97.224 350.521 97.192 350.361 97.16C350.201 97.128 349.998 97.112 349.753 97.112C349.444 97.112 349.15 97.1813 348.873 97.32C348.606 97.4587 348.393 97.6667 348.233 97.944C348.073 98.2107 347.993 98.552 347.993 98.968V103H345.273ZM355.58 94.84C356.412 94.84 357.142 95.0053 357.772 95.336C358.401 95.6667 358.892 96.1413 359.244 96.76C359.606 97.3787 359.788 98.1253 359.788 99C359.788 99.8747 359.606 100.621 359.244 101.24C358.892 101.859 358.401 102.333 357.772 102.664C357.142 102.995 356.412 103.16 355.58 103.16C354.758 103.16 354.033 102.995 353.404 102.664C352.774 102.333 352.284 101.859 351.932 101.24C351.58 100.621 351.404 99.8747 351.404 99C351.404 98.1253 351.58 97.3787 351.932 96.76C352.284 96.1413 352.774 95.6667 353.404 95.336C354.033 95.0053 354.758 94.84 355.58 94.84ZM355.58 96.776C355.281 96.776 355.02 96.856 354.796 97.016C354.582 97.1653 354.417 97.4053 354.3 97.736C354.193 98.056 354.14 98.4773 354.14 99C354.14 99.5227 354.193 99.9493 354.3 100.28C354.417 100.6 354.582 100.84 354.796 101C355.02 101.149 355.281 101.224 355.58 101.224C355.889 101.224 356.15 101.149 356.364 101C356.588 100.84 356.758 100.595 356.876 100.264C356.993 99.9333 357.052 99.512 357.052 99C357.052 98.4773 356.993 98.056 356.876 97.736C356.758 97.4053 356.588 97.1653 356.364 97.016C356.15 96.856 355.889 96.776 355.58 96.776Z" fill="#7FAD67"/>
<path d="M1.46 15V1.8H11.5V4.46H4.9V7.14H10.16V9.64H4.9V12.34H11.76V15H1.46ZM13.6028 15V5H16.6428L16.7428 6.94C17.0628 6.23333 17.5095 5.7 18.0828 5.34C18.6695 4.98 19.3361 4.8 20.0828 4.8C20.8028 4.8 21.4428 4.96667 22.0028 5.3C22.5628 5.63333 22.9695 6.12667 23.2228 6.78C23.4228 6.34 23.6895 5.97333 24.0228 5.68C24.3695 5.38667 24.7561 5.16667 25.1828 5.02C25.6228 4.87333 26.0761 4.8 26.5428 4.8C27.1961 4.8 27.7761 4.93333 28.2828 5.2C28.7895 5.46667 29.1895 5.86 29.4828 6.38C29.7895 6.9 29.9428 7.55333 29.9428 8.34V15H26.5428V9.12C26.5428 8.49333 26.4161 8.05333 26.1628 7.8C25.9228 7.53333 25.6028 7.4 25.2028 7.4C24.8695 7.4 24.5695 7.48667 24.3028 7.66C24.0495 7.82 23.8495 8.06667 23.7028 8.4C23.5561 8.73333 23.4828 9.15333 23.4828 9.66V15H20.0828V9.12C20.0828 8.49333 19.9561 8.05333 19.7028 7.8C19.4495 7.53333 19.1295 7.4 18.7428 7.4C18.4361 7.4 18.1495 7.48 17.8828 7.64C17.6161 7.8 17.4028 8.05333 17.2428 8.4C17.0828 8.73333 17.0028 9.17333 17.0028 9.72V15H13.6028ZM35.7138 5V15H32.3138V5H35.7138ZM34.0138 3.84C33.3204 3.84 32.8138 3.71333 32.4938 3.46C32.1871 3.19333 32.0338 2.78 32.0338 2.22C32.0338 1.64667 32.1871 1.23333 32.4938 0.979999C32.8138 0.713333 33.3204 0.58 34.0138 0.58C34.7071 0.58 35.2071 0.713333 35.5138 0.979999C35.8338 1.23333 35.9938 1.64667 35.9938 2.22C35.9938 2.78 35.8338 3.19333 35.5138 3.46C35.2071 3.71333 34.7071 3.84 34.0138 3.84ZM42.2741 15.2C41.2741 15.2 40.3541 15.04 39.5141 14.72C38.6874 14.3867 37.9874 13.9133 37.4141 13.3L38.9941 11.42C39.3274 11.8467 39.7674 12.2067 40.3141 12.5C40.8741 12.78 41.4807 12.92 42.1341 12.92C42.5207 12.92 42.8474 12.86 43.1141 12.74C43.3807 12.62 43.5141 12.4333 43.5141 12.18C43.5141 11.9933 43.4474 11.8467 43.3141 11.74C43.1807 11.62 42.9207 11.52 42.5341 11.44L41.1741 11.16C39.9207 10.8933 39.0341 10.5133 38.5141 10.02C38.0074 9.52667 37.7541 8.87333 37.7541 8.06C37.7541 7.51333 37.9207 6.99333 38.2541 6.5C38.5874 6.00667 39.0941 5.6 39.7741 5.28C40.4674 4.96 41.3407 4.8 42.3941 4.8C43.4074 4.8 44.2941 4.95333 45.0541 5.26C45.8141 5.55333 46.4207 5.97333 46.8741 6.52L45.2741 8.36C44.9541 7.96 44.5407 7.64667 44.0341 7.42C43.5407 7.19333 43.0474 7.08 42.5541 7.08C42.2341 7.08 41.9674 7.11333 41.7541 7.18C41.5541 7.23333 41.4007 7.31333 41.2941 7.42C41.1874 7.52667 41.1341 7.66 41.1341 7.82C41.1341 8.00667 41.2207 8.16667 41.3941 8.3C41.5674 8.42 41.8607 8.52 42.2741 8.6L44.0741 8.96C45.0874 9.16 45.8141 9.50667 46.2541 10C46.7074 10.48 46.9341 11.0667 46.9341 11.76C46.9341 12.7333 46.5474 13.5533 45.7741 14.22C45.0007 14.8733 43.8341 15.2 42.2741 15.2ZM52.8405 15.2C51.8405 15.2 50.9205 15.04 50.0805 14.72C49.2538 14.3867 48.5538 13.9133 47.9805 13.3L49.5605 11.42C49.8938 11.8467 50.3338 12.2067 50.8805 12.5C51.4405 12.78 52.0471 12.92 52.7005 12.92C53.0871 12.92 53.4138 12.86 53.6805 12.74C53.9471 12.62 54.0805 12.4333 54.0805 12.18C54.0805 11.9933 54.0138 11.8467 53.8805 11.74C53.7471 11.62 53.4871 11.52 53.1005 11.44L51.7405 11.16C50.4871 10.8933 49.6005 10.5133 49.0805 10.02C48.5738 9.52667 48.3205 8.87333 48.3205 8.06C48.3205 7.51333 48.4871 6.99333 48.8205 6.5C49.1538 6.00667 49.6605 5.6 50.3405 5.28C51.0338 4.96 51.9071 4.8 52.9605 4.8C53.9738 4.8 54.8605 4.95333 55.6205 5.26C56.3805 5.55333 56.9871 5.97333 57.4405 6.52L55.8405 8.36C55.5205 7.96 55.1071 7.64667 54.6005 7.42C54.1071 7.19333 53.6138 7.08 53.1205 7.08C52.8005 7.08 52.5338 7.11333 52.3205 7.18C52.1205 7.23333 51.9671 7.31333 51.8605 7.42C51.7538 7.52667 51.7005 7.66 51.7005 7.82C51.7005 8.00667 51.7871 8.16667 51.9605 8.3C52.1338 8.42 52.4271 8.52 52.8405 8.6L54.6405 8.96C55.6538 9.16 56.3805 9.50667 56.8205 10C57.2738 10.48 57.5005 11.0667 57.5005 11.76C57.5005 12.7333 57.1138 13.5533 56.3405 14.22C55.5671 14.8733 54.4005 15.2 52.8405 15.2ZM62.6669 5V15H59.2669V5H62.6669ZM60.9669 3.84C60.2735 3.84 59.7669 3.71333 59.4469 3.46C59.1402 3.19333 58.9869 2.78 58.9869 2.22C58.9869 1.64667 59.1402 1.23333 59.4469 0.979999C59.7669 0.713333 60.2735 0.58 60.9669 0.58C61.6602 0.58 62.1602 0.713333 62.4669 0.979999C62.7869 1.23333 62.9469 1.64667 62.9469 2.22C62.9469 2.78 62.7869 3.19333 62.4669 3.46C62.1602 3.71333 61.6602 3.84 60.9669 3.84ZM69.7872 4.8C70.8272 4.8 71.7405 5.00667 72.5272 5.42C73.3139 5.83333 73.9272 6.42667 74.3672 7.2C74.8205 7.97333 75.0472 8.90667 75.0472 10C75.0472 11.0933 74.8205 12.0267 74.3672 12.8C73.9272 13.5733 73.3139 14.1667 72.5272 14.58C71.7405 14.9933 70.8272 15.2 69.7872 15.2C68.7605 15.2 67.8539 14.9933 67.0672 14.58C66.2805 14.1667 65.6672 13.5733 65.2272 12.8C64.7872 12.0267 64.5672 11.0933 64.5672 10C64.5672 8.90667 64.7872 7.97333 65.2272 7.2C65.6672 6.42667 66.2805 5.83333 67.0672 5.42C67.8539 5.00667 68.7605 4.8 69.7872 4.8ZM69.7872 7.22C69.4139 7.22 69.0872 7.32 68.8072 7.52C68.5405 7.70667 68.3339 8.00667 68.1872 8.42C68.0539 8.82 67.9872 9.34667 67.9872 10C67.9872 10.6533 68.0539 11.1867 68.1872 11.6C68.3339 12 68.5405 12.3 68.8072 12.5C69.0872 12.6867 69.4139 12.78 69.7872 12.78C70.1739 12.78 70.5005 12.6867 70.7672 12.5C71.0472 12.3 71.2605 11.9933 71.4072 11.58C71.5539 11.1667 71.6272 10.64 71.6272 10C71.6272 9.34667 71.5539 8.82 71.4072 8.42C71.2605 8.00667 71.0472 7.70667 70.7672 7.52C70.5005 7.32 70.1739 7.22 69.7872 7.22ZM76.9622 15V5H80.0022L80.1822 8.44L79.8022 8.06C80.0022 6.99333 80.4222 6.18667 81.0622 5.64C81.7022 5.08 82.5089 4.8 83.4822 4.8C84.1622 4.8 84.7555 4.93333 85.2622 5.2C85.7689 5.46667 86.1622 5.86667 86.4422 6.4C86.7355 6.92 86.8822 7.56667 86.8822 8.34V15H83.4822V9.24C83.4822 8.56 83.3555 8.08667 83.1022 7.82C82.8489 7.54 82.5155 7.4 82.1022 7.4C81.7955 7.4 81.5089 7.48 81.2422 7.64C80.9755 7.78667 80.7622 8.02667 80.6022 8.36C80.4422 8.69333 80.3622 9.14 80.3622 9.7V15H76.9622ZM92.6669 5V15H89.2669V5H92.6669ZM90.9669 3.84C90.2735 3.84 89.7669 3.71333 89.4469 3.46C89.1402 3.19333 88.9869 2.78 88.9869 2.22C88.9869 1.64667 89.1402 1.23333 89.4469 0.979999C89.7669 0.713333 90.2735 0.58 90.9669 0.58C91.6602 0.58 92.1602 0.713333 92.4669 0.979999C92.7869 1.23333 92.9469 1.64667 92.9469 2.22C92.9469 2.78 92.7869 3.19333 92.4669 3.46C92.1602 3.71333 91.6602 3.84 90.9669 3.84ZM110.39 2.32L110.67 4.6C110.577 4.57333 110.49 4.56 110.41 4.56C110.33 4.54667 110.257 4.54 110.19 4.54C109.617 4.54 109.183 4.68667 108.89 4.98C108.61 5.26 108.47 5.61333 108.47 6.04L107.27 5.6C107.27 5.04 107.37 4.51333 107.57 4.02C107.77 3.51333 108.077 3.1 108.49 2.78C108.903 2.46 109.43 2.3 110.07 2.3C110.11 2.3 110.157 2.3 110.21 2.3C110.277 2.3 110.337 2.30667 110.39 2.32ZM106.99 12.78C108.123 12.78 108.997 13.0267 109.61 13.52C110.237 14 110.55 14.6933 110.55 15.6C110.55 16.4267 110.323 17.1133 109.87 17.66C109.43 18.22 108.797 18.6333 107.97 18.9C107.157 19.1667 106.197 19.3 105.09 19.3C103.303 19.3 102.01 19.0733 101.21 18.62C100.423 18.1667 100.03 17.5533 100.03 16.78C100.03 16.22 100.257 15.76 100.71 15.4C101.163 15.0533 101.903 14.8733 102.93 14.86L102.85 15.18C102.037 15.0733 101.43 14.8267 101.03 14.44C100.643 14.0533 100.45 13.5533 100.45 12.94C100.45 12.3133 100.703 11.7933 101.21 11.38C101.717 10.9667 102.377 10.7467 103.19 10.72L104.45 11.3H104.13C103.623 11.3133 103.263 11.3933 103.05 11.54C102.837 11.6867 102.73 11.8733 102.73 12.1C102.73 12.3133 102.817 12.48 102.99 12.6C103.177 12.72 103.457 12.78 103.83 12.78H106.99ZM105.13 17.1C105.757 17.1 106.277 17.0533 106.69 16.96C107.103 16.88 107.41 16.76 107.61 16.6C107.81 16.4533 107.91 16.28 107.91 16.08C107.91 15.8667 107.83 15.7067 107.67 15.6C107.523 15.4933 107.277 15.44 106.93 15.44H103.39C103.15 15.44 102.95 15.5067 102.79 15.64C102.643 15.7733 102.57 15.94 102.57 16.14C102.57 16.4333 102.797 16.6667 103.25 16.84C103.703 17.0133 104.33 17.1 105.13 17.1ZM105.23 4.8C106.243 4.8 107.103 4.93333 107.81 5.2C108.53 5.46667 109.077 5.85333 109.45 6.36C109.837 6.86667 110.03 7.48 110.03 8.2C110.03 8.92 109.837 9.53333 109.45 10.04C109.077 10.5333 108.53 10.9133 107.81 11.18C107.103 11.4467 106.243 11.58 105.23 11.58C103.657 11.58 102.463 11.2867 101.65 10.7C100.85 10.1133 100.45 9.28 100.45 8.2C100.45 7.48 100.637 6.86667 101.01 6.36C101.383 5.85333 101.923 5.46667 102.63 5.2C103.35 4.93333 104.217 4.8 105.23 4.8ZM105.23 6.74C104.803 6.74 104.457 6.86667 104.19 7.12C103.923 7.37333 103.79 7.73333 103.79 8.2C103.79 8.65333 103.923 9.00667 104.19 9.26C104.457 9.51333 104.803 9.64 105.23 9.64C105.657 9.64 106.003 9.51333 106.27 9.26C106.537 9.00667 106.67 8.65333 106.67 8.2C106.67 7.73333 106.537 7.37333 106.27 7.12C106.003 6.86667 105.657 6.74 105.23 6.74ZM115.264 0.76V11.6C115.264 12 115.324 12.3067 115.444 12.52C115.577 12.72 115.817 12.82 116.164 12.82C116.35 12.82 116.51 12.8067 116.644 12.78C116.777 12.7533 116.93 12.7133 117.104 12.66L116.884 14.7C116.657 14.8467 116.344 14.9667 115.944 15.06C115.557 15.1533 115.19 15.2 114.844 15.2C113.71 15.2 112.93 14.9267 112.504 14.38C112.077 13.82 111.864 13.04 111.864 12.04V0.76H115.264ZM123.049 4.8C124.089 4.8 125.002 5.00667 125.789 5.42C126.576 5.83333 127.189 6.42667 127.629 7.2C128.082 7.97333 128.309 8.90667 128.309 10C128.309 11.0933 128.082 12.0267 127.629 12.8C127.189 13.5733 126.576 14.1667 125.789 14.58C125.002 14.9933 124.089 15.2 123.049 15.2C122.022 15.2 121.116 14.9933 120.329 14.58C119.542 14.1667 118.929 13.5733 118.489 12.8C118.049 12.0267 117.829 11.0933 117.829 10C117.829 8.90667 118.049 7.97333 118.489 7.2C118.929 6.42667 119.542 5.83333 120.329 5.42C121.116 5.00667 122.022 4.8 123.049 4.8ZM123.049 7.22C122.676 7.22 122.349 7.32 122.069 7.52C121.802 7.70667 121.596 8.00667 121.449 8.42C121.316 8.82 121.249 9.34667 121.249 10C121.249 10.6533 121.316 11.1867 121.449 11.6C121.596 12 121.802 12.3 122.069 12.5C122.349 12.6867 122.676 12.78 123.049 12.78C123.436 12.78 123.762 12.6867 124.029 12.5C124.309 12.3 124.522 11.9933 124.669 11.58C124.816 11.1667 124.889 10.64 124.889 10C124.889 9.34667 124.816 8.82 124.669 8.42C124.522 8.00667 124.309 7.70667 124.029 7.52C123.762 7.32 123.436 7.22 123.049 7.22ZM136.604 15.2C135.631 15.2 134.831 14.88 134.204 14.24C133.591 13.5867 133.211 12.7733 133.064 11.8L133.384 11.38L133.204 15H130.224V0.76H133.624V8.14L133.304 7.66C133.491 6.83333 133.864 6.15333 134.424 5.62C134.997 5.07333 135.764 4.8 136.724 4.8C137.484 4.8 138.157 5.00667 138.744 5.42C139.344 5.83333 139.811 6.43333 140.144 7.22C140.491 7.99333 140.664 8.93333 140.664 10.04C140.664 11.12 140.491 12.0467 140.144 12.82C139.811 13.5933 139.337 14.1867 138.724 14.6C138.124 15 137.417 15.2 136.604 15.2ZM135.424 12.7C135.997 12.7 136.444 12.48 136.764 12.04C137.084 11.6 137.244 10.92 137.244 10C137.244 9.08 137.084 8.4 136.764 7.96C136.444 7.52 135.997 7.3 135.424 7.3C135.051 7.3 134.724 7.41333 134.444 7.64C134.177 7.85333 133.971 8.16 133.824 8.56C133.691 8.96 133.624 9.44667 133.624 10.02C133.624 10.5933 133.697 11.08 133.844 11.48C133.991 11.88 134.197 12.1867 134.464 12.4C134.744 12.6 135.064 12.7 135.424 12.7ZM148.165 8.66C148.165 8.19333 148.039 7.82667 147.785 7.56C147.532 7.28 147.192 7.14 146.765 7.14C146.339 7.14 145.972 7.25333 145.665 7.48C145.359 7.69333 145.145 8.08 145.025 8.64L142.145 7.96C142.332 7 142.819 6.23333 143.605 5.66C144.405 5.08667 145.525 4.8 146.965 4.8C147.925 4.8 148.745 4.94667 149.425 5.24C150.119 5.52 150.645 5.94667 151.005 6.52C151.365 7.08 151.545 7.77333 151.545 8.6V12.26C151.545 12.78 151.772 13.04 152.225 13.04C152.332 13.04 152.432 13.0333 152.525 13.02C152.632 13.0067 152.725 12.9867 152.805 12.96L152.605 14.9C152.419 14.9933 152.205 15.06 151.965 15.1C151.725 15.1533 151.452 15.18 151.145 15.18C150.639 15.18 150.185 15.1 149.785 14.94C149.385 14.7667 149.072 14.5133 148.845 14.18C148.619 13.8333 148.505 13.4 148.505 12.88V12.76L148.885 12.62C148.885 13.1933 148.712 13.6733 148.365 14.06C148.032 14.4467 147.599 14.7333 147.065 14.92C146.545 15.1067 145.992 15.2 145.405 15.2C144.392 15.2 143.585 14.9667 142.985 14.5C142.385 14.02 142.085 13.3333 142.085 12.44C142.085 11.7333 142.299 11.14 142.725 10.66C143.152 10.18 143.825 9.84667 144.745 9.66L148.485 8.88L148.465 10.68L146.585 11.08C146.225 11.16 145.945 11.2733 145.745 11.42C145.545 11.5667 145.445 11.8 145.445 12.12C145.445 12.4133 145.545 12.6333 145.745 12.78C145.959 12.9267 146.205 13 146.485 13C146.712 13 146.925 12.9667 147.125 12.9C147.325 12.8333 147.499 12.7333 147.645 12.6C147.805 12.4533 147.932 12.2733 148.025 12.06C148.119 11.8467 148.165 11.5933 148.165 11.3V8.66ZM157.51 0.76V11.6C157.51 12 157.57 12.3067 157.69 12.52C157.823 12.72 158.063 12.82 158.41 12.82C158.596 12.82 158.756 12.8067 158.89 12.78C159.023 12.7533 159.176 12.7133 159.35 12.66L159.13 14.7C158.903 14.8467 158.59 14.9667 158.19 15.06C157.803 15.1533 157.436 15.2 157.09 15.2C155.956 15.2 155.176 14.9267 154.75 14.38C154.323 13.82 154.11 13.04 154.11 12.04V0.76H157.51ZM163.995 5V15H160.595V5H163.995ZM162.295 3.84C161.602 3.84 161.095 3.71333 160.775 3.46C160.468 3.19333 160.315 2.78 160.315 2.22C160.315 1.64667 160.468 1.23333 160.775 0.979999C161.095 0.713333 161.602 0.58 162.295 0.58C162.988 0.58 163.488 0.713333 163.795 0.979999C164.115 1.23333 164.275 1.64667 164.275 2.22C164.275 2.78 164.115 3.19333 163.795 3.46C163.488 3.71333 162.988 3.84 162.295 3.84ZM175.758 15.2C174.945 15.2 174.231 15 173.618 14.6C173.018 14.1867 172.545 13.5933 172.198 12.82C171.865 12.0467 171.698 11.12 171.698 10.04C171.698 8.92 171.871 7.97333 172.218 7.2C172.578 6.41333 173.065 5.82 173.678 5.42C174.305 5.00667 175.025 4.8 175.838 4.8C176.745 4.8 177.471 5.07333 178.018 5.62C178.565 6.16667 178.911 6.87333 179.058 7.74L178.738 8.16V0.76H182.138V15H179.098L178.878 11.6L179.278 11.9C179.185 12.5533 178.978 13.1333 178.658 13.64C178.351 14.1333 177.951 14.52 177.458 14.8C176.965 15.0667 176.398 15.2 175.758 15.2ZM176.938 12.7C177.311 12.7 177.631 12.5933 177.898 12.38C178.165 12.1667 178.371 11.86 178.518 11.46C178.665 11.0467 178.738 10.54 178.738 9.94C178.738 9.38 178.665 8.90667 178.518 8.52C178.385 8.12 178.185 7.82 177.918 7.62C177.651 7.40667 177.331 7.3 176.958 7.3C176.385 7.3 175.931 7.52 175.598 7.96C175.278 8.4 175.118 9.08 175.118 10C175.118 10.92 175.278 11.6 175.598 12.04C175.918 12.48 176.365 12.7 176.938 12.7ZM187.979 5V15H184.579V5H187.979ZM186.279 3.84C185.586 3.84 185.079 3.71333 184.759 3.46C184.453 3.19333 184.299 2.78 184.299 2.22C184.299 1.64667 184.453 1.23333 184.759 0.979999C185.079 0.713333 185.586 0.58 186.279 0.58C186.973 0.58 187.473 0.713333 187.779 0.979999C188.099 1.23333 188.259 1.64667 188.259 2.22C188.259 2.78 188.099 3.19333 187.779 3.46C187.473 3.71333 186.973 3.84 186.279 3.84ZM207.822 11.22C207.449 12.5933 206.749 13.6 205.722 14.24C204.709 14.88 203.522 15.2 202.162 15.2C200.856 15.2 199.722 14.9333 198.762 14.4C197.816 13.8533 197.082 13.0733 196.562 12.06C196.056 11.0333 195.802 9.81333 195.802 8.4C195.802 6.97333 196.056 5.75333 196.562 4.74C197.082 3.72667 197.816 2.95333 198.762 2.42C199.722 1.87333 200.849 1.6 202.142 1.6C203.036 1.6 203.862 1.73333 204.622 2C205.382 2.25333 206.022 2.64667 206.542 3.18C207.076 3.71333 207.449 4.4 207.662 5.24L204.642 6.46C204.469 5.63333 204.176 5.06667 203.762 4.76C203.362 4.45333 202.862 4.3 202.262 4.3C201.649 4.3 201.122 4.45333 200.682 4.76C200.242 5.06667 199.902 5.52667 199.662 6.14C199.436 6.74 199.322 7.49333 199.322 8.4C199.322 9.29333 199.429 10.0467 199.642 10.66C199.869 11.26 200.202 11.72 200.642 12.04C201.082 12.3467 201.629 12.5 202.282 12.5C202.882 12.5 203.396 12.3267 203.822 11.98C204.262 11.62 204.556 11.0733 204.702 10.34L207.822 11.22ZM215.541 1.6C216.861 1.6 217.995 1.87333 218.941 2.42C219.888 2.95333 220.615 3.72667 221.121 4.74C221.628 5.75333 221.881 6.97333 221.881 8.4C221.881 9.81333 221.628 11.0333 221.121 12.06C220.615 13.0733 219.888 13.8533 218.941 14.4C217.995 14.9333 216.861 15.2 215.541 15.2C214.235 15.2 213.101 14.9333 212.141 14.4C211.195 13.8533 210.461 13.0733 209.941 12.06C209.435 11.0333 209.181 9.81333 209.181 8.4C209.181 6.97333 209.435 5.75333 209.941 4.74C210.461 3.72667 211.195 2.95333 212.141 2.42C213.101 1.87333 214.235 1.6 215.541 1.6ZM215.541 4.3C214.928 4.3 214.408 4.45333 213.981 4.76C213.568 5.06667 213.248 5.52667 213.021 6.14C212.808 6.74 212.701 7.49333 212.701 8.4C212.701 9.29333 212.808 10.0467 213.021 10.66C213.248 11.2733 213.568 11.7333 213.981 12.04C214.408 12.3467 214.928 12.5 215.541 12.5C216.155 12.5 216.668 12.3467 217.081 12.04C217.495 11.7333 217.808 11.2733 218.021 10.66C218.248 10.0467 218.361 9.29333 218.361 8.4C218.361 7.49333 218.248 6.74 218.021 6.14C217.808 5.52667 217.495 5.06667 217.081 4.76C216.668 4.45333 216.155 4.3 215.541 4.3ZM229.633 17.6H223.313V15.96L225.493 13.82C225.893 13.4333 226.207 13.1133 226.433 12.86C226.66 12.5933 226.82 12.3533 226.913 12.14C227.007 11.9267 227.053 11.7067 227.053 11.48C227.053 11.24 226.973 11.0533 226.813 10.92C226.667 10.7867 226.46 10.72 226.193 10.72C225.94 10.72 225.667 10.7867 225.373 10.92C225.093 11.0533 224.78 11.2733 224.433 11.58L223.233 10.1C223.66 9.72667 224.133 9.42667 224.653 9.2C225.187 8.96 225.807 8.84 226.513 8.84C227.38 8.84 228.073 9.05333 228.593 9.48C229.127 9.89333 229.393 10.4933 229.393 11.28C229.393 11.68 229.32 12.0533 229.173 12.4C229.027 12.7333 228.793 13.0867 228.473 13.46C228.153 13.82 227.733 14.24 227.213 14.72L226.193 15.64H229.633V17.6Z" fill="#3E5930"/>
</svg>
