<svg width="634" height="238" viewBox="0 0 634 238" fill="none" xmlns="http://www.w3.org/2000/svg">
<path d="M533.221 206C533.221 194.954 542.175 186 553.221 186H588.13C599.175 186 608.13 194.954 608.13 206V236H533.221V206Z" fill="#3E5930"/>
<path d="M427.35 156C427.35 144.954 436.304 136 447.35 136H482.258C493.304 136 502.258 144.954 502.258 156V236H427.35V156Z" fill="#7FAD67"/>
<path d="M435.782 237V234.36C437.094 233.512 438.214 232.72 439.142 231.984C440.07 231.248 440.822 230.552 441.398 229.896C441.99 229.24 442.422 228.616 442.694 228.024C442.966 227.432 443.102 226.856 443.102 226.296C443.102 225.688 442.934 225.184 442.598 224.784C442.262 224.368 441.758 224.16 441.086 224.16C440.382 224.16 439.83 224.44 439.43 225C439.046 225.544 438.838 226.344 438.806 227.4L435.278 226.32C435.31 225.12 435.59 224.12 436.118 223.32C436.662 222.52 437.39 221.92 438.302 221.52C439.214 221.12 440.23 220.92 441.35 220.92C442.726 220.92 443.846 221.176 444.71 221.688C445.574 222.184 446.206 222.824 446.606 223.608C447.006 224.376 447.206 225.176 447.206 226.008C447.206 227.032 446.95 227.992 446.438 228.888C445.942 229.768 445.206 230.624 444.23 231.456C443.27 232.272 442.102 233.096 440.726 233.928V233.952C440.998 233.936 441.318 233.92 441.686 233.904C442.054 233.888 442.43 233.88 442.814 233.88C443.214 233.864 443.574 233.856 443.894 233.856H447.374V237H435.782ZM455.941 237.24C453.829 237.24 452.229 236.56 451.141 235.2C450.053 233.824 449.509 231.784 449.509 229.08C449.509 226.376 450.053 224.344 451.141 222.984C452.229 221.608 453.829 220.92 455.941 220.92C458.053 220.92 459.653 221.608 460.741 222.984C461.829 224.344 462.373 226.376 462.373 229.08C462.373 231.784 461.829 233.824 460.741 235.2C459.653 236.56 458.053 237.24 455.941 237.24ZM455.941 234.024C456.773 234.024 457.373 233.648 457.741 232.896C458.109 232.128 458.293 230.856 458.293 229.08C458.293 227.304 458.109 226.04 457.741 225.288C457.373 224.52 456.773 224.136 455.941 224.136C455.109 224.136 454.509 224.52 454.141 225.288C453.773 226.04 453.589 227.304 453.589 229.08C453.589 230.856 453.773 232.128 454.141 232.896C454.509 233.648 455.109 234.024 455.941 234.024ZM471.105 237.24C468.993 237.24 467.393 236.56 466.305 235.2C465.217 233.824 464.673 231.784 464.673 229.08C464.673 226.376 465.217 224.344 466.305 222.984C467.393 221.608 468.993 220.92 471.105 220.92C473.217 220.92 474.817 221.608 475.905 222.984C476.993 224.344 477.537 226.376 477.537 229.08C477.537 231.784 476.993 233.824 475.905 235.2C474.817 236.56 473.217 237.24 471.105 237.24ZM471.105 234.024C471.937 234.024 472.537 233.648 472.905 232.896C473.273 232.128 473.457 230.856 473.457 229.08C473.457 227.304 473.273 226.04 472.905 225.288C472.537 224.52 471.937 224.136 471.105 224.136C470.273 224.136 469.673 224.52 469.305 225.288C468.937 226.04 468.753 227.304 468.753 229.08C468.753 230.856 468.937 232.128 469.305 232.896C469.673 233.648 470.273 234.024 471.105 234.024ZM486.27 237.24C484.158 237.24 482.558 236.56 481.47 235.2C480.382 233.824 479.838 231.784 479.838 229.08C479.838 226.376 480.382 224.344 481.47 222.984C482.558 221.608 484.158 220.92 486.27 220.92C488.382 220.92 489.982 221.608 491.07 222.984C492.158 224.344 492.702 226.376 492.702 229.08C492.702 231.784 492.158 233.824 491.07 235.2C489.982 236.56 488.382 237.24 486.27 237.24ZM486.27 234.024C487.102 234.024 487.702 233.648 488.07 232.896C488.438 232.128 488.622 230.856 488.622 229.08C488.622 227.304 488.438 226.04 488.07 225.288C487.702 224.52 487.102 224.136 486.27 224.136C485.438 224.136 484.838 224.52 484.47 225.288C484.102 226.04 483.918 227.304 483.918 229.08C483.918 230.856 484.102 232.128 484.47 232.896C484.838 233.648 485.438 234.024 486.27 234.024Z" fill="white"/>
<path d="M545.647 236V233.36C546.959 232.512 548.079 231.72 549.007 230.984C549.935 230.248 550.687 229.552 551.263 228.896C551.855 228.24 552.287 227.616 552.559 227.024C552.831 226.432 552.967 225.856 552.967 225.296C552.967 224.688 552.799 224.184 552.463 223.784C552.127 223.368 551.623 223.16 550.951 223.16C550.247 223.16 549.695 223.44 549.295 224C548.911 224.544 548.703 225.344 548.671 226.4L545.143 225.32C545.175 224.12 545.455 223.12 545.983 222.32C546.527 221.52 547.255 220.92 548.167 220.52C549.079 220.12 550.095 219.92 551.215 219.92C552.591 219.92 553.711 220.176 554.575 220.688C555.439 221.184 556.071 221.824 556.471 222.608C556.871 223.376 557.071 224.176 557.071 225.008C557.071 226.032 556.815 226.992 556.303 227.888C555.807 228.768 555.071 229.624 554.095 230.456C553.135 231.272 551.967 232.096 550.591 232.928V232.952C550.863 232.936 551.183 232.92 551.551 232.904C551.919 232.888 552.295 232.88 552.679 232.88C553.079 232.864 553.439 232.856 553.759 232.856H557.239V236H545.647ZM565.807 236.24C563.695 236.24 562.095 235.56 561.007 234.2C559.919 232.824 559.375 230.784 559.375 228.08C559.375 225.376 559.919 223.344 561.007 221.984C562.095 220.608 563.695 219.92 565.807 219.92C567.919 219.92 569.519 220.608 570.607 221.984C571.695 223.344 572.239 225.376 572.239 228.08C572.239 230.784 571.695 232.824 570.607 234.2C569.519 235.56 567.919 236.24 565.807 236.24ZM565.807 233.024C566.639 233.024 567.239 232.648 567.607 231.896C567.975 231.128 568.159 229.856 568.159 228.08C568.159 226.304 567.975 225.04 567.607 224.288C567.239 223.52 566.639 223.136 565.807 223.136C564.975 223.136 564.375 223.52 564.007 224.288C563.639 225.04 563.455 226.304 563.455 228.08C563.455 229.856 563.639 231.128 564.007 231.896C564.375 232.648 564.975 233.024 565.807 233.024ZM577.683 236V226.88C577.683 226.464 577.683 226.032 577.683 225.584C577.699 225.136 577.707 224.688 577.707 224.24C577.211 224.736 576.667 225.16 576.075 225.512C575.483 225.864 574.859 226.104 574.203 226.232L573.843 222.824C574.227 222.776 574.643 222.672 575.091 222.512C575.539 222.336 575.979 222.12 576.411 221.864C576.859 221.608 577.251 221.336 577.587 221.048C577.939 220.744 578.203 220.448 578.379 220.16H581.667V236H577.683ZM591.481 219.92C592.729 219.92 593.833 220.184 594.793 220.712C595.753 221.24 596.441 222.144 596.857 223.424L593.521 225.008C593.361 224.448 593.097 224.008 592.729 223.688C592.377 223.352 591.873 223.184 591.217 223.184C590.785 223.184 590.393 223.296 590.041 223.52C589.689 223.728 589.385 224.032 589.129 224.432C588.889 224.832 588.697 225.32 588.553 225.896C588.425 226.472 588.361 227.12 588.361 227.84C588.361 227.904 588.361 227.96 588.361 228.008C588.361 228.056 588.361 228.128 588.361 228.224L588.409 228.368C588.585 227.888 588.873 227.48 589.273 227.144C589.673 226.808 590.129 226.56 590.641 226.4C591.153 226.224 591.657 226.136 592.153 226.136C593.097 226.136 593.937 226.328 594.673 226.712C595.425 227.096 596.017 227.648 596.449 228.368C596.881 229.072 597.097 229.928 597.097 230.936C597.097 232.024 596.857 232.968 596.377 233.768C595.897 234.552 595.217 235.16 594.337 235.592C593.473 236.024 592.457 236.24 591.289 236.24C589.961 236.24 588.793 235.936 587.785 235.328C586.777 234.72 585.993 233.824 585.433 232.64C584.873 231.44 584.593 229.968 584.593 228.224C584.593 226.352 584.897 224.8 585.505 223.568C586.113 222.336 586.937 221.424 587.977 220.832C589.017 220.224 590.185 219.92 591.481 219.92ZM591.217 228.92C590.817 228.92 590.457 229.008 590.137 229.184C589.817 229.344 589.561 229.584 589.369 229.904C589.177 230.224 589.081 230.6 589.081 231.032C589.081 231.448 589.177 231.816 589.369 232.136C589.561 232.456 589.817 232.704 590.137 232.88C590.473 233.056 590.833 233.144 591.217 233.144C591.889 233.144 592.409 232.96 592.777 232.592C593.145 232.224 593.329 231.704 593.329 231.032C593.329 230.584 593.241 230.208 593.065 229.904C592.905 229.584 592.665 229.344 592.345 229.184C592.041 229.008 591.665 228.92 591.217 228.92Z" fill="white"/>
<path d="M549.941 167.912V171.248H541.157V167.912H549.941ZM558.613 176.24C557.285 176.24 556.117 175.976 555.109 175.448C554.117 174.904 553.285 174.024 552.613 172.808L556.237 171.008C556.413 171.648 556.685 172.16 557.053 172.544C557.421 172.928 557.973 173.12 558.709 173.12C559.173 173.12 559.573 173.032 559.909 172.856C560.245 172.68 560.501 172.424 560.677 172.088C560.869 171.736 560.965 171.312 560.965 170.816C560.965 170.336 560.877 169.936 560.701 169.616C560.525 169.296 560.269 169.056 559.933 168.896C559.613 168.72 559.205 168.632 558.709 168.632C558.197 168.632 557.733 168.712 557.317 168.872C556.901 169.016 556.557 169.248 556.285 169.568L553.189 168.992L554.173 160.16H563.917V163.352H557.149L556.765 166.52L556.693 166.904H556.717C557.037 166.536 557.477 166.256 558.037 166.064C558.597 165.872 559.205 165.776 559.861 165.776C560.869 165.776 561.733 165.984 562.453 166.4C563.173 166.816 563.725 167.384 564.109 168.104C564.493 168.824 564.685 169.648 564.685 170.576C564.685 171.872 564.405 172.936 563.845 173.768C563.285 174.6 562.541 175.224 561.613 175.64C560.701 176.04 559.701 176.24 558.613 176.24ZM573.188 176.24C571.076 176.24 569.476 175.56 568.388 174.2C567.3 172.824 566.756 170.784 566.756 168.08C566.756 165.376 567.3 163.344 568.388 161.984C569.476 160.608 571.076 159.92 573.188 159.92C575.3 159.92 576.9 160.608 577.988 161.984C579.076 163.344 579.62 165.376 579.62 168.08C579.62 170.784 579.076 172.824 577.988 174.2C576.9 175.56 575.3 176.24 573.188 176.24ZM573.188 173.024C574.02 173.024 574.62 172.648 574.988 171.896C575.356 171.128 575.54 169.856 575.54 168.08C575.54 166.304 575.356 165.04 574.988 164.288C574.62 163.52 574.02 163.136 573.188 163.136C572.356 163.136 571.756 163.52 571.388 164.288C571.02 165.04 570.836 166.304 570.836 168.08C570.836 169.856 571.02 171.128 571.388 171.896C571.756 172.648 572.356 173.024 573.188 173.024ZM584.968 176L595.984 160.136H599.104L588.088 176H584.968ZM585.952 159.92C586.848 159.92 587.632 160.104 588.304 160.472C588.976 160.84 589.496 161.368 589.864 162.056C590.232 162.728 590.416 163.52 590.416 164.432C590.416 165.344 590.232 166.144 589.864 166.832C589.496 167.504 588.976 168.024 588.304 168.392C587.632 168.76 586.848 168.944 585.952 168.944C585.056 168.944 584.272 168.76 583.6 168.392C582.928 168.024 582.408 167.504 582.04 166.832C581.672 166.144 581.488 165.344 581.488 164.432C581.488 163.52 581.672 162.728 582.04 162.056C582.408 161.368 582.928 160.84 583.6 160.472C584.272 160.104 585.056 159.92 585.952 159.92ZM585.952 162.656C585.648 162.656 585.392 162.728 585.184 162.872C584.976 163 584.816 163.2 584.704 163.472C584.592 163.728 584.536 164.048 584.536 164.432C584.536 164.8 584.592 165.12 584.704 165.392C584.816 165.664 584.976 165.872 585.184 166.016C585.392 166.144 585.648 166.208 585.952 166.208C586.272 166.208 586.536 166.144 586.744 166.016C586.952 165.872 587.112 165.664 587.224 165.392C587.336 165.12 587.392 164.8 587.392 164.432C587.392 164.048 587.336 163.728 587.224 163.472C587.112 163.2 586.952 163 586.744 162.872C586.536 162.728 586.272 162.656 585.952 162.656ZM598.072 167.216C598.968 167.216 599.752 167.4 600.424 167.768C601.096 168.136 601.616 168.664 601.984 169.352C602.352 170.024 602.536 170.816 602.536 171.728C602.536 172.64 602.352 173.432 601.984 174.104C601.616 174.776 601.096 175.304 600.424 175.688C599.752 176.056 598.968 176.24 598.072 176.24C597.176 176.24 596.392 176.056 595.72 175.688C595.048 175.304 594.528 174.776 594.16 174.104C593.792 173.432 593.608 172.64 593.608 171.728C593.608 170.816 593.792 170.024 594.16 169.352C594.528 168.664 595.048 168.136 595.72 167.768C596.392 167.4 597.176 167.216 598.072 167.216ZM598.072 169.952C597.768 169.952 597.504 170.024 597.28 170.168C597.072 170.296 596.912 170.496 596.8 170.768C596.688 171.024 596.632 171.344 596.632 171.728C596.632 172.096 596.688 172.416 596.8 172.688C596.912 172.96 597.072 173.168 597.28 173.312C597.504 173.44 597.768 173.504 598.072 173.504C598.392 173.504 598.656 173.44 598.864 173.312C599.072 173.168 599.232 172.96 599.344 172.688C599.456 172.416 599.512 172.096 599.512 171.728C599.512 171.344 599.456 171.024 599.344 170.768C599.232 170.496 599.072 170.296 598.864 170.168C598.656 170.024 598.392 169.952 598.072 169.952Z" fill="#3E5930"/>
<path d="M435.726 2.16C438.142 2.16 439.99 2.848 441.27 4.224C442.566 5.6 443.214 7.552 443.214 10.08C443.214 12.608 442.566 14.56 441.27 15.936C439.99 17.312 438.142 18 435.726 18H429.102V2.16L435.726 2.16ZM435.318 14.88C436.454 14.88 437.35 14.528 438.006 13.824C438.662 13.104 438.99 11.856 438.99 10.08C438.99 8.88 438.838 7.936 438.534 7.248C438.23 6.544 437.806 6.04 437.262 5.736C436.718 5.432 436.07 5.28 435.318 5.28H433.23V14.88H435.318ZM449.767 18.24C448.967 18.24 448.255 18.104 447.631 17.832C447.023 17.544 446.543 17.088 446.191 16.464C445.855 15.84 445.687 15.024 445.687 14.016V6L449.767 6V13.056C449.767 13.744 449.895 14.264 450.151 14.616C450.423 14.952 450.863 15.12 451.471 15.12C451.743 15.12 451.999 15.072 452.239 14.976C452.495 14.864 452.711 14.704 452.887 14.496C453.079 14.272 453.223 13.992 453.319 13.656C453.431 13.304 453.487 12.896 453.487 12.432V6H457.567V18H453.919L453.799 15.744C453.559 16.304 453.239 16.768 452.839 17.136C452.455 17.504 452.007 17.784 451.495 17.976C450.983 18.152 450.407 18.24 449.767 18.24ZM460.501 18V6L464.101 6L464.269 8.592C464.557 7.696 464.997 7 465.589 6.504C466.181 6.008 466.925 5.76 467.821 5.76C468.125 5.76 468.381 5.784 468.589 5.832C468.797 5.88 468.965 5.944 469.093 6.024L468.685 9.384C468.557 9.336 468.373 9.288 468.133 9.24C467.893 9.192 467.589 9.168 467.221 9.168C466.757 9.168 466.317 9.272 465.901 9.48C465.501 9.688 465.181 10 464.941 10.416C464.701 10.816 464.581 11.328 464.581 11.952V18H460.501ZM476.921 10.392C476.921 9.832 476.769 9.392 476.465 9.072C476.161 8.736 475.753 8.568 475.241 8.568C474.729 8.568 474.289 8.704 473.921 8.976C473.553 9.232 473.297 9.696 473.153 10.368L469.697 9.552C469.921 8.4 470.505 7.48 471.449 6.792C472.409 6.104 473.753 5.76 475.481 5.76C476.633 5.76 477.617 5.936 478.433 6.288C479.265 6.624 479.897 7.136 480.329 7.824C480.761 8.496 480.977 9.328 480.977 10.32V14.712C480.977 15.336 481.249 15.648 481.793 15.648C481.921 15.648 482.041 15.64 482.153 15.624C482.281 15.608 482.393 15.584 482.489 15.552L482.249 17.88C482.025 17.992 481.769 18.072 481.481 18.12C481.193 18.184 480.865 18.216 480.497 18.216C479.889 18.216 479.345 18.12 478.865 17.928C478.385 17.72 478.009 17.416 477.737 17.016C477.465 16.6 477.329 16.08 477.329 15.456V15.312L477.785 15.144C477.785 15.832 477.577 16.408 477.161 16.872C476.761 17.336 476.241 17.68 475.601 17.904C474.977 18.128 474.313 18.24 473.609 18.24C472.393 18.24 471.425 17.96 470.705 17.4C469.985 16.824 469.625 16 469.625 14.928C469.625 14.08 469.881 13.368 470.393 12.792C470.905 12.216 471.713 11.816 472.817 11.592L477.305 10.656L477.281 12.816L475.025 13.296C474.593 13.392 474.257 13.528 474.017 13.704C473.777 13.88 473.657 14.16 473.657 14.544C473.657 14.896 473.777 15.16 474.017 15.336C474.273 15.512 474.569 15.6 474.905 15.6C475.177 15.6 475.433 15.56 475.673 15.48C475.913 15.4 476.121 15.28 476.297 15.12C476.489 14.944 476.641 14.728 476.753 14.472C476.865 14.216 476.921 13.912 476.921 13.56V10.392ZM489.071 2.184V13.728C489.071 14.304 489.207 14.72 489.479 14.976C489.751 15.216 490.135 15.336 490.631 15.336C490.999 15.336 491.319 15.288 491.591 15.192C491.863 15.096 492.111 14.968 492.335 14.808L492.767 17.328C492.367 17.6 491.863 17.824 491.255 18C490.663 18.16 490.055 18.24 489.431 18.24C488.071 18.24 486.991 17.952 486.191 17.376C485.407 16.784 485.015 15.792 485.015 14.4V3.312L489.071 2.184ZM492.575 6V8.904L482.975 8.904V6L492.575 6ZM501.062 10.392C501.062 9.832 500.91 9.392 500.606 9.072C500.302 8.736 499.894 8.568 499.382 8.568C498.87 8.568 498.43 8.704 498.062 8.976C497.694 9.232 497.438 9.696 497.294 10.368L493.838 9.552C494.062 8.4 494.646 7.48 495.59 6.792C496.55 6.104 497.894 5.76 499.622 5.76C500.774 5.76 501.758 5.936 502.574 6.288C503.406 6.624 504.038 7.136 504.47 7.824C504.902 8.496 505.118 9.328 505.118 10.32V14.712C505.118 15.336 505.39 15.648 505.934 15.648C506.062 15.648 506.182 15.64 506.294 15.624C506.422 15.608 506.534 15.584 506.63 15.552L506.39 17.88C506.166 17.992 505.91 18.072 505.622 18.12C505.334 18.184 505.006 18.216 504.638 18.216C504.03 18.216 503.486 18.12 503.006 17.928C502.526 17.72 502.15 17.416 501.878 17.016C501.606 16.6 501.47 16.08 501.47 15.456V15.312L501.926 15.144C501.926 15.832 501.718 16.408 501.302 16.872C500.902 17.336 500.382 17.68 499.742 17.904C499.118 18.128 498.454 18.24 497.75 18.24C496.534 18.24 495.566 17.96 494.846 17.4C494.126 16.824 493.766 16 493.766 14.928C493.766 14.08 494.022 13.368 494.534 12.792C495.046 12.216 495.854 11.816 496.958 11.592L501.446 10.656L501.422 12.816L499.166 13.296C498.734 13.392 498.398 13.528 498.158 13.704C497.918 13.88 497.798 14.16 497.798 14.544C497.798 14.896 497.918 15.16 498.158 15.336C498.414 15.512 498.71 15.6 499.046 15.6C499.318 15.6 499.574 15.56 499.814 15.48C500.054 15.4 500.262 15.28 500.438 15.12C500.63 14.944 500.782 14.728 500.894 14.472C501.006 14.216 501.062 13.912 501.062 13.56V10.392ZM432.894 34V46H428.814V34H432.894ZM430.854 32.608C430.022 32.608 429.414 32.456 429.03 32.152C428.662 31.832 428.478 31.336 428.478 30.664C428.478 29.976 428.662 29.48 429.03 29.176C429.414 28.856 430.022 28.696 430.854 28.696C431.686 28.696 432.286 28.856 432.654 29.176C433.038 29.48 433.23 29.976 433.23 30.664C433.23 31.336 433.038 31.832 432.654 32.152C432.286 32.456 431.686 32.608 430.854 32.608ZM435.798 46V34H439.446L439.662 38.128L439.206 37.672C439.446 36.392 439.95 35.424 440.718 34.768C441.486 34.096 442.454 33.76 443.622 33.76C444.438 33.76 445.15 33.92 445.758 34.24C446.366 34.56 446.838 35.04 447.174 35.68C447.526 36.304 447.702 37.08 447.702 38.008V46H443.622V39.088C443.622 38.272 443.47 37.704 443.166 37.384C442.862 37.048 442.462 36.88 441.966 36.88C441.598 36.88 441.254 36.976 440.934 37.168C440.614 37.344 440.358 37.632 440.166 38.032C439.974 38.432 439.878 38.968 439.878 39.64V46H435.798ZM454.908 46.24C453.932 46.24 453.076 46 452.34 45.52C451.62 45.024 451.052 44.312 450.636 43.384C450.236 42.456 450.036 41.344 450.036 40.048C450.036 38.704 450.244 37.568 450.66 36.64C451.092 35.696 451.676 34.984 452.412 34.504C453.164 34.008 454.028 33.76 455.004 33.76C456.092 33.76 456.964 34.088 457.62 34.744C458.276 35.4 458.692 36.248 458.868 37.288L458.484 37.792V28.912L462.564 28.912V46H458.916L458.652 41.92L459.132 42.28C459.02 43.064 458.772 43.76 458.388 44.368C458.02 44.96 457.54 45.424 456.948 45.76C456.356 46.08 455.676 46.24 454.908 46.24ZM456.324 43.24C456.772 43.24 457.156 43.112 457.476 42.856C457.796 42.6 458.044 42.232 458.22 41.752C458.396 41.256 458.484 40.648 458.484 39.928C458.484 39.256 458.396 38.688 458.22 38.224C458.06 37.744 457.82 37.384 457.5 37.144C457.18 36.888 456.796 36.76 456.348 36.76C455.66 36.76 455.116 37.024 454.716 37.552C454.332 38.08 454.14 38.896 454.14 40C454.14 41.104 454.332 41.92 454.716 42.448C455.1 42.976 455.636 43.24 456.324 43.24ZM469.501 46.24C468.701 46.24 467.989 46.104 467.365 45.832C466.757 45.544 466.277 45.088 465.925 44.464C465.589 43.84 465.421 43.024 465.421 42.016V34H469.501V41.056C469.501 41.744 469.629 42.264 469.885 42.616C470.157 42.952 470.597 43.12 471.205 43.12C471.477 43.12 471.733 43.072 471.973 42.976C472.229 42.864 472.445 42.704 472.621 42.496C472.813 42.272 472.957 41.992 473.053 41.656C473.165 41.304 473.221 40.896 473.221 40.432V34H477.301V46H473.653L473.533 43.744C473.293 44.304 472.973 44.768 472.573 45.136C472.189 45.504 471.741 45.784 471.229 45.976C470.717 46.152 470.141 46.24 469.501 46.24ZM480.235 46V34H483.883L484.003 36.328C484.387 35.48 484.923 34.84 485.611 34.408C486.315 33.976 487.115 33.76 488.011 33.76C488.875 33.76 489.643 33.96 490.315 34.36C490.987 34.76 491.475 35.352 491.779 36.136C492.019 35.608 492.339 35.168 492.739 34.816C493.155 34.464 493.619 34.2 494.131 34.024C494.659 33.848 495.203 33.76 495.763 33.76C496.547 33.76 497.243 33.92 497.851 34.24C498.459 34.56 498.939 35.032 499.291 35.656C499.659 36.28 499.843 37.064 499.843 38.008V46H495.763V38.944C495.763 38.192 495.611 37.664 495.307 37.36C495.019 37.04 494.635 36.88 494.155 36.88C493.755 36.88 493.395 36.984 493.075 37.192C492.771 37.384 492.531 37.68 492.355 38.08C492.179 38.48 492.091 38.984 492.091 39.592V46H488.011V38.944C488.011 38.192 487.859 37.664 487.555 37.36C487.251 37.04 486.867 36.88 486.403 36.88C486.035 36.88 485.691 36.976 485.371 37.168C485.051 37.36 484.795 37.664 484.603 38.08C484.411 38.48 484.315 39.008 484.315 39.664V46H480.235ZM508.473 46.24C507.161 46.24 506.025 46 505.065 45.52C504.105 45.024 503.361 44.312 502.833 43.384C502.321 42.44 502.065 41.312 502.065 40C502.065 38.672 502.329 37.544 502.857 36.616C503.385 35.688 504.113 34.984 505.041 34.504C505.985 34.008 507.065 33.76 508.281 33.76C509.529 33.76 510.593 34.008 511.473 34.504C512.353 34.984 513.025 35.656 513.489 36.52C513.953 37.368 514.185 38.344 514.185 39.448C514.185 39.752 514.177 40.048 514.161 40.336C514.145 40.608 514.121 40.84 514.089 41.032H504.705V38.848H512.289L510.345 39.592C510.345 38.952 510.265 38.416 510.105 37.984C509.961 37.536 509.737 37.2 509.433 36.976C509.129 36.736 508.745 36.616 508.281 36.616C507.785 36.616 507.361 36.736 507.009 36.976C506.657 37.216 506.393 37.592 506.217 38.104C506.041 38.616 505.953 39.272 505.953 40.072C505.953 40.856 506.049 41.496 506.241 41.992C506.449 42.472 506.737 42.824 507.105 43.048C507.489 43.256 507.945 43.36 508.473 43.36C509.049 43.36 509.521 43.24 509.889 43C510.257 42.76 510.521 42.424 510.681 41.992L513.945 43.072C513.721 43.76 513.329 44.344 512.769 44.824C512.225 45.288 511.577 45.64 510.825 45.88C510.089 46.12 509.305 46.24 508.473 46.24ZM516.47 46V34H520.118L520.334 38.128L519.878 37.672C520.118 36.392 520.622 35.424 521.39 34.768C522.158 34.096 523.126 33.76 524.294 33.76C525.11 33.76 525.822 33.92 526.43 34.24C527.038 34.56 527.51 35.04 527.846 35.68C528.198 36.304 528.374 37.08 528.374 38.008V46H524.294V39.088C524.294 38.272 524.142 37.704 523.838 37.384C523.534 37.048 523.134 36.88 522.638 36.88C522.27 36.88 521.926 36.976 521.606 37.168C521.286 37.344 521.03 37.632 520.838 38.032C520.646 38.432 520.55 38.968 520.55 39.64V46H516.47ZM536.039 30.184V41.728C536.039 42.304 536.175 42.72 536.447 42.976C536.719 43.216 537.103 43.336 537.599 43.336C537.967 43.336 538.287 43.288 538.559 43.192C538.831 43.096 539.079 42.968 539.303 42.808L539.735 45.328C539.335 45.6 538.831 45.824 538.223 46C537.631 46.16 537.023 46.24 536.399 46.24C535.039 46.24 533.959 45.952 533.159 45.376C532.375 44.784 531.983 43.792 531.983 42.4V31.312L536.039 30.184ZM539.543 34V36.904L529.943 36.904V34L539.543 34ZM545.511 34V46H541.431V34H545.511ZM543.471 32.608C542.639 32.608 542.031 32.456 541.647 32.152C541.279 31.832 541.095 31.336 541.095 30.664C541.095 29.976 541.279 29.48 541.647 29.176C542.031 28.856 542.639 28.696 543.471 28.696C544.303 28.696 544.903 28.856 545.271 29.176C545.655 29.48 545.847 29.976 545.847 30.664C545.847 31.336 545.655 31.832 545.271 32.152C544.903 32.456 544.303 32.608 543.471 32.608Z" fill="#3E5930"/>
<path d="M107.738 96C107.738 84.9543 116.693 76 127.738 76H162.647C173.693 76 182.647 84.9543 182.647 96V236H107.738V96Z" fill="#3E5930"/>
<path d="M0.869141 156C0.869141 144.954 9.82345 136 20.8691 136H55.778C66.8237 136 75.778 144.954 75.778 156V236H0.869141V156Z" fill="#7FAD67"/>
<path d="M9.30133 237V234.36C10.6133 233.512 11.7333 232.72 12.6613 231.984C13.5893 231.248 14.3413 230.552 14.9173 229.896C15.5093 229.24 15.9413 228.616 16.2133 228.024C16.4853 227.432 16.6213 226.856 16.6213 226.296C16.6213 225.688 16.4533 225.184 16.1173 224.784C15.7813 224.368 15.2773 224.16 14.6053 224.16C13.9013 224.16 13.3493 224.44 12.9493 225C12.5653 225.544 12.3573 226.344 12.3253 227.4L8.79733 226.32C8.82933 225.12 9.10933 224.12 9.63733 223.32C10.1813 222.52 10.9093 221.92 11.8213 221.52C12.7333 221.12 13.7493 220.92 14.8693 220.92C16.2453 220.92 17.3653 221.176 18.2293 221.688C19.0933 222.184 19.7253 222.824 20.1253 223.608C20.5253 224.376 20.7253 225.176 20.7253 226.008C20.7253 227.032 20.4693 227.992 19.9573 228.888C19.4613 229.768 18.7253 230.624 17.7493 231.456C16.7893 232.272 15.6213 233.096 14.2453 233.928V233.952C14.5173 233.936 14.8373 233.92 15.2053 233.904C15.5733 233.888 15.9493 233.88 16.3333 233.88C16.7333 233.864 17.0933 233.856 17.4133 233.856H20.8933V237H9.30133ZM29.461 237.24C27.349 237.24 25.749 236.56 24.661 235.2C23.573 233.824 23.029 231.784 23.029 229.08C23.029 226.376 23.573 224.344 24.661 222.984C25.749 221.608 27.349 220.92 29.461 220.92C31.573 220.92 33.173 221.608 34.261 222.984C35.349 224.344 35.893 226.376 35.893 229.08C35.893 231.784 35.349 233.824 34.261 235.2C33.173 236.56 31.573 237.24 29.461 237.24ZM29.461 234.024C30.293 234.024 30.893 233.648 31.261 232.896C31.629 232.128 31.813 230.856 31.813 229.08C31.813 227.304 31.629 226.04 31.261 225.288C30.893 224.52 30.293 224.136 29.461 224.136C28.629 224.136 28.029 224.52 27.661 225.288C27.293 226.04 27.109 227.304 27.109 229.08C27.109 230.856 27.293 232.128 27.661 232.896C28.029 233.648 28.629 234.024 29.461 234.024ZM44.625 237.24C42.513 237.24 40.913 236.56 39.825 235.2C38.737 233.824 38.193 231.784 38.193 229.08C38.193 226.376 38.737 224.344 39.825 222.984C40.913 221.608 42.513 220.92 44.625 220.92C46.737 220.92 48.337 221.608 49.425 222.984C50.513 224.344 51.057 226.376 51.057 229.08C51.057 231.784 50.513 233.824 49.425 235.2C48.337 236.56 46.737 237.24 44.625 237.24ZM44.625 234.024C45.457 234.024 46.057 233.648 46.425 232.896C46.793 232.128 46.977 230.856 46.977 229.08C46.977 227.304 46.793 226.04 46.425 225.288C46.057 224.52 45.457 224.136 44.625 224.136C43.793 224.136 43.193 224.52 42.825 225.288C42.457 226.04 42.273 227.304 42.273 229.08C42.273 230.856 42.457 232.128 42.825 232.896C43.193 233.648 43.793 234.024 44.625 234.024ZM59.7891 237.24C57.6771 237.24 56.0771 236.56 54.9891 235.2C53.9011 233.824 53.3571 231.784 53.3571 229.08C53.3571 226.376 53.9011 224.344 54.9891 222.984C56.0771 221.608 57.6771 220.92 59.7891 220.92C61.9011 220.92 63.5011 221.608 64.5891 222.984C65.6771 224.344 66.2211 226.376 66.2211 229.08C66.2211 231.784 65.6771 233.824 64.5891 235.2C63.5011 236.56 61.9011 237.24 59.7891 237.24ZM59.7891 234.024C60.6211 234.024 61.2211 233.648 61.5891 232.896C61.9571 232.128 62.1411 230.856 62.1411 229.08C62.1411 227.304 61.9571 226.04 61.5891 225.288C61.2211 224.52 60.6211 224.136 59.7891 224.136C58.9571 224.136 58.3571 224.52 57.9891 225.288C57.6211 226.04 57.4371 227.304 57.4371 229.08C57.4371 230.856 57.6211 232.128 57.9891 232.896C58.3571 233.648 58.9571 234.024 59.7891 234.024Z" fill="white"/>
<path d="M119.167 236V233.36C120.479 232.512 121.599 231.72 122.527 230.984C123.455 230.248 124.207 229.552 124.783 228.896C125.375 228.24 125.807 227.616 126.079 227.024C126.351 226.432 126.487 225.856 126.487 225.296C126.487 224.688 126.319 224.184 125.983 223.784C125.647 223.368 125.143 223.16 124.471 223.16C123.767 223.16 123.215 223.44 122.815 224C122.431 224.544 122.223 225.344 122.191 226.4L118.663 225.32C118.695 224.12 118.975 223.12 119.503 222.32C120.047 221.52 120.775 220.92 121.687 220.52C122.599 220.12 123.615 219.92 124.735 219.92C126.111 219.92 127.231 220.176 128.095 220.688C128.959 221.184 129.591 221.824 129.991 222.608C130.391 223.376 130.591 224.176 130.591 225.008C130.591 226.032 130.335 226.992 129.823 227.888C129.327 228.768 128.591 229.624 127.615 230.456C126.655 231.272 125.487 232.096 124.111 232.928V232.952C124.383 232.936 124.703 232.92 125.071 232.904C125.439 232.888 125.815 232.88 126.199 232.88C126.599 232.864 126.959 232.856 127.279 232.856H130.759V236H119.167ZM139.326 236.24C137.214 236.24 135.614 235.56 134.526 234.2C133.438 232.824 132.894 230.784 132.894 228.08C132.894 225.376 133.438 223.344 134.526 221.984C135.614 220.608 137.214 219.92 139.326 219.92C141.438 219.92 143.038 220.608 144.126 221.984C145.214 223.344 145.758 225.376 145.758 228.08C145.758 230.784 145.214 232.824 144.126 234.2C143.038 235.56 141.438 236.24 139.326 236.24ZM139.326 233.024C140.158 233.024 140.758 232.648 141.126 231.896C141.494 231.128 141.678 229.856 141.678 228.08C141.678 226.304 141.494 225.04 141.126 224.288C140.758 223.52 140.158 223.136 139.326 223.136C138.494 223.136 137.894 223.52 137.526 224.288C137.158 225.04 136.974 226.304 136.974 228.08C136.974 229.856 137.158 231.128 137.526 231.896C137.894 232.648 138.494 233.024 139.326 233.024ZM151.202 236V226.88C151.202 226.464 151.202 226.032 151.202 225.584C151.218 225.136 151.226 224.688 151.226 224.24C150.73 224.736 150.186 225.16 149.594 225.512C149.002 225.864 148.378 226.104 147.722 226.232L147.362 222.824C147.746 222.776 148.162 222.672 148.61 222.512C149.058 222.336 149.498 222.12 149.93 221.864C150.378 221.608 150.77 221.336 151.106 221.048C151.458 220.744 151.722 220.448 151.898 220.16H155.186V236H151.202ZM165.001 219.92C166.249 219.92 167.353 220.184 168.313 220.712C169.273 221.24 169.961 222.144 170.377 223.424L167.041 225.008C166.881 224.448 166.617 224.008 166.249 223.688C165.897 223.352 165.393 223.184 164.737 223.184C164.305 223.184 163.913 223.296 163.561 223.52C163.209 223.728 162.905 224.032 162.649 224.432C162.409 224.832 162.217 225.32 162.073 225.896C161.945 226.472 161.881 227.12 161.881 227.84C161.881 227.904 161.881 227.96 161.881 228.008C161.881 228.056 161.881 228.128 161.881 228.224L161.929 228.368C162.105 227.888 162.393 227.48 162.793 227.144C163.193 226.808 163.649 226.56 164.161 226.4C164.673 226.224 165.177 226.136 165.673 226.136C166.617 226.136 167.457 226.328 168.193 226.712C168.945 227.096 169.537 227.648 169.969 228.368C170.401 229.072 170.617 229.928 170.617 230.936C170.617 232.024 170.377 232.968 169.897 233.768C169.417 234.552 168.737 235.16 167.857 235.592C166.993 236.024 165.977 236.24 164.809 236.24C163.481 236.24 162.313 235.936 161.305 235.328C160.297 234.72 159.513 233.824 158.953 232.64C158.393 231.44 158.113 229.968 158.113 228.224C158.113 226.352 158.417 224.8 159.025 223.568C159.633 222.336 160.457 221.424 161.497 220.832C162.537 220.224 163.705 219.92 165.001 219.92ZM164.737 228.92C164.337 228.92 163.977 229.008 163.657 229.184C163.337 229.344 163.081 229.584 162.889 229.904C162.697 230.224 162.601 230.6 162.601 231.032C162.601 231.448 162.697 231.816 162.889 232.136C163.081 232.456 163.337 232.704 163.657 232.88C163.993 233.056 164.353 233.144 164.737 233.144C165.409 233.144 165.929 232.96 166.297 232.592C166.665 232.224 166.849 231.704 166.849 231.032C166.849 230.584 166.761 230.208 166.585 229.904C166.425 229.584 166.185 229.344 165.865 229.184C165.561 229.008 165.185 228.92 164.737 228.92Z" fill="white"/>
<path d="M120.614 51.864V64.56H117.374V51.864H120.614ZM125.006 56.736V59.664H112.958V56.736H125.006ZM134.259 49.92C135.507 49.92 136.611 50.184 137.571 50.712C138.531 51.24 139.219 52.144 139.635 53.424L136.299 55.008C136.139 54.448 135.875 54.008 135.507 53.688C135.155 53.352 134.651 53.184 133.995 53.184C133.563 53.184 133.171 53.296 132.819 53.52C132.467 53.728 132.163 54.032 131.907 54.432C131.667 54.832 131.475 55.32 131.331 55.896C131.203 56.472 131.139 57.12 131.139 57.84C131.139 57.904 131.139 57.96 131.139 58.008C131.139 58.056 131.139 58.128 131.139 58.224L131.187 58.368C131.363 57.888 131.651 57.48 132.051 57.144C132.451 56.808 132.907 56.56 133.419 56.4C133.931 56.224 134.435 56.136 134.931 56.136C135.875 56.136 136.715 56.328 137.451 56.712C138.203 57.096 138.795 57.648 139.227 58.368C139.659 59.072 139.875 59.928 139.875 60.936C139.875 62.024 139.635 62.968 139.155 63.768C138.675 64.552 137.995 65.16 137.115 65.592C136.251 66.024 135.235 66.24 134.067 66.24C132.739 66.24 131.571 65.936 130.563 65.328C129.555 64.72 128.771 63.824 128.211 62.64C127.651 61.44 127.371 59.968 127.371 58.224C127.371 56.352 127.675 54.8 128.283 53.568C128.891 52.336 129.715 51.424 130.755 50.832C131.795 50.224 132.963 49.92 134.259 49.92ZM133.995 58.92C133.595 58.92 133.235 59.008 132.915 59.184C132.595 59.344 132.339 59.584 132.147 59.904C131.955 60.224 131.859 60.6 131.859 61.032C131.859 61.448 131.955 61.816 132.147 62.136C132.339 62.456 132.595 62.704 132.915 62.88C133.251 63.056 133.611 63.144 133.995 63.144C134.667 63.144 135.187 62.96 135.555 62.592C135.923 62.224 136.107 61.704 136.107 61.032C136.107 60.584 136.019 60.208 135.843 59.904C135.683 59.584 135.443 59.344 135.123 59.184C134.819 59.008 134.443 58.92 133.995 58.92ZM148.287 66.24C146.175 66.24 144.575 65.56 143.487 64.2C142.399 62.824 141.855 60.784 141.855 58.08C141.855 55.376 142.399 53.344 143.487 51.984C144.575 50.608 146.175 49.92 148.287 49.92C150.399 49.92 151.999 50.608 153.087 51.984C154.175 53.344 154.719 55.376 154.719 58.08C154.719 60.784 154.175 62.824 153.087 64.2C151.999 65.56 150.399 66.24 148.287 66.24ZM148.287 63.024C149.119 63.024 149.719 62.648 150.087 61.896C150.455 61.128 150.639 59.856 150.639 58.08C150.639 56.304 150.455 55.04 150.087 54.288C149.719 53.52 149.119 53.136 148.287 53.136C147.455 53.136 146.855 53.52 146.487 54.288C146.119 55.04 145.935 56.304 145.935 58.08C145.935 59.856 146.119 61.128 146.487 61.896C146.855 62.648 147.455 63.024 148.287 63.024ZM160.067 66L171.083 50.136H174.203L163.187 66H160.067ZM161.051 49.92C161.947 49.92 162.731 50.104 163.403 50.472C164.075 50.84 164.595 51.368 164.963 52.056C165.331 52.728 165.515 53.52 165.515 54.432C165.515 55.344 165.331 56.144 164.963 56.832C164.595 57.504 164.075 58.024 163.403 58.392C162.731 58.76 161.947 58.944 161.051 58.944C160.155 58.944 159.371 58.76 158.699 58.392C158.027 58.024 157.507 57.504 157.139 56.832C156.771 56.144 156.587 55.344 156.587 54.432C156.587 53.52 156.771 52.728 157.139 52.056C157.507 51.368 158.027 50.84 158.699 50.472C159.371 50.104 160.155 49.92 161.051 49.92ZM161.051 52.656C160.747 52.656 160.491 52.728 160.283 52.872C160.075 53 159.915 53.2 159.803 53.472C159.691 53.728 159.635 54.048 159.635 54.432C159.635 54.8 159.691 55.12 159.803 55.392C159.915 55.664 160.075 55.872 160.283 56.016C160.491 56.144 160.747 56.208 161.051 56.208C161.371 56.208 161.635 56.144 161.843 56.016C162.051 55.872 162.211 55.664 162.323 55.392C162.435 55.12 162.491 54.8 162.491 54.432C162.491 54.048 162.435 53.728 162.323 53.472C162.211 53.2 162.051 53 161.843 52.872C161.635 52.728 161.371 52.656 161.051 52.656ZM173.171 57.216C174.067 57.216 174.851 57.4 175.523 57.768C176.195 58.136 176.715 58.664 177.083 59.352C177.451 60.024 177.635 60.816 177.635 61.728C177.635 62.64 177.451 63.432 177.083 64.104C176.715 64.776 176.195 65.304 175.523 65.688C174.851 66.056 174.067 66.24 173.171 66.24C172.275 66.24 171.491 66.056 170.819 65.688C170.147 65.304 169.627 64.776 169.259 64.104C168.891 63.432 168.707 62.64 168.707 61.728C168.707 60.816 168.891 60.024 169.259 59.352C169.627 58.664 170.147 58.136 170.819 57.768C171.491 57.4 172.275 57.216 173.171 57.216ZM173.171 59.952C172.867 59.952 172.603 60.024 172.379 60.168C172.171 60.296 172.011 60.496 171.899 60.768C171.787 61.024 171.731 61.344 171.731 61.728C171.731 62.096 171.787 62.416 171.899 62.688C172.011 62.96 172.171 63.168 172.379 63.312C172.603 63.44 172.867 63.504 173.171 63.504C173.491 63.504 173.755 63.44 173.963 63.312C174.171 63.168 174.331 62.96 174.443 62.688C174.555 62.416 174.611 62.096 174.611 61.728C174.611 61.344 174.555 61.024 174.443 60.768C174.331 60.496 174.171 60.296 173.963 60.168C173.755 60.024 173.491 59.952 173.171 59.952Z" fill="#3E5930"/>
<path d="M16.864 18H12.616L11.56 14.424L6.328 14.424L5.248 18H1.096L6.52 2.16L11.464 2.16L16.864 18ZM7.096 11.616H10.792L8.944 5.208L7.096 11.616ZM23.83 5.76C25.03 5.76 26.03 5.936 26.83 6.288C27.63 6.624 28.254 7.072 28.702 7.632C29.15 8.192 29.438 8.808 29.566 9.48L25.798 10.728C25.686 10.024 25.486 9.504 25.198 9.168C24.926 8.832 24.51 8.664 23.95 8.664C23.454 8.664 23.038 8.784 22.702 9.024C22.366 9.264 22.11 9.632 21.934 10.128C21.774 10.624 21.694 11.264 21.694 12.048C21.694 12.832 21.782 13.472 21.958 13.968C22.15 14.448 22.414 14.8 22.75 15.024C23.102 15.232 23.51 15.336 23.974 15.336C24.358 15.336 24.678 15.264 24.934 15.12C25.206 14.96 25.422 14.736 25.582 14.448C25.742 14.16 25.854 13.808 25.918 13.392L29.59 14.568C29.478 15.256 29.182 15.88 28.702 16.44C28.222 17 27.582 17.44 26.782 17.76C25.998 18.08 25.07 18.24 23.998 18.24C22.702 18.24 21.574 17.992 20.614 17.496C19.654 17 18.91 16.288 18.382 15.36C17.854 14.432 17.59 13.312 17.59 12C17.59 10.688 17.854 9.568 18.382 8.64C18.91 7.712 19.638 7 20.566 6.504C21.51 6.008 22.598 5.76 23.83 5.76ZM39.6106 23.04L39.6106 13.992L40.0426 14.52C39.8826 15.64 39.4506 16.544 38.7466 17.232C38.0426 17.904 37.1386 18.24 36.0346 18.24C35.0746 18.24 34.2266 17.992 33.4906 17.496C32.7706 17 32.2026 16.288 31.7866 15.36C31.3706 14.416 31.1626 13.28 31.1626 11.952C31.1626 10.64 31.3706 9.528 31.7866 8.616C32.2026 7.688 32.7786 6.984 33.5146 6.504C34.2666 6.008 35.1306 5.76 36.1066 5.76C37.2586 5.76 38.2106 6.152 38.9626 6.936C39.7306 7.704 40.1706 8.696 40.2826 9.912L39.8026 10.296L40.0186 6L43.6906 6L43.6906 23.04H39.6106ZM37.4506 15.24C37.9146 15.24 38.3066 15.112 38.6266 14.856C38.9466 14.584 39.1866 14.208 39.3466 13.728C39.5226 13.232 39.6106 12.648 39.6106 11.976C39.6106 11.256 39.5226 10.656 39.3466 10.176C39.1706 9.696 38.9226 9.344 38.6026 9.12C38.2986 8.88 37.9226 8.76 37.4746 8.76C36.7866 8.76 36.2426 9.024 35.8426 9.552C35.4586 10.08 35.2666 10.896 35.2666 12C35.2666 13.104 35.4586 13.92 35.8426 14.448C36.2266 14.976 36.7626 15.24 37.4506 15.24ZM50.6283 18.24C49.8283 18.24 49.1163 18.104 48.4923 17.832C47.8843 17.544 47.4043 17.088 47.0523 16.464C46.7163 15.84 46.5483 15.024 46.5483 14.016V6L50.6283 6V13.056C50.6283 13.744 50.7563 14.264 51.0123 14.616C51.2843 14.952 51.7243 15.12 52.3323 15.12C52.6043 15.12 52.8603 15.072 53.1003 14.976C53.3563 14.864 53.5723 14.704 53.7483 14.496C53.9403 14.272 54.0843 13.992 54.1803 13.656C54.2923 13.304 54.3483 12.896 54.3483 12.432V6H58.4283V18L54.7803 18L54.6603 15.744C54.4203 16.304 54.1003 16.768 53.7003 17.136C53.3163 17.504 52.8683 17.784 52.3563 17.976C51.8443 18.152 51.2683 18.24 50.6283 18.24ZM65.4424 6V18H61.3624V6L65.4424 6ZM63.4024 4.608C62.5704 4.608 61.9624 4.456 61.5784 4.152C61.2104 3.832 61.0264 3.336 61.0264 2.664C61.0264 1.976 61.2104 1.48 61.5784 1.176C61.9624 0.855999 62.5704 0.696 63.4024 0.696C64.2344 0.696 64.8344 0.855999 65.2024 1.176C65.5864 1.48 65.7784 1.976 65.7784 2.664C65.7784 3.336 65.5864 3.832 65.2024 4.152C64.8344 4.456 64.2344 4.608 63.4024 4.608ZM73.3148 18.24C72.1148 18.24 71.0108 18.048 70.0028 17.664C69.0108 17.264 68.1708 16.696 67.4828 15.96L69.3788 13.704C69.7788 14.216 70.3068 14.648 70.9628 15C71.6348 15.336 72.3628 15.504 73.1468 15.504C73.6108 15.504 74.0028 15.432 74.3228 15.288C74.6428 15.144 74.8028 14.92 74.8028 14.616C74.8028 14.392 74.7228 14.216 74.5628 14.088C74.4028 13.944 74.0908 13.824 73.6268 13.728L71.9948 13.392C70.4908 13.072 69.4268 12.616 68.8028 12.024C68.1948 11.432 67.8908 10.648 67.8908 9.672C67.8908 9.016 68.0908 8.392 68.4908 7.8C68.8908 7.208 69.4988 6.72 70.3148 6.336C71.1468 5.952 72.1948 5.76 73.4588 5.76C74.6748 5.76 75.7388 5.944 76.6508 6.312C77.5628 6.664 78.2908 7.168 78.8348 7.824L76.9148 10.032C76.5308 9.552 76.0348 9.176 75.4268 8.904C74.8348 8.632 74.2428 8.496 73.6508 8.496C73.2668 8.496 72.9468 8.536 72.6908 8.616C72.4508 8.68 72.2668 8.776 72.1388 8.904C72.0108 9.032 71.9468 9.192 71.9468 9.384C71.9468 9.608 72.0508 9.8 72.2588 9.96C72.4668 10.104 72.8188 10.224 73.3148 10.32L75.4748 10.752C76.6908 10.992 77.5628 11.408 78.0908 12C78.6348 12.576 78.9068 13.28 78.9068 14.112C78.9068 15.28 78.4428 16.264 77.5148 17.064C76.5868 17.848 75.1868 18.24 73.3148 18.24ZM85.9945 2.184V13.728C85.9945 14.304 86.1305 14.72 86.4025 14.976C86.6745 15.216 87.0585 15.336 87.5545 15.336C87.9225 15.336 88.2425 15.288 88.5145 15.192C88.7865 15.096 89.0345 14.968 89.2585 14.808L89.6905 17.328C89.2905 17.6 88.7865 17.824 88.1785 18C87.5865 18.16 86.9785 18.24 86.3545 18.24C84.9945 18.24 83.9145 17.952 83.1145 17.376C82.3305 16.784 81.9385 15.792 81.9385 14.4V3.312L85.9945 2.184ZM89.4985 6V8.904L79.8985 8.904V6L89.4985 6ZM95.4659 6V18H91.3859V6L95.4659 6ZM93.4259 4.608C92.5939 4.608 91.9859 4.456 91.6019 4.152C91.2339 3.832 91.0499 3.336 91.0499 2.664C91.0499 1.976 91.2339 1.48 91.6019 1.176C91.9859 0.855999 92.5939 0.696 93.4259 0.696C94.2579 0.696 94.8579 0.855999 95.2259 1.176C95.6099 1.48 95.8019 1.976 95.8019 2.664C95.8019 3.336 95.6099 3.832 95.2259 4.152C94.8579 4.456 94.2579 4.608 93.4259 4.608Z" fill="#3E5930"/>
</svg>
