<svg width="585" height="264" viewBox="0 0 585 264" fill="none" xmlns="http://www.w3.org/2000/svg">
<path d="M370 83.9141C370 72.8684 378.954 63.9141 390 63.9141H425C436.046 63.9141 445 72.8684 445 83.9141V263.914H370V83.9141Z" fill="#7FAD67"/>
<path d="M370 243.914C370 232.868 378.954 223.914 390 223.914H425C436.046 223.914 445 232.868 445 243.914V263.914H370V243.914Z" fill="#3E5930"/>
<line x1="407" y1="233.414" x2="584" y2="233.414" stroke="#3E5930"/>
<path d="M478.92 225.914V222.394C480.669 221.263 482.163 220.207 483.4 219.226C484.637 218.245 485.64 217.317 486.408 216.442C487.197 215.567 487.773 214.735 488.136 213.946C488.499 213.157 488.68 212.389 488.68 211.642C488.68 210.831 488.456 210.159 488.008 209.626C487.56 209.071 486.888 208.794 485.992 208.794C485.053 208.794 484.317 209.167 483.784 209.914C483.272 210.639 482.995 211.706 482.952 213.114L478.248 211.674C478.291 210.074 478.664 208.741 479.368 207.674C480.093 206.607 481.064 205.807 482.28 205.274C483.496 204.741 484.851 204.474 486.344 204.474C488.179 204.474 489.672 204.815 490.824 205.498C491.976 206.159 492.819 207.013 493.352 208.058C493.885 209.082 494.152 210.149 494.152 211.258C494.152 212.623 493.811 213.903 493.128 215.098C492.467 216.271 491.485 217.413 490.184 218.522C488.904 219.61 487.347 220.709 485.512 221.818V221.85C485.875 221.829 486.301 221.807 486.792 221.786C487.283 221.765 487.784 221.754 488.296 221.754C488.829 221.733 489.309 221.722 489.736 221.722H494.376V225.914H478.92ZM505.8 226.234C502.984 226.234 500.85 225.327 499.4 223.514C497.949 221.679 497.224 218.959 497.224 215.354C497.224 211.749 497.949 209.039 499.4 207.226C500.85 205.391 502.984 204.474 505.8 204.474C508.616 204.474 510.749 205.391 512.2 207.226C513.65 209.039 514.376 211.749 514.376 215.354C514.376 218.959 513.65 221.679 512.2 223.514C510.749 225.327 508.616 226.234 505.8 226.234ZM505.8 221.946C506.909 221.946 507.709 221.445 508.2 220.442C508.69 219.418 508.936 217.722 508.936 215.354C508.936 212.986 508.69 211.301 508.2 210.298C507.709 209.274 506.909 208.762 505.8 208.762C504.69 208.762 503.89 209.274 503.4 210.298C502.909 211.301 502.664 212.986 502.664 215.354C502.664 217.722 502.909 219.418 503.4 220.442C503.89 221.445 504.69 221.946 505.8 221.946ZM521.506 225.914L536.194 204.762H540.354L525.666 225.914H521.506ZM522.818 204.474C524.013 204.474 525.058 204.719 525.954 205.21C526.85 205.701 527.544 206.405 528.034 207.322C528.525 208.218 528.77 209.274 528.77 210.49C528.77 211.706 528.525 212.773 528.034 213.69C527.544 214.586 526.85 215.279 525.954 215.77C525.058 216.261 524.013 216.506 522.818 216.506C521.624 216.506 520.578 216.261 519.682 215.77C518.786 215.279 518.093 214.586 517.602 213.69C517.112 212.773 516.866 211.706 516.866 210.49C516.866 209.274 517.112 208.218 517.602 207.322C518.093 206.405 518.786 205.701 519.682 205.21C520.578 204.719 521.624 204.474 522.818 204.474ZM522.818 208.122C522.413 208.122 522.072 208.218 521.794 208.41C521.517 208.581 521.304 208.847 521.154 209.21C521.005 209.551 520.93 209.978 520.93 210.49C520.93 210.981 521.005 211.407 521.154 211.77C521.304 212.133 521.517 212.41 521.794 212.602C522.072 212.773 522.413 212.858 522.818 212.858C523.245 212.858 523.597 212.773 523.874 212.602C524.152 212.41 524.365 212.133 524.514 211.77C524.664 211.407 524.738 210.981 524.738 210.49C524.738 209.978 524.664 209.551 524.514 209.21C524.365 208.847 524.152 208.581 523.874 208.41C523.597 208.218 523.245 208.122 522.818 208.122ZM538.978 214.202C540.173 214.202 541.218 214.447 542.114 214.938C543.01 215.429 543.704 216.133 544.194 217.05C544.685 217.946 544.93 219.002 544.93 220.218C544.93 221.434 544.685 222.49 544.194 223.386C543.704 224.282 543.01 224.986 542.114 225.498C541.218 225.989 540.173 226.234 538.978 226.234C537.784 226.234 536.738 225.989 535.842 225.498C534.946 224.986 534.253 224.282 533.762 223.386C533.272 222.49 533.026 221.434 533.026 220.218C533.026 219.002 533.272 217.946 533.762 217.05C534.253 216.133 534.946 215.429 535.842 214.938C536.738 214.447 537.784 214.202 538.978 214.202ZM538.978 217.85C538.573 217.85 538.221 217.946 537.922 218.138C537.645 218.309 537.432 218.575 537.282 218.938C537.133 219.279 537.058 219.706 537.058 220.218C537.058 220.709 537.133 221.135 537.282 221.498C537.432 221.861 537.645 222.138 537.922 222.33C538.221 222.501 538.573 222.586 538.978 222.586C539.405 222.586 539.757 222.501 540.034 222.33C540.312 222.138 540.525 221.861 540.674 221.498C540.824 221.135 540.898 220.709 540.898 220.218C540.898 219.706 540.824 219.279 540.674 218.938C540.525 218.575 540.312 218.309 540.034 218.138C539.757 217.946 539.405 217.85 538.978 217.85Z" fill="#7FAD67"/>
<path d="M496.712 240.794V245.05H490.024V261.914H484.52V245.05H477.8V240.794H496.712ZM503.633 262.234C501.883 262.234 500.369 261.914 499.089 261.274C497.809 260.613 496.817 259.663 496.113 258.426C495.43 257.167 495.089 255.663 495.089 253.914C495.089 252.143 495.441 250.639 496.145 249.402C496.849 248.165 497.819 247.226 499.057 246.586C500.315 245.925 501.755 245.594 503.377 245.594C505.041 245.594 506.459 245.925 507.633 246.586C508.806 247.226 509.702 248.122 510.321 249.274C510.939 250.405 511.249 251.706 511.249 253.178C511.249 253.583 511.238 253.978 511.217 254.362C511.195 254.725 511.163 255.034 511.121 255.29H498.609V252.378H508.721L506.129 253.37C506.129 252.517 506.022 251.802 505.809 251.226C505.617 250.629 505.318 250.181 504.913 249.882C504.507 249.562 503.995 249.402 503.377 249.402C502.715 249.402 502.15 249.562 501.681 249.882C501.211 250.202 500.859 250.703 500.625 251.386C500.39 252.069 500.273 252.943 500.273 254.01C500.273 255.055 500.401 255.909 500.657 256.57C500.934 257.21 501.318 257.679 501.809 257.978C502.321 258.255 502.929 258.394 503.633 258.394C504.401 258.394 505.03 258.234 505.521 257.914C506.011 257.594 506.363 257.146 506.577 256.57L510.929 258.01C510.63 258.927 510.107 259.706 509.361 260.346C508.635 260.965 507.771 261.434 506.769 261.754C505.787 262.074 504.742 262.234 503.633 262.234ZM520.92 262.234C519.32 262.234 517.848 261.978 516.504 261.466C515.181 260.933 514.061 260.175 513.144 259.194L515.672 256.186C516.205 256.869 516.909 257.445 517.784 257.914C518.68 258.362 519.65 258.586 520.696 258.586C521.314 258.586 521.837 258.49 522.264 258.298C522.69 258.106 522.904 257.807 522.904 257.402C522.904 257.103 522.797 256.869 522.584 256.698C522.37 256.506 521.954 256.346 521.336 256.218L519.16 255.77C517.154 255.343 515.736 254.735 514.904 253.946C514.093 253.157 513.688 252.111 513.688 250.81C513.688 249.935 513.954 249.103 514.488 248.314C515.021 247.525 515.832 246.874 516.92 246.362C518.029 245.85 519.426 245.594 521.112 245.594C522.733 245.594 524.152 245.839 525.368 246.33C526.584 246.799 527.554 247.471 528.28 248.346L525.72 251.29C525.208 250.65 524.546 250.149 523.736 249.786C522.946 249.423 522.157 249.242 521.368 249.242C520.856 249.242 520.429 249.295 520.088 249.402C519.768 249.487 519.522 249.615 519.352 249.786C519.181 249.957 519.096 250.17 519.096 250.426C519.096 250.725 519.234 250.981 519.512 251.194C519.789 251.386 520.258 251.546 520.92 251.674L523.8 252.25C525.421 252.57 526.584 253.125 527.288 253.914C528.013 254.682 528.376 255.621 528.376 256.73C528.376 258.287 527.757 259.599 526.52 260.666C525.282 261.711 523.416 262.234 520.92 262.234ZM537.826 262.234C536.226 262.234 534.754 261.978 533.41 261.466C532.087 260.933 530.967 260.175 530.05 259.194L532.578 256.186C533.111 256.869 533.815 257.445 534.69 257.914C535.586 258.362 536.557 258.586 537.602 258.586C538.221 258.586 538.743 258.49 539.17 258.298C539.597 258.106 539.81 257.807 539.81 257.402C539.81 257.103 539.703 256.869 539.49 256.698C539.277 256.506 538.861 256.346 538.242 256.218L536.066 255.77C534.061 255.343 532.642 254.735 531.81 253.946C530.999 253.157 530.594 252.111 530.594 250.81C530.594 249.935 530.861 249.103 531.394 248.314C531.927 247.525 532.738 246.874 533.826 246.362C534.935 245.85 536.333 245.594 538.018 245.594C539.639 245.594 541.058 245.839 542.274 246.33C543.49 246.799 544.461 247.471 545.186 248.346L542.626 251.29C542.114 250.65 541.453 250.149 540.642 249.786C539.853 249.423 539.063 249.242 538.274 249.242C537.762 249.242 537.335 249.295 536.994 249.402C536.674 249.487 536.429 249.615 536.258 249.786C536.087 249.957 536.002 250.17 536.002 250.426C536.002 250.725 536.141 250.981 536.418 251.194C536.695 251.386 537.165 251.546 537.826 251.674L540.706 252.25C542.327 252.57 543.49 253.125 544.194 253.914C544.919 254.682 545.282 255.621 545.282 256.73C545.282 258.287 544.663 259.599 543.426 260.666C542.189 261.711 540.322 262.234 537.826 262.234ZM553.548 245.914V261.914H548.108V245.914H553.548ZM550.828 244.058C549.719 244.058 548.908 243.855 548.396 243.45C547.906 243.023 547.66 242.362 547.66 241.466C547.66 240.549 547.906 239.887 548.396 239.482C548.908 239.055 549.719 238.842 550.828 238.842C551.938 238.842 552.738 239.055 553.228 239.482C553.74 239.887 553.996 240.549 553.996 241.466C553.996 242.362 553.74 243.023 553.228 243.45C552.738 243.855 551.938 244.058 550.828 244.058ZM562.797 239.13V256.474C562.797 257.114 562.893 257.605 563.085 257.946C563.298 258.266 563.682 258.426 564.237 258.426C564.535 258.426 564.791 258.405 565.005 258.362C565.218 258.319 565.463 258.255 565.741 258.17L565.389 261.434C565.026 261.669 564.525 261.861 563.885 262.01C563.266 262.159 562.679 262.234 562.125 262.234C560.311 262.234 559.063 261.797 558.381 260.922C557.698 260.026 557.357 258.778 557.357 257.178V239.13H562.797ZM575.445 262.234C573.696 262.234 572.181 261.914 570.901 261.274C569.621 260.613 568.629 259.663 567.925 258.426C567.243 257.167 566.901 255.663 566.901 253.914C566.901 252.143 567.253 250.639 567.957 249.402C568.661 248.165 569.632 247.226 570.869 246.586C572.128 245.925 573.568 245.594 575.189 245.594C576.853 245.594 578.272 245.925 579.445 246.586C580.619 247.226 581.515 248.122 582.133 249.274C582.752 250.405 583.061 251.706 583.061 253.178C583.061 253.583 583.051 253.978 583.029 254.362C583.008 254.725 582.976 255.034 582.933 255.29H570.421V252.378H580.533L577.941 253.37C577.941 252.517 577.835 251.802 577.621 251.226C577.429 250.629 577.131 250.181 576.725 249.882C576.32 249.562 575.808 249.402 575.189 249.402C574.528 249.402 573.963 249.562 573.493 249.882C573.024 250.202 572.672 250.703 572.437 251.386C572.203 252.069 572.085 252.943 572.085 254.01C572.085 255.055 572.213 255.909 572.469 256.57C572.747 257.21 573.131 257.679 573.621 257.978C574.133 258.255 574.741 258.394 575.445 258.394C576.213 258.394 576.843 258.234 577.333 257.914C577.824 257.594 578.176 257.146 578.389 256.57L582.741 258.01C582.443 258.927 581.92 259.706 581.173 260.346C580.448 260.965 579.584 261.434 578.581 261.754C577.6 262.074 576.555 262.234 575.445 262.234Z" fill="#7FAD67"/>
<line x1="232" y1="108.414" x2="407" y2="108.414" stroke="#3E5930"/>
<path d="M239.368 87.8821C241.112 87.8821 242.512 88.2741 243.568 89.0581C244.624 89.8261 245.152 90.8821 245.152 92.2261C245.152 93.0581 244.952 93.7861 244.552 94.4101C244.152 95.0181 243.552 95.4821 242.752 95.8021V95.8261C243.68 96.1301 244.4 96.6021 244.912 97.2421C245.424 97.8661 245.68 98.6501 245.68 99.5941C245.68 100.522 245.424 101.33 244.912 102.018C244.416 102.69 243.696 103.218 242.752 103.602C241.808 103.97 240.68 104.154 239.368 104.154C238.072 104.154 236.952 103.97 236.008 103.602C235.08 103.218 234.36 102.69 233.848 102.018C233.336 101.33 233.08 100.522 233.08 99.5941C233.08 98.6501 233.336 97.8661 233.848 97.2421C234.36 96.6021 235.08 96.1301 236.008 95.8261V95.8021C235.224 95.4981 234.624 95.0421 234.208 94.4341C233.792 93.8101 233.584 93.0741 233.584 92.2261C233.584 91.3301 233.824 90.5621 234.304 89.9221C234.8 89.2661 235.48 88.7621 236.344 88.4101C237.208 88.0581 238.216 87.8821 239.368 87.8821ZM239.368 90.8821C238.76 90.8821 238.28 91.0421 237.928 91.3621C237.576 91.6821 237.4 92.1301 237.4 92.7061C237.4 93.2661 237.576 93.7141 237.928 94.0501C238.296 94.3701 238.776 94.5301 239.368 94.5301C239.976 94.5301 240.456 94.3701 240.808 94.0501C241.176 93.7141 241.36 93.2661 241.36 92.7061C241.36 92.1301 241.176 91.6821 240.808 91.3621C240.456 91.0421 239.976 90.8821 239.368 90.8821ZM239.368 101.154C239.848 101.154 240.256 101.074 240.592 100.914C240.944 100.754 241.208 100.53 241.384 100.242C241.576 99.9381 241.672 99.5861 241.672 99.1861C241.672 98.7701 241.576 98.4181 241.384 98.1301C241.208 97.8261 240.944 97.6021 240.592 97.4581C240.256 97.2981 239.856 97.2181 239.392 97.2181C238.912 97.2181 238.496 97.2981 238.144 97.4581C237.808 97.6021 237.544 97.8261 237.352 98.1301C237.176 98.4181 237.088 98.7701 237.088 99.1861C237.088 99.5861 237.176 99.9381 237.352 100.242C237.544 100.53 237.808 100.754 238.144 100.914C238.496 101.074 238.904 101.154 239.368 101.154ZM254.35 104.154C252.238 104.154 250.638 103.474 249.55 102.114C248.462 100.738 247.918 98.6981 247.918 95.9941C247.918 93.2901 248.462 91.2581 249.55 89.8981C250.638 88.5221 252.238 87.8341 254.35 87.8341C256.462 87.8341 258.062 88.5221 259.15 89.8981C260.238 91.2581 260.782 93.2901 260.782 95.9941C260.782 98.6981 260.238 100.738 259.15 102.114C258.062 103.474 256.462 104.154 254.35 104.154ZM254.35 100.938C255.182 100.938 255.782 100.562 256.15 99.8101C256.518 99.0421 256.702 97.7701 256.702 95.9941C256.702 94.2181 256.518 92.9541 256.15 92.2021C255.782 91.4341 255.182 91.0501 254.35 91.0501C253.518 91.0501 252.918 91.4341 252.55 92.2021C252.182 92.9541 251.998 94.2181 251.998 95.9941C251.998 97.7701 252.182 99.0421 252.55 99.8101C252.918 100.562 253.518 100.938 254.35 100.938ZM266.13 103.914L277.146 88.0501H280.266L269.25 103.914H266.13ZM267.114 87.8341C268.01 87.8341 268.794 88.0181 269.466 88.3861C270.138 88.7541 270.658 89.2821 271.026 89.9701C271.394 90.6421 271.578 91.4341 271.578 92.3461C271.578 93.2581 271.394 94.0581 271.026 94.7461C270.658 95.4181 270.138 95.9381 269.466 96.3061C268.794 96.6741 268.01 96.8581 267.114 96.8581C266.218 96.8581 265.434 96.6741 264.762 96.3061C264.09 95.9381 263.57 95.4181 263.202 94.7461C262.834 94.0581 262.65 93.2581 262.65 92.3461C262.65 91.4341 262.834 90.6421 263.202 89.9701C263.57 89.2821 264.09 88.7541 264.762 88.3861C265.434 88.0181 266.218 87.8341 267.114 87.8341ZM267.114 90.5701C266.81 90.5701 266.554 90.6421 266.346 90.7861C266.138 90.9141 265.978 91.1141 265.866 91.3861C265.754 91.6421 265.698 91.9621 265.698 92.3461C265.698 92.7141 265.754 93.0341 265.866 93.3061C265.978 93.5781 266.138 93.7861 266.346 93.9301C266.554 94.0581 266.81 94.1221 267.114 94.1221C267.434 94.1221 267.698 94.0581 267.906 93.9301C268.114 93.7861 268.274 93.5781 268.386 93.3061C268.498 93.0341 268.554 92.7141 268.554 92.3461C268.554 91.9621 268.498 91.6421 268.386 91.3861C268.274 91.1141 268.114 90.9141 267.906 90.7861C267.698 90.6421 267.434 90.5701 267.114 90.5701ZM279.234 95.1301C280.13 95.1301 280.914 95.3141 281.586 95.6821C282.258 96.0501 282.778 96.5781 283.146 97.2661C283.514 97.9381 283.698 98.7301 283.698 99.6421C283.698 100.554 283.514 101.346 283.146 102.018C282.778 102.69 282.258 103.218 281.586 103.602C280.914 103.97 280.13 104.154 279.234 104.154C278.338 104.154 277.554 103.97 276.882 103.602C276.21 103.218 275.69 102.69 275.322 102.018C274.954 101.346 274.77 100.554 274.77 99.6421C274.77 98.7301 274.954 97.9381 275.322 97.2661C275.69 96.5781 276.21 96.0501 276.882 95.6821C277.554 95.3141 278.338 95.1301 279.234 95.1301ZM279.234 97.8661C278.93 97.8661 278.666 97.9381 278.442 98.0821C278.234 98.2101 278.074 98.4101 277.962 98.6821C277.85 98.9381 277.794 99.2581 277.794 99.6421C277.794 100.01 277.85 100.33 277.962 100.602C278.074 100.874 278.234 101.082 278.442 101.226C278.666 101.354 278.93 101.418 279.234 101.418C279.554 101.418 279.818 101.354 280.026 101.226C280.234 101.082 280.394 100.874 280.506 100.602C280.618 100.33 280.674 100.01 280.674 99.6421C280.674 99.2581 280.618 98.9381 280.506 98.6821C280.394 98.4101 280.234 98.2101 280.026 98.0821C279.818 97.9381 279.554 97.8661 279.234 97.8661Z" fill="#7FAD67"/>
<path d="M244.56 128.914H242.28L241.08 125.434H235.78L234.56 128.914H232.34L237.16 115.714H239.76L244.56 128.914ZM236.34 123.714H240.52L238.44 117.534L236.34 123.714ZM248.591 114.454V126.074C248.591 126.527 248.657 126.867 248.791 127.094C248.937 127.321 249.204 127.434 249.591 127.434C249.804 127.434 249.984 127.421 250.131 127.394C250.277 127.354 250.457 127.294 250.671 127.214L250.451 128.754C250.264 128.861 250.017 128.947 249.711 129.014C249.417 129.081 249.137 129.114 248.871 129.114C247.937 129.114 247.297 128.861 246.951 128.354C246.604 127.834 246.431 127.141 246.431 126.274V114.454H248.591ZM254.838 115.954V125.874C254.838 126.381 254.965 126.761 255.218 127.014C255.472 127.254 255.812 127.374 256.238 127.374C256.585 127.374 256.878 127.321 257.118 127.214C257.372 127.094 257.598 126.941 257.798 126.754L258.238 128.274C257.932 128.541 257.565 128.747 257.138 128.894C256.712 129.041 256.245 129.114 255.738 129.114C254.858 129.114 254.125 128.894 253.538 128.454C252.965 128.014 252.678 127.274 252.678 126.234V116.554L254.838 115.954ZM258.078 118.914V120.594H250.858V118.914H258.078ZM260.124 128.914V118.914H261.984L262.144 120.814C262.384 120.147 262.751 119.634 263.244 119.274C263.751 118.901 264.364 118.714 265.084 118.714C265.297 118.714 265.491 118.734 265.664 118.774C265.851 118.801 266.011 118.861 266.144 118.954L265.864 120.794C265.744 120.741 265.591 120.701 265.404 120.674C265.231 120.634 264.991 120.614 264.684 120.614C264.297 120.614 263.917 120.727 263.544 120.954C263.171 121.181 262.864 121.521 262.624 121.974C262.397 122.414 262.284 122.961 262.284 123.614V128.914H260.124ZM270.253 118.914V128.914H268.093V118.914H270.253ZM269.233 117.274C268.753 117.274 268.379 117.161 268.113 116.934C267.859 116.694 267.733 116.354 267.733 115.914C267.733 115.474 267.859 115.141 268.113 114.914C268.379 114.674 268.753 114.554 269.233 114.554C269.713 114.554 270.079 114.674 270.333 114.914C270.586 115.141 270.713 115.474 270.713 115.914C270.713 116.354 270.586 116.694 270.333 116.934C270.079 117.161 269.713 117.274 269.233 117.274ZM283.412 129.114C282.452 129.114 281.572 128.927 280.772 128.554C279.985 128.167 279.359 127.621 278.892 126.914L280.232 125.654C280.525 126.227 280.945 126.674 281.492 126.994C282.052 127.314 282.699 127.474 283.432 127.474C284.005 127.474 284.472 127.361 284.832 127.134C285.192 126.907 285.372 126.594 285.372 126.194C285.372 125.927 285.285 125.701 285.112 125.514C284.952 125.314 284.632 125.161 284.152 125.054L282.252 124.634C281.199 124.394 280.445 124.041 279.992 123.574C279.552 123.107 279.332 122.514 279.332 121.794C279.332 121.247 279.485 120.747 279.792 120.294C280.112 119.827 280.572 119.447 281.172 119.154C281.785 118.861 282.525 118.714 283.392 118.714C284.352 118.714 285.172 118.894 285.852 119.254C286.545 119.614 287.072 120.121 287.432 120.774L286.092 121.954C285.852 121.407 285.479 121.007 284.972 120.754C284.479 120.487 283.972 120.354 283.452 120.354C283.039 120.354 282.679 120.407 282.372 120.514C282.079 120.621 281.852 120.774 281.692 120.974C281.545 121.174 281.472 121.401 281.472 121.654C281.472 121.921 281.572 122.161 281.772 122.374C281.972 122.587 282.319 122.747 282.812 122.854L284.952 123.314C285.885 123.514 286.545 123.834 286.932 124.274C287.332 124.714 287.532 125.261 287.532 125.914C287.532 126.861 287.165 127.634 286.432 128.234C285.712 128.821 284.705 129.114 283.412 129.114ZM294.286 129.114C293.313 129.114 292.46 128.907 291.726 128.494C290.993 128.081 290.42 127.487 290.006 126.714C289.593 125.927 289.386 124.994 289.386 123.914C289.386 122.821 289.586 121.887 289.986 121.114C290.4 120.341 290.966 119.747 291.686 119.334C292.42 118.921 293.246 118.714 294.166 118.714C295.113 118.714 295.92 118.914 296.586 119.314C297.253 119.714 297.76 120.267 298.106 120.974C298.466 121.667 298.646 122.467 298.646 123.374C298.646 123.601 298.64 123.807 298.626 123.994C298.613 124.181 298.6 124.341 298.586 124.474H290.786V122.994H297.626L296.566 123.314C296.566 122.687 296.466 122.161 296.266 121.734C296.08 121.294 295.806 120.961 295.446 120.734C295.086 120.507 294.66 120.394 294.166 120.394C293.606 120.394 293.12 120.534 292.706 120.814C292.306 121.081 292 121.481 291.786 122.014C291.573 122.534 291.466 123.174 291.466 123.934C291.466 124.694 291.58 125.334 291.806 125.854C292.033 126.374 292.36 126.767 292.786 127.034C293.213 127.301 293.713 127.434 294.286 127.434C294.9 127.434 295.406 127.307 295.806 127.054C296.206 126.787 296.52 126.427 296.746 125.974L298.466 126.734C298.24 127.227 297.92 127.654 297.506 128.014C297.106 128.374 296.633 128.647 296.086 128.834C295.54 129.021 294.94 129.114 294.286 129.114ZM303.764 115.954V125.874C303.764 126.381 303.891 126.761 304.144 127.014C304.398 127.254 304.738 127.374 305.164 127.374C305.511 127.374 305.804 127.321 306.044 127.214C306.298 127.094 306.524 126.941 306.724 126.754L307.164 128.274C306.858 128.541 306.491 128.747 306.064 128.894C305.638 129.041 305.171 129.114 304.664 129.114C303.784 129.114 303.051 128.894 302.464 128.454C301.891 128.014 301.604 127.274 301.604 126.234V116.554L303.764 115.954ZM307.004 118.914V120.594H299.784V118.914H307.004ZM310.581 115.954V125.874C310.581 126.381 310.707 126.761 310.961 127.014C311.214 127.254 311.554 127.374 311.981 127.374C312.327 127.374 312.621 127.321 312.861 127.214C313.114 127.094 313.341 126.941 313.541 126.754L313.981 128.274C313.674 128.541 313.307 128.747 312.881 128.894C312.454 129.041 311.987 129.114 311.481 129.114C310.601 129.114 309.867 128.894 309.281 128.454C308.707 128.014 308.421 127.274 308.421 126.234V116.554L310.581 115.954ZM313.821 118.914V120.594H306.601V118.914H313.821ZM320.086 118.714C321.033 118.714 321.866 118.921 322.586 119.334C323.319 119.747 323.893 120.347 324.306 121.134C324.733 121.907 324.946 122.834 324.946 123.914C324.946 124.994 324.733 125.927 324.306 126.714C323.893 127.487 323.319 128.081 322.586 128.494C321.866 128.907 321.033 129.114 320.086 129.114C319.139 129.114 318.299 128.907 317.566 128.494C316.833 128.081 316.259 127.487 315.846 126.714C315.433 125.927 315.226 124.994 315.226 123.914C315.226 122.834 315.433 121.907 315.846 121.134C316.259 120.347 316.833 119.747 317.566 119.334C318.299 118.921 319.139 118.714 320.086 118.714ZM320.086 120.394C319.526 120.394 319.046 120.534 318.646 120.814C318.246 121.081 317.933 121.474 317.706 121.994C317.493 122.514 317.386 123.154 317.386 123.914C317.386 124.674 317.493 125.314 317.706 125.834C317.933 126.354 318.246 126.754 318.646 127.034C319.046 127.301 319.526 127.434 320.086 127.434C320.646 127.434 321.126 127.301 321.526 127.034C321.926 126.754 322.233 126.354 322.446 125.834C322.673 125.301 322.786 124.661 322.786 123.914C322.786 123.154 322.673 122.514 322.446 121.994C322.233 121.474 321.926 121.081 321.526 120.814C321.126 120.534 320.646 120.394 320.086 120.394ZM327.546 128.914V118.914H329.406L329.566 120.814C329.806 120.147 330.172 119.634 330.666 119.274C331.172 118.901 331.786 118.714 332.506 118.714C332.719 118.714 332.912 118.734 333.086 118.774C333.272 118.801 333.432 118.861 333.566 118.954L333.286 120.794C333.166 120.741 333.012 120.701 332.826 120.674C332.652 120.634 332.412 120.614 332.106 120.614C331.719 120.614 331.339 120.727 330.966 120.954C330.592 121.181 330.286 121.521 330.046 121.974C329.819 122.414 329.706 122.961 329.706 123.614V128.914H327.546ZM337.675 118.914V128.914H335.515V118.914H337.675ZM336.655 117.274C336.175 117.274 335.801 117.161 335.535 116.934C335.281 116.694 335.155 116.354 335.155 115.914C335.155 115.474 335.281 115.141 335.535 114.914C335.801 114.674 336.175 114.554 336.655 114.554C337.135 114.554 337.501 114.674 337.755 114.914C338.008 115.141 338.135 115.474 338.135 115.914C338.135 116.354 338.008 116.694 337.755 116.934C337.501 117.161 337.135 117.274 336.655 117.274ZM235.78 142.914V152.914H233.62V142.914H235.78ZM234.76 141.274C234.28 141.274 233.907 141.161 233.64 140.934C233.387 140.694 233.26 140.354 233.26 139.914C233.26 139.474 233.387 139.141 233.64 138.914C233.907 138.674 234.28 138.554 234.76 138.554C235.24 138.554 235.607 138.674 235.86 138.914C236.113 139.141 236.24 139.474 236.24 139.914C236.24 140.354 236.113 140.694 235.86 140.934C235.607 141.161 235.24 141.274 234.76 141.274ZM238.991 152.914V142.914H240.891L241.031 145.634L240.751 145.374C241.004 144.467 241.451 143.801 242.091 143.374C242.731 142.934 243.478 142.714 244.331 142.714C245.011 142.714 245.618 142.854 246.151 143.134C246.684 143.401 247.111 143.807 247.431 144.354C247.751 144.901 247.911 145.587 247.911 146.414V152.914H245.751V147.054C245.751 146.107 245.551 145.441 245.151 145.054C244.764 144.667 244.278 144.474 243.691 144.474C243.278 144.474 242.871 144.581 242.471 144.794C242.084 144.994 241.764 145.321 241.511 145.774C241.271 146.227 241.151 146.821 241.151 147.554V152.914H238.991ZM254.682 153.114C253.882 153.114 253.162 152.907 252.522 152.494C251.882 152.081 251.376 151.487 251.002 150.714C250.629 149.941 250.442 149.014 250.442 147.934C250.442 146.814 250.636 145.867 251.022 145.094C251.409 144.321 251.929 143.734 252.582 143.334C253.249 142.921 253.982 142.714 254.782 142.714C255.636 142.714 256.349 142.961 256.922 143.454C257.509 143.934 257.896 144.567 258.082 145.354L257.842 145.574V138.454H260.002V152.914H258.082L257.922 150.074L258.202 150.114C258.109 150.741 257.889 151.281 257.542 151.734C257.209 152.174 256.796 152.514 256.302 152.754C255.809 152.994 255.269 153.114 254.682 153.114ZM255.222 151.394C255.742 151.394 256.196 151.254 256.582 150.974C256.982 150.681 257.289 150.267 257.502 149.734C257.729 149.201 257.842 148.561 257.842 147.814C257.842 147.107 257.736 146.501 257.522 145.994C257.309 145.487 257.009 145.101 256.622 144.834C256.236 144.567 255.789 144.434 255.282 144.434C254.442 144.434 253.782 144.741 253.302 145.354C252.836 145.967 252.602 146.821 252.602 147.914C252.602 149.007 252.836 149.861 253.302 150.474C253.769 151.087 254.409 151.394 255.222 151.394ZM266.629 153.114C265.976 153.114 265.389 152.994 264.869 152.754C264.349 152.514 263.929 152.127 263.609 151.594C263.302 151.061 263.149 150.374 263.149 149.534V142.914H265.309V148.994C265.309 149.794 265.469 150.387 265.789 150.774C266.122 151.161 266.649 151.354 267.369 151.354C267.702 151.354 268.016 151.294 268.309 151.174C268.602 151.054 268.862 150.874 269.089 150.634C269.329 150.381 269.516 150.067 269.649 149.694C269.782 149.307 269.849 148.867 269.849 148.374V142.914H272.009V152.914H270.089L270.009 151.174C269.796 151.601 269.522 151.961 269.189 152.254C268.869 152.547 268.496 152.767 268.069 152.914C267.642 153.047 267.162 153.114 266.629 153.114ZM278.842 153.114C277.882 153.114 277.002 152.927 276.202 152.554C275.415 152.167 274.788 151.621 274.322 150.914L275.662 149.654C275.955 150.227 276.375 150.674 276.922 150.994C277.482 151.314 278.128 151.474 278.862 151.474C279.435 151.474 279.902 151.361 280.262 151.134C280.622 150.907 280.802 150.594 280.802 150.194C280.802 149.927 280.715 149.701 280.542 149.514C280.382 149.314 280.062 149.161 279.582 149.054L277.682 148.634C276.628 148.394 275.875 148.041 275.422 147.574C274.982 147.107 274.762 146.514 274.762 145.794C274.762 145.247 274.915 144.747 275.222 144.294C275.542 143.827 276.002 143.447 276.602 143.154C277.215 142.861 277.955 142.714 278.822 142.714C279.782 142.714 280.602 142.894 281.282 143.254C281.975 143.614 282.502 144.121 282.862 144.774L281.522 145.954C281.282 145.407 280.908 145.007 280.402 144.754C279.908 144.487 279.402 144.354 278.882 144.354C278.468 144.354 278.108 144.407 277.802 144.514C277.508 144.621 277.282 144.774 277.122 144.974C276.975 145.174 276.902 145.401 276.902 145.654C276.902 145.921 277.002 146.161 277.202 146.374C277.402 146.587 277.748 146.747 278.242 146.854L280.382 147.314C281.315 147.514 281.975 147.834 282.362 148.274C282.762 148.714 282.962 149.261 282.962 149.914C282.962 150.861 282.595 151.634 281.862 152.234C281.142 152.821 280.135 153.114 278.842 153.114ZM288.276 139.954V149.874C288.276 150.381 288.403 150.761 288.656 151.014C288.909 151.254 289.249 151.374 289.676 151.374C290.023 151.374 290.316 151.321 290.556 151.214C290.809 151.094 291.036 150.941 291.236 150.754L291.676 152.274C291.369 152.541 291.003 152.747 290.576 152.894C290.149 153.041 289.683 153.114 289.176 153.114C288.296 153.114 287.563 152.894 286.976 152.454C286.403 152.014 286.116 151.274 286.116 150.234V140.554L288.276 139.954ZM291.516 142.914V144.594H284.296V142.914H291.516ZM293.561 152.914V142.914H295.421L295.581 144.814C295.821 144.147 296.188 143.634 296.681 143.274C297.188 142.901 297.801 142.714 298.521 142.714C298.735 142.714 298.928 142.734 299.101 142.774C299.288 142.801 299.448 142.861 299.581 142.954L299.301 144.794C299.181 144.741 299.028 144.701 298.841 144.674C298.668 144.634 298.428 144.614 298.121 144.614C297.735 144.614 297.355 144.727 296.981 144.954C296.608 145.181 296.301 145.521 296.061 145.974C295.835 146.414 295.721 146.961 295.721 147.614V152.914H293.561ZM303.69 142.914V152.914H301.53V142.914H303.69ZM302.67 141.274C302.19 141.274 301.817 141.161 301.55 140.934C301.297 140.694 301.17 140.354 301.17 139.914C301.17 139.474 301.297 139.141 301.55 138.914C301.817 138.674 302.19 138.554 302.67 138.554C303.15 138.554 303.517 138.674 303.77 138.914C304.023 139.141 304.15 139.474 304.15 139.914C304.15 140.354 304.023 140.694 303.77 140.934C303.517 141.161 303.15 141.274 302.67 141.274ZM312.481 146.474C312.481 145.821 312.308 145.307 311.961 144.934C311.615 144.561 311.135 144.374 310.521 144.374C309.935 144.374 309.435 144.514 309.021 144.794C308.621 145.074 308.328 145.527 308.141 146.154L306.341 145.454C306.581 144.627 307.061 143.967 307.781 143.474C308.501 142.967 309.448 142.714 310.621 142.714C311.408 142.714 312.101 142.847 312.701 143.114C313.315 143.367 313.788 143.761 314.121 144.294C314.468 144.827 314.641 145.487 314.641 146.274V150.714C314.641 151.247 314.881 151.514 315.361 151.514C315.468 151.514 315.581 151.507 315.701 151.494C315.821 151.467 315.928 151.441 316.021 151.414L315.901 152.834C315.768 152.901 315.601 152.954 315.401 152.994C315.215 153.047 314.995 153.074 314.741 153.074C314.341 153.074 313.975 153.001 313.641 152.854C313.308 152.694 313.048 152.461 312.861 152.154C312.675 151.834 312.581 151.434 312.581 150.954V150.734L312.941 150.714C312.848 151.247 312.621 151.694 312.261 152.054C311.915 152.414 311.495 152.681 311.001 152.854C310.508 153.027 310.001 153.114 309.481 153.114C308.561 153.114 307.795 152.887 307.181 152.434C306.581 151.981 306.281 151.307 306.281 150.414C306.281 149.694 306.501 149.094 306.941 148.614C307.395 148.121 308.075 147.781 308.981 147.594L312.761 146.814V148.234L310.081 148.814C309.535 148.921 309.121 149.081 308.841 149.294C308.575 149.507 308.441 149.821 308.441 150.234C308.441 150.634 308.581 150.947 308.861 151.174C309.141 151.401 309.528 151.514 310.021 151.514C310.328 151.514 310.628 151.474 310.921 151.394C311.215 151.301 311.475 151.161 311.701 150.974C311.941 150.787 312.128 150.554 312.261 150.274C312.408 149.981 312.481 149.634 312.481 149.234V146.474ZM319.821 138.454V150.074C319.821 150.527 319.888 150.867 320.021 151.094C320.168 151.321 320.434 151.434 320.821 151.434C321.034 151.434 321.214 151.421 321.361 151.394C321.508 151.354 321.688 151.294 321.901 151.214L321.681 152.754C321.494 152.861 321.248 152.947 320.941 153.014C320.648 153.081 320.368 153.114 320.101 153.114C319.168 153.114 318.528 152.861 318.181 152.354C317.834 151.834 317.661 151.141 317.661 150.274V138.454H319.821ZM325.8 142.914V152.914H323.64V142.914H325.8ZM324.78 141.274C324.3 141.274 323.926 141.161 323.66 140.934C323.406 140.694 323.28 140.354 323.28 139.914C323.28 139.474 323.406 139.141 323.66 138.914C323.926 138.674 324.3 138.554 324.78 138.554C325.26 138.554 325.626 138.674 325.88 138.914C326.133 139.141 326.26 139.474 326.26 139.914C326.26 140.354 326.133 140.694 325.88 140.934C325.626 141.161 325.26 141.274 324.78 141.274Z" fill="#7FAD67"/>
<path d="M10.28 19.9741C9.42667 19.9741 8.67333 19.8274 8.02 19.5341C7.38 19.2407 6.88 18.8074 6.52 18.2341C6.16 17.6741 5.98 16.9874 5.98 16.1741C5.98 15.9074 6.01333 15.6341 6.08 15.3541C6.16 15.0607 6.28 14.7674 6.44 14.4741L8.42 14.0141C8.28667 14.3074 8.18667 14.5807 8.12 14.8341C8.05333 15.0741 8.02 15.2874 8.02 15.4741C8.02 15.9941 8.12 16.3941 8.32 16.6741C8.52 16.9674 8.79333 17.1674 9.14 17.2741C9.48667 17.3941 9.87333 17.4541 10.3 17.4541C10.8467 17.4541 11.3067 17.3941 11.68 17.2741C12.0667 17.1541 12.3867 16.9874 12.64 16.7741L13.14 19.1541C12.8067 19.4207 12.3733 19.6207 11.84 19.7541C11.3067 19.9007 10.7867 19.9741 10.28 19.9741ZM7.26 2.51406C8.58 2.51406 9.71333 2.7874 10.66 3.33406C11.6067 3.8674 12.3333 4.64073 12.84 5.65406C13.3467 6.6674 13.6 7.8874 13.6 9.31406C13.6 10.7274 13.3467 11.9474 12.84 12.9741C12.3333 13.9874 11.6067 14.7674 10.66 15.3141C9.71333 15.8474 8.58 16.1141 7.26 16.1141C5.95333 16.1141 4.82 15.8474 3.86 15.3141C2.91333 14.7674 2.18 13.9874 1.66 12.9741C1.15333 11.9474 0.9 10.7274 0.9 9.31406C0.9 7.8874 1.15333 6.6674 1.66 5.65406C2.18 4.64073 2.91333 3.8674 3.86 3.33406C4.82 2.7874 5.95333 2.51406 7.26 2.51406ZM7.26 5.21406C6.64667 5.21406 6.12667 5.3674 5.7 5.67406C5.28667 5.98073 4.96667 6.44073 4.74 7.05406C4.52667 7.65406 4.42 8.4074 4.42 9.31406C4.42 10.2074 4.52667 10.9607 4.74 11.5741C4.96667 12.1874 5.28667 12.6474 5.7 12.9541C6.12667 13.2607 6.64667 13.4141 7.26 13.4141C7.87333 13.4141 8.38667 13.2607 8.8 12.9541C9.21333 12.6474 9.52667 12.1874 9.74 11.5741C9.96667 10.9607 10.08 10.2074 10.08 9.31406C10.08 8.4074 9.96667 7.65406 9.74 7.05406C9.52667 6.44073 9.21333 5.98073 8.8 5.67406C8.38667 5.3674 7.87333 5.21406 7.26 5.21406ZM19.0522 16.1141C18.3855 16.1141 17.7922 16.0007 17.2722 15.7741C16.7655 15.5341 16.3655 15.1541 16.0722 14.6341C15.7922 14.1141 15.6522 13.4341 15.6522 12.5941V5.91406H19.0522V11.7941C19.0522 12.3674 19.1589 12.8007 19.3722 13.0941C19.5989 13.3741 19.9655 13.5141 20.4722 13.5141C20.6989 13.5141 20.9122 13.4741 21.1122 13.3941C21.3255 13.3007 21.5055 13.1674 21.6522 12.9941C21.8122 12.8074 21.9322 12.5741 22.0122 12.2941C22.1055 12.0007 22.1522 11.6607 22.1522 11.2741V5.91406H25.5522V15.9141H22.5122L22.4122 14.0341C22.2122 14.5007 21.9455 14.8874 21.6122 15.1941C21.2922 15.5007 20.9189 15.7341 20.4922 15.8941C20.0655 16.0407 19.5855 16.1141 19.0522 16.1141ZM32.6973 5.71406C33.7373 5.71406 34.6507 5.92073 35.4373 6.33406C36.224 6.7474 36.8373 7.34073 37.2773 8.11406C37.7307 8.8874 37.9573 9.82073 37.9573 10.9141C37.9573 12.0074 37.7307 12.9407 37.2773 13.7141C36.8373 14.4874 36.224 15.0807 35.4373 15.4941C34.6507 15.9074 33.7373 16.1141 32.6973 16.1141C31.6707 16.1141 30.764 15.9074 29.9773 15.4941C29.1907 15.0807 28.5773 14.4874 28.1373 13.7141C27.6973 12.9407 27.4773 12.0074 27.4773 10.9141C27.4773 9.82073 27.6973 8.8874 28.1373 8.11406C28.5773 7.34073 29.1907 6.7474 29.9773 6.33406C30.764 5.92073 31.6707 5.71406 32.6973 5.71406ZM32.6973 8.13406C32.324 8.13406 31.9973 8.23406 31.7173 8.43406C31.4507 8.62073 31.244 8.92073 31.0973 9.33406C30.964 9.73406 30.8973 10.2607 30.8973 10.9141C30.8973 11.5674 30.964 12.1007 31.0973 12.5141C31.244 12.9141 31.4507 13.2141 31.7173 13.4141C31.9973 13.6007 32.324 13.6941 32.6973 13.6941C33.084 13.6941 33.4107 13.6007 33.6773 13.4141C33.9573 13.2141 34.1707 12.9074 34.3173 12.4941C34.464 12.0807 34.5373 11.5541 34.5373 10.9141C34.5373 10.2607 34.464 9.73406 34.3173 9.33406C34.1707 8.92073 33.9573 8.62073 33.6773 8.43406C33.4107 8.23406 33.084 8.13406 32.6973 8.13406ZM43.8366 2.73406V12.3541C43.8366 12.8341 43.9499 13.1807 44.1766 13.3941C44.4032 13.5941 44.7232 13.6941 45.1366 13.6941C45.4432 13.6941 45.7099 13.6541 45.9366 13.5741C46.1632 13.4941 46.3699 13.3874 46.5566 13.2541L46.9166 15.3541C46.5832 15.5807 46.1632 15.7674 45.6566 15.9141C45.1632 16.0474 44.6566 16.1141 44.1366 16.1141C43.0032 16.1141 42.1032 15.8741 41.4366 15.3941C40.7832 14.9007 40.4566 14.0741 40.4566 12.9141V3.67406L43.8366 2.73406ZM46.7566 5.91406V8.33406H38.7566V5.91406H46.7566ZM53.8294 9.57406C53.8294 9.1074 53.7027 8.74073 53.4494 8.47406C53.196 8.19406 52.856 8.05406 52.4294 8.05406C52.0027 8.05406 51.636 8.1674 51.3294 8.39406C51.0227 8.6074 50.8094 8.99406 50.6894 9.55406L47.8094 8.87406C47.996 7.91406 48.4827 7.1474 49.2694 6.57406C50.0694 6.00073 51.1894 5.71406 52.6294 5.71406C53.5894 5.71406 54.4094 5.86073 55.0894 6.15406C55.7827 6.43406 56.3094 6.86073 56.6694 7.43406C57.0294 7.99406 57.2094 8.6874 57.2094 9.51406V13.1741C57.2094 13.6941 57.436 13.9541 57.8894 13.9541C57.996 13.9541 58.096 13.9474 58.1894 13.9341C58.296 13.9207 58.3894 13.9007 58.4694 13.8741L58.2694 15.8141C58.0827 15.9074 57.8694 15.9741 57.6294 16.0141C57.3894 16.0674 57.116 16.0941 56.8094 16.0941C56.3027 16.0941 55.8494 16.0141 55.4494 15.8541C55.0494 15.6807 54.736 15.4274 54.5094 15.0941C54.2827 14.7474 54.1694 14.3141 54.1694 13.7941V13.6741L54.5494 13.5341C54.5494 14.1074 54.376 14.5874 54.0294 14.9741C53.696 15.3607 53.2627 15.6474 52.7294 15.8341C52.2094 16.0207 51.656 16.1141 51.0694 16.1141C50.056 16.1141 49.2494 15.8807 48.6494 15.4141C48.0494 14.9341 47.7494 14.2474 47.7494 13.3541C47.7494 12.6474 47.9627 12.0541 48.3894 11.5741C48.816 11.0941 49.4894 10.7607 50.4094 10.5741L54.1494 9.79406L54.1294 11.5941L52.2494 11.9941C51.8894 12.0741 51.6094 12.1874 51.4094 12.3341C51.2094 12.4807 51.1094 12.7141 51.1094 13.0341C51.1094 13.3274 51.2094 13.5474 51.4094 13.6941C51.6227 13.8407 51.8694 13.9141 52.1494 13.9141C52.376 13.9141 52.5894 13.8807 52.7894 13.8141C52.9894 13.7474 53.1627 13.6474 53.3094 13.5141C53.4694 13.3674 53.596 13.1874 53.6894 12.9741C53.7827 12.7607 53.8294 12.5074 53.8294 12.2141V9.57406ZM69.1564 16.1141C68.3431 16.1141 67.6297 15.9141 67.0164 15.5141C66.4164 15.1007 65.9431 14.5074 65.5964 13.7341C65.2631 12.9607 65.0964 12.0341 65.0964 10.9541C65.0964 9.83406 65.2697 8.8874 65.6164 8.11406C65.9764 7.3274 66.4631 6.73406 67.0764 6.33406C67.7031 5.92073 68.4231 5.71406 69.2364 5.71406C70.1431 5.71406 70.8697 5.9874 71.4164 6.53406C71.9631 7.08073 72.3097 7.7874 72.4564 8.65406L72.1364 9.07406V1.67406H75.5364V15.9141H72.4964L72.2764 12.5141L72.6764 12.8141C72.5831 13.4674 72.3764 14.0474 72.0564 14.5541C71.7497 15.0474 71.3497 15.4341 70.8564 15.7141C70.3631 15.9807 69.7964 16.1141 69.1564 16.1141ZM70.3364 13.6141C70.7097 13.6141 71.0297 13.5074 71.2964 13.2941C71.5631 13.0807 71.7697 12.7741 71.9164 12.3741C72.0631 11.9607 72.1364 11.4541 72.1364 10.8541C72.1364 10.2941 72.0631 9.82073 71.9164 9.43406C71.7831 9.03406 71.5831 8.73406 71.3164 8.53406C71.0497 8.32073 70.7297 8.21406 70.3564 8.21406C69.7831 8.21406 69.3297 8.43406 68.9964 8.87406C68.6764 9.31406 68.5164 9.99406 68.5164 10.9141C68.5164 11.8341 68.6764 12.5141 68.9964 12.9541C69.3164 13.3941 69.7631 13.6141 70.3364 13.6141ZM81.3778 5.91406V15.9141H77.9778V5.91406H81.3778ZM79.6778 4.75406C78.9845 4.75406 78.4778 4.6274 78.1578 4.37406C77.8511 4.1074 77.6978 3.69406 77.6978 3.13406C77.6978 2.56073 77.8511 2.1474 78.1578 1.89406C78.4778 1.6274 78.9845 1.49406 79.6778 1.49406C80.3711 1.49406 80.8711 1.6274 81.1778 1.89406C81.4978 2.1474 81.6578 2.56073 81.6578 3.13406C81.6578 3.69406 81.4978 4.1074 81.1778 4.37406C80.8711 4.6274 80.3711 4.75406 79.6778 4.75406ZM92.9208 5.91406V15.9141H89.5208V5.91406H92.9208ZM91.2208 4.75406C90.5274 4.75406 90.0208 4.6274 89.7008 4.37406C89.3941 4.1074 89.2408 3.69406 89.2408 3.13406C89.2408 2.56073 89.3941 2.1474 89.7008 1.89406C90.0208 1.6274 90.5274 1.49406 91.2208 1.49406C91.9141 1.49406 92.4141 1.6274 92.7208 1.89406C93.0408 2.1474 93.2008 2.56073 93.2008 3.13406C93.2008 3.69406 93.0408 4.1074 92.7208 4.37406C92.4141 4.6274 91.9141 4.75406 91.2208 4.75406ZM95.3411 15.9141V5.91406H98.3811L98.5611 9.35406L98.1811 8.97406C98.3811 7.9074 98.8011 7.10073 99.4411 6.55406C100.081 5.99406 100.888 5.71406 101.861 5.71406C102.541 5.71406 103.134 5.8474 103.641 6.11406C104.148 6.38073 104.541 6.78073 104.821 7.31406C105.114 7.83406 105.261 8.48073 105.261 9.25406V15.9141H101.861V10.1541C101.861 9.47406 101.734 9.00073 101.481 8.73406C101.228 8.45406 100.894 8.31406 100.481 8.31406C100.174 8.31406 99.8878 8.39406 99.6211 8.55406C99.3544 8.70073 99.1411 8.94073 98.9811 9.27406C98.8211 9.6074 98.7411 10.0541 98.7411 10.6141V15.9141H95.3411ZM114.246 20.1141V12.5741L114.606 13.0141C114.472 13.9474 114.112 14.7007 113.526 15.2741C112.939 15.8341 112.186 16.1141 111.266 16.1141C110.466 16.1141 109.759 15.9074 109.146 15.4941C108.546 15.0807 108.072 14.4874 107.726 13.7141C107.379 12.9274 107.206 11.9807 107.206 10.8741C107.206 9.78073 107.379 8.85406 107.726 8.09406C108.072 7.32073 108.552 6.73406 109.166 6.33406C109.792 5.92073 110.512 5.71406 111.326 5.71406C112.286 5.71406 113.079 6.04073 113.706 6.69406C114.346 7.33406 114.712 8.16073 114.806 9.17406L114.406 9.49406L114.586 5.91406H117.646V20.1141H114.246ZM112.446 13.6141C112.832 13.6141 113.159 13.5074 113.426 13.2941C113.692 13.0674 113.892 12.7541 114.026 12.3541C114.172 11.9407 114.246 11.4541 114.246 10.8941C114.246 10.2941 114.172 9.79406 114.026 9.39406C113.879 8.99406 113.672 8.70073 113.406 8.51406C113.152 8.31406 112.839 8.21406 112.466 8.21406C111.892 8.21406 111.439 8.43406 111.106 8.87406C110.786 9.31406 110.626 9.99406 110.626 10.9141C110.626 11.8341 110.786 12.5141 111.106 12.9541C111.426 13.3941 111.872 13.6141 112.446 13.6141ZM123.427 16.1141C122.761 16.1141 122.167 16.0007 121.647 15.7741C121.141 15.5341 120.741 15.1541 120.447 14.6341C120.167 14.1141 120.027 13.4341 120.027 12.5941V5.91406H123.427V11.7941C123.427 12.3674 123.534 12.8007 123.747 13.0941C123.974 13.3741 124.341 13.5141 124.847 13.5141C125.074 13.5141 125.287 13.4741 125.487 13.3941C125.701 13.3007 125.881 13.1674 126.027 12.9941C126.187 12.8074 126.307 12.5741 126.387 12.2941C126.481 12.0007 126.527 11.6607 126.527 11.2741V5.91406H129.927V15.9141H126.887L126.787 14.0341C126.587 14.5007 126.321 14.8874 125.987 15.1941C125.667 15.5007 125.294 15.7341 124.867 15.8941C124.441 16.0407 123.961 16.1141 123.427 16.1141ZM135.772 5.91406V15.9141H132.372V5.91406H135.772ZM134.072 4.75406C133.379 4.75406 132.872 4.6274 132.552 4.37406C132.246 4.1074 132.092 3.69406 132.092 3.13406C132.092 2.56073 132.246 2.1474 132.552 1.89406C132.872 1.6274 133.379 1.49406 134.072 1.49406C134.766 1.49406 135.266 1.6274 135.572 1.89406C135.892 2.1474 136.052 2.56073 136.052 3.13406C136.052 3.69406 135.892 4.1074 135.572 4.37406C135.266 4.6274 134.766 4.75406 134.072 4.75406ZM138.193 15.9141V5.91406H141.233L141.413 9.35406L141.033 8.97406C141.233 7.9074 141.653 7.10073 142.293 6.55406C142.933 5.99406 143.739 5.71406 144.713 5.71406C145.393 5.71406 145.986 5.8474 146.493 6.11406C146.999 6.38073 147.393 6.78073 147.673 7.31406C147.966 7.83406 148.113 8.48073 148.113 9.25406V15.9141H144.713V10.1541C144.713 9.47406 144.586 9.00073 144.333 8.73406C144.079 8.45406 143.746 8.31406 143.333 8.31406C143.026 8.31406 142.739 8.39406 142.473 8.55406C142.206 8.70073 141.993 8.94073 141.833 9.27406C141.673 9.6074 141.593 10.0541 141.593 10.6141V15.9141H138.193ZM155.997 9.57406C155.997 9.1074 155.871 8.74073 155.617 8.47406C155.364 8.19406 155.024 8.05406 154.597 8.05406C154.171 8.05406 153.804 8.1674 153.497 8.39406C153.191 8.6074 152.977 8.99406 152.857 9.55406L149.977 8.87406C150.164 7.91406 150.651 7.1474 151.437 6.57406C152.237 6.00073 153.357 5.71406 154.797 5.71406C155.757 5.71406 156.577 5.86073 157.257 6.15406C157.951 6.43406 158.477 6.86073 158.837 7.43406C159.197 7.99406 159.377 8.6874 159.377 9.51406V13.1741C159.377 13.6941 159.604 13.9541 160.057 13.9541C160.164 13.9541 160.264 13.9474 160.357 13.9341C160.464 13.9207 160.557 13.9007 160.637 13.8741L160.437 15.8141C160.251 15.9074 160.037 15.9741 159.797 16.0141C159.557 16.0674 159.284 16.0941 158.977 16.0941C158.471 16.0941 158.017 16.0141 157.617 15.8541C157.217 15.6807 156.904 15.4274 156.677 15.0941C156.451 14.7474 156.337 14.3141 156.337 13.7941V13.6741L156.717 13.5341C156.717 14.1074 156.544 14.5874 156.197 14.9741C155.864 15.3607 155.431 15.6474 154.897 15.8341C154.377 16.0207 153.824 16.1141 153.237 16.1141C152.224 16.1141 151.417 15.8807 150.817 15.4141C150.217 14.9341 149.917 14.2474 149.917 13.3541C149.917 12.6474 150.131 12.0541 150.557 11.5741C150.984 11.0941 151.657 10.7607 152.577 10.5741L156.317 9.79406L156.297 11.5941L154.417 11.9941C154.057 12.0741 153.777 12.1874 153.577 12.3341C153.377 12.4807 153.277 12.7141 153.277 13.0341C153.277 13.3274 153.377 13.5474 153.577 13.6941C153.791 13.8407 154.037 13.9141 154.317 13.9141C154.544 13.9141 154.757 13.8807 154.957 13.8141C155.157 13.7474 155.331 13.6474 155.477 13.5141C155.637 13.3674 155.764 13.1874 155.857 12.9741C155.951 12.7607 155.997 12.5074 155.997 12.2141V9.57406ZM161.982 15.9141V5.91406H165.022L165.122 7.85406C165.442 7.1474 165.888 6.61406 166.462 6.25406C167.048 5.89406 167.715 5.71406 168.462 5.71406C169.182 5.71406 169.822 5.88073 170.382 6.21406C170.942 6.5474 171.348 7.04073 171.602 7.69406C171.802 7.25406 172.068 6.8874 172.402 6.59406C172.748 6.30073 173.135 6.08073 173.562 5.93406C174.002 5.7874 174.455 5.71406 174.922 5.71406C175.575 5.71406 176.155 5.8474 176.662 6.11406C177.168 6.38073 177.568 6.77406 177.862 7.29406C178.168 7.81406 178.322 8.4674 178.322 9.25406V15.9141H174.922V10.0341C174.922 9.4074 174.795 8.9674 174.542 8.71406C174.302 8.4474 173.982 8.31406 173.582 8.31406C173.248 8.31406 172.948 8.40073 172.682 8.57406C172.428 8.73406 172.228 8.98073 172.082 9.31406C171.935 9.6474 171.862 10.0674 171.862 10.5741V15.9141H168.462V10.0341C168.462 9.4074 168.335 8.9674 168.082 8.71406C167.828 8.4474 167.508 8.31406 167.122 8.31406C166.815 8.31406 166.528 8.39406 166.262 8.55406C165.995 8.71406 165.782 8.9674 165.622 9.31406C165.462 9.6474 165.382 10.0874 165.382 10.6341V15.9141H161.982ZM185.513 16.1141C184.419 16.1141 183.473 15.9141 182.673 15.5141C181.873 15.1007 181.253 14.5074 180.813 13.7341C180.386 12.9474 180.173 12.0074 180.173 10.9141C180.173 9.8074 180.393 8.8674 180.833 8.09406C181.273 7.32073 181.879 6.73406 182.653 6.33406C183.439 5.92073 184.339 5.71406 185.353 5.71406C186.393 5.71406 187.279 5.92073 188.013 6.33406C188.746 6.73406 189.306 7.29406 189.693 8.01406C190.079 8.72073 190.273 9.53406 190.273 10.4541C190.273 10.7074 190.266 10.9541 190.253 11.1941C190.239 11.4207 190.219 11.6141 190.193 11.7741H182.373V9.95406H188.693L187.073 10.5741C187.073 10.0407 187.006 9.59406 186.873 9.23406C186.753 8.86073 186.566 8.58073 186.313 8.39406C186.059 8.19406 185.739 8.09406 185.353 8.09406C184.939 8.09406 184.586 8.19406 184.293 8.39406C183.999 8.59406 183.779 8.9074 183.633 9.33406C183.486 9.76073 183.413 10.3074 183.413 10.9741C183.413 11.6274 183.493 12.1607 183.653 12.5741C183.826 12.9741 184.066 13.2674 184.373 13.4541C184.693 13.6274 185.073 13.7141 185.513 13.7141C185.993 13.7141 186.386 13.6141 186.693 13.4141C186.999 13.2141 187.219 12.9341 187.353 12.5741L190.073 13.4741C189.886 14.0474 189.559 14.5341 189.093 14.9341C188.639 15.3207 188.099 15.6141 187.473 15.8141C186.859 16.0141 186.206 16.1141 185.513 16.1141ZM192.177 15.9141V5.91406H195.217L195.397 9.35406L195.017 8.97406C195.217 7.9074 195.637 7.10073 196.277 6.55406C196.917 5.99406 197.724 5.71406 198.697 5.71406C199.377 5.71406 199.97 5.8474 200.477 6.11406C200.984 6.38073 201.377 6.78073 201.657 7.31406C201.95 7.83406 202.097 8.48073 202.097 9.25406V15.9141H198.697V10.1541C198.697 9.47406 198.57 9.00073 198.317 8.73406C198.064 8.45406 197.73 8.31406 197.317 8.31406C197.01 8.31406 196.724 8.39406 196.457 8.55406C196.19 8.70073 195.977 8.94073 195.817 9.27406C195.657 9.6074 195.577 10.0541 195.577 10.6141V15.9141H192.177ZM208.485 2.73406V12.3541C208.485 12.8341 208.598 13.1807 208.825 13.3941C209.052 13.5941 209.372 13.6941 209.785 13.6941C210.092 13.6941 210.358 13.6541 210.585 13.5741C210.812 13.4941 211.018 13.3874 211.205 13.2541L211.565 15.3541C211.232 15.5807 210.812 15.7674 210.305 15.9141C209.812 16.0474 209.305 16.1141 208.785 16.1141C207.652 16.1141 206.752 15.8741 206.085 15.3941C205.432 14.9007 205.105 14.0741 205.105 12.9141V3.67406L208.485 2.73406ZM211.405 5.91406V8.33406H203.405V5.91406H211.405ZM217.678 5.71406C218.718 5.71406 219.631 5.92073 220.418 6.33406C221.204 6.7474 221.818 7.34073 222.258 8.11406C222.711 8.8874 222.938 9.82073 222.938 10.9141C222.938 12.0074 222.711 12.9407 222.258 13.7141C221.818 14.4874 221.204 15.0807 220.418 15.4941C219.631 15.9074 218.718 16.1141 217.678 16.1141C216.651 16.1141 215.744 15.9074 214.958 15.4941C214.171 15.0807 213.558 14.4874 213.118 13.7141C212.678 12.9407 212.458 12.0074 212.458 10.9141C212.458 9.82073 212.678 8.8874 213.118 8.11406C213.558 7.34073 214.171 6.7474 214.958 6.33406C215.744 5.92073 216.651 5.71406 217.678 5.71406ZM217.678 8.13406C217.304 8.13406 216.978 8.23406 216.698 8.43406C216.431 8.62073 216.224 8.92073 216.078 9.33406C215.944 9.73406 215.878 10.2607 215.878 10.9141C215.878 11.5674 215.944 12.1007 216.078 12.5141C216.224 12.9141 216.431 13.2141 216.698 13.4141C216.978 13.6007 217.304 13.6941 217.678 13.6941C218.064 13.6941 218.391 13.6007 218.658 13.4141C218.938 13.2141 219.151 12.9074 219.298 12.4941C219.444 12.0807 219.518 11.5541 219.518 10.9141C219.518 10.2607 219.444 9.73406 219.298 9.33406C219.151 8.92073 218.938 8.62073 218.658 8.43406C218.391 8.23406 218.064 8.13406 217.678 8.13406ZM233.975 5.91406V15.9141H230.575V5.91406H233.975ZM232.275 4.75406C231.582 4.75406 231.075 4.6274 230.755 4.37406C230.449 4.1074 230.295 3.69406 230.295 3.13406C230.295 2.56073 230.449 2.1474 230.755 1.89406C231.075 1.6274 231.582 1.49406 232.275 1.49406C232.969 1.49406 233.469 1.6274 233.775 1.89406C234.095 2.1474 234.255 2.56073 234.255 3.13406C234.255 3.69406 234.095 4.1074 233.775 4.37406C233.469 4.6274 232.969 4.75406 232.275 4.75406ZM240.016 16.1141C239.202 16.1141 238.489 15.9141 237.876 15.5141C237.276 15.1007 236.802 14.5074 236.456 13.7341C236.122 12.9607 235.956 12.0341 235.956 10.9541C235.956 9.83406 236.129 8.8874 236.476 8.11406C236.836 7.3274 237.322 6.73406 237.936 6.33406C238.562 5.92073 239.282 5.71406 240.096 5.71406C241.002 5.71406 241.729 5.9874 242.276 6.53406C242.822 7.08073 243.169 7.7874 243.316 8.65406L242.996 9.07406V1.67406H246.396V15.9141H243.356L243.136 12.5141L243.536 12.8141C243.442 13.4674 243.236 14.0474 242.916 14.5541C242.609 15.0474 242.209 15.4341 241.716 15.7141C241.222 15.9807 240.656 16.1141 240.016 16.1141ZM241.196 13.6141C241.569 13.6141 241.889 13.5074 242.156 13.2941C242.422 13.0807 242.629 12.7741 242.776 12.3741C242.922 11.9607 242.996 11.4541 242.996 10.8541C242.996 10.2941 242.922 9.82073 242.776 9.43406C242.642 9.03406 242.442 8.73406 242.176 8.53406C241.909 8.32073 241.589 8.21406 241.216 8.21406C240.642 8.21406 240.189 8.43406 239.856 8.87406C239.536 9.31406 239.376 9.99406 239.376 10.9141C239.376 11.8341 239.536 12.5141 239.856 12.9541C240.176 13.3941 240.622 13.6141 241.196 13.6141ZM248.837 15.9141V5.91406H251.837L251.977 8.07406C252.217 7.3274 252.584 6.7474 253.077 6.33406C253.571 5.92073 254.191 5.71406 254.937 5.71406C255.191 5.71406 255.404 5.73406 255.577 5.77406C255.751 5.81406 255.891 5.8674 255.997 5.93406L255.657 8.73406C255.551 8.69406 255.397 8.65406 255.197 8.61406C254.997 8.57406 254.744 8.55406 254.437 8.55406C254.051 8.55406 253.684 8.64073 253.337 8.81406C253.004 8.9874 252.737 9.2474 252.537 9.59406C252.337 9.9274 252.237 10.3541 252.237 10.8741V15.9141H248.837ZM260.733 5.91406V15.9141H257.333V5.91406H260.733ZM259.033 4.75406C258.34 4.75406 257.833 4.6274 257.513 4.37406C257.207 4.1074 257.053 3.69406 257.053 3.13406C257.053 2.56073 257.207 2.1474 257.513 1.89406C257.833 1.6274 258.34 1.49406 259.033 1.49406C259.727 1.49406 260.227 1.6274 260.533 1.89406C260.853 2.1474 261.013 2.56073 261.013 3.13406C261.013 3.69406 260.853 4.1074 260.533 4.37406C260.227 4.6274 259.727 4.75406 259.033 4.75406ZM267.834 5.71406C268.834 5.71406 269.667 5.86073 270.334 6.15406C271 6.43406 271.52 6.8074 271.894 7.27406C272.267 7.74073 272.507 8.25406 272.614 8.81406L269.474 9.85406C269.38 9.2674 269.214 8.83406 268.974 8.55406C268.747 8.27406 268.4 8.13406 267.934 8.13406C267.52 8.13406 267.174 8.23406 266.894 8.43406C266.614 8.63406 266.4 8.94073 266.254 9.35406C266.12 9.7674 266.054 10.3007 266.054 10.9541C266.054 11.6074 266.127 12.1407 266.274 12.5541C266.434 12.9541 266.654 13.2474 266.934 13.4341C267.227 13.6074 267.567 13.6941 267.954 13.6941C268.274 13.6941 268.54 13.6341 268.754 13.5141C268.98 13.3807 269.16 13.1941 269.294 12.9541C269.427 12.7141 269.52 12.4207 269.574 12.0741L272.634 13.0541C272.54 13.6274 272.294 14.1474 271.894 14.6141C271.494 15.0807 270.96 15.4474 270.294 15.7141C269.64 15.9807 268.867 16.1141 267.974 16.1141C266.894 16.1141 265.954 15.9074 265.154 15.4941C264.354 15.0807 263.734 14.4874 263.294 13.7141C262.854 12.9407 262.634 12.0074 262.634 10.9141C262.634 9.82073 262.854 8.8874 263.294 8.11406C263.734 7.34073 264.34 6.7474 265.114 6.33406C265.9 5.92073 266.807 5.71406 267.834 5.71406ZM279.084 5.71406C280.124 5.71406 281.037 5.92073 281.824 6.33406C282.611 6.7474 283.224 7.34073 283.664 8.11406C284.117 8.8874 284.344 9.82073 284.344 10.9141C284.344 12.0074 284.117 12.9407 283.664 13.7141C283.224 14.4874 282.611 15.0807 281.824 15.4941C281.037 15.9074 280.124 16.1141 279.084 16.1141C278.057 16.1141 277.151 15.9074 276.364 15.4941C275.577 15.0807 274.964 14.4874 274.524 13.7141C274.084 12.9407 273.864 12.0074 273.864 10.9141C273.864 9.82073 274.084 8.8874 274.524 8.11406C274.964 7.34073 275.577 6.7474 276.364 6.33406C277.151 5.92073 278.057 5.71406 279.084 5.71406ZM279.084 8.13406C278.711 8.13406 278.384 8.23406 278.104 8.43406C277.837 8.62073 277.631 8.92073 277.484 9.33406C277.351 9.73406 277.284 10.2607 277.284 10.9141C277.284 11.5674 277.351 12.1007 277.484 12.5141C277.631 12.9141 277.837 13.2141 278.104 13.4141C278.384 13.6007 278.711 13.6941 279.084 13.6941C279.471 13.6941 279.797 13.6007 280.064 13.4141C280.344 13.2141 280.557 12.9074 280.704 12.4941C280.851 12.0807 280.924 11.5541 280.924 10.9141C280.924 10.2607 280.851 9.73406 280.704 9.33406C280.557 8.92073 280.344 8.62073 280.064 8.43406C279.797 8.23406 279.471 8.13406 279.084 8.13406ZM295.382 5.91406V15.9141H291.982V5.91406H295.382ZM293.682 4.75406C292.988 4.75406 292.482 4.6274 292.162 4.37406C291.855 4.1074 291.702 3.69406 291.702 3.13406C291.702 2.56073 291.855 2.1474 292.162 1.89406C292.482 1.6274 292.988 1.49406 293.682 1.49406C294.375 1.49406 294.875 1.6274 295.182 1.89406C295.502 2.1474 295.662 2.56073 295.662 3.13406C295.662 3.69406 295.502 4.1074 295.182 4.37406C294.875 4.6274 294.375 4.75406 293.682 4.75406ZM297.802 15.9141V5.91406H300.842L301.022 9.35406L300.642 8.97406C300.842 7.9074 301.262 7.10073 301.902 6.55406C302.542 5.99406 303.349 5.71406 304.322 5.71406C305.002 5.71406 305.595 5.8474 306.102 6.11406C306.609 6.38073 307.002 6.78073 307.282 7.31406C307.575 7.83406 307.722 8.48073 307.722 9.25406V15.9141H304.322V10.1541C304.322 9.47406 304.195 9.00073 303.942 8.73406C303.689 8.45406 303.355 8.31406 302.942 8.31406C302.635 8.31406 302.349 8.39406 302.082 8.55406C301.815 8.70073 301.602 8.94073 301.442 9.27406C301.282 9.6074 301.202 10.0541 301.202 10.6141V15.9141H297.802ZM313.727 16.1141C312.913 16.1141 312.2 15.9141 311.587 15.5141C310.987 15.1007 310.513 14.5074 310.167 13.7341C309.833 12.9607 309.667 12.0341 309.667 10.9541C309.667 9.83406 309.84 8.8874 310.187 8.11406C310.547 7.3274 311.033 6.73406 311.647 6.33406C312.273 5.92073 312.993 5.71406 313.807 5.71406C314.713 5.71406 315.44 5.9874 315.987 6.53406C316.533 7.08073 316.88 7.7874 317.027 8.65406L316.707 9.07406V1.67406H320.107V15.9141H317.067L316.847 12.5141L317.247 12.8141C317.153 13.4674 316.947 14.0474 316.627 14.5541C316.32 15.0474 315.92 15.4341 315.427 15.7141C314.933 15.9807 314.367 16.1141 313.727 16.1141ZM314.907 13.6141C315.28 13.6141 315.6 13.5074 315.867 13.2941C316.133 13.0807 316.34 12.7741 316.487 12.3741C316.633 11.9607 316.707 11.4541 316.707 10.8541C316.707 10.2941 316.633 9.82073 316.487 9.43406C316.353 9.03406 316.153 8.73406 315.887 8.53406C315.62 8.32073 315.3 8.21406 314.927 8.21406C314.353 8.21406 313.9 8.43406 313.567 8.87406C313.247 9.31406 313.087 9.99406 313.087 10.9141C313.087 11.8341 313.247 12.5141 313.567 12.9541C313.887 13.3941 314.333 13.6141 314.907 13.6141ZM325.888 16.1141C325.221 16.1141 324.628 16.0007 324.108 15.7741C323.601 15.5341 323.201 15.1541 322.908 14.6341C322.628 14.1141 322.488 13.4341 322.488 12.5941V5.91406H325.888V11.7941C325.888 12.3674 325.995 12.8007 326.208 13.0941C326.435 13.3741 326.801 13.5141 327.308 13.5141C327.535 13.5141 327.748 13.4741 327.948 13.3941C328.161 13.3007 328.341 13.1674 328.488 12.9941C328.648 12.8074 328.768 12.5741 328.848 12.2941C328.941 12.0007 328.988 11.6607 328.988 11.2741V5.91406H332.388V15.9141H329.348L329.248 14.0341C329.048 14.5007 328.781 14.8874 328.448 15.1941C328.128 15.5007 327.755 15.7341 327.328 15.8941C326.901 16.0407 326.421 16.1141 325.888 16.1141ZM338.973 16.1141C337.973 16.1141 337.053 15.9541 336.213 15.6341C335.387 15.3007 334.687 14.8274 334.113 14.2141L335.693 12.3341C336.027 12.7607 336.467 13.1207 337.013 13.4141C337.573 13.6941 338.18 13.8341 338.833 13.8341C339.22 13.8341 339.547 13.7741 339.813 13.6541C340.08 13.5341 340.213 13.3474 340.213 13.0941C340.213 12.9074 340.147 12.7607 340.013 12.6541C339.88 12.5341 339.62 12.4341 339.233 12.3541L337.873 12.0741C336.62 11.8074 335.733 11.4274 335.213 10.9341C334.707 10.4407 334.453 9.7874 334.453 8.97406C334.453 8.4274 334.62 7.9074 334.953 7.41406C335.287 6.92073 335.793 6.51406 336.473 6.19406C337.167 5.87406 338.04 5.71406 339.093 5.71406C340.107 5.71406 340.993 5.8674 341.753 6.17406C342.513 6.4674 343.12 6.8874 343.573 7.43406L341.973 9.27406C341.653 8.87406 341.24 8.56073 340.733 8.33406C340.24 8.1074 339.747 7.99406 339.253 7.99406C338.933 7.99406 338.667 8.0274 338.453 8.09406C338.253 8.1474 338.1 8.2274 337.993 8.33406C337.887 8.44073 337.833 8.57406 337.833 8.73406C337.833 8.92073 337.92 9.08073 338.093 9.21406C338.267 9.33406 338.56 9.43406 338.973 9.51406L340.773 9.87406C341.787 10.0741 342.513 10.4207 342.953 10.9141C343.407 11.3941 343.633 11.9807 343.633 12.6741C343.633 13.6474 343.247 14.4674 342.473 15.1341C341.7 15.7874 340.533 16.1141 338.973 16.1141ZM349.54 2.73406V12.3541C349.54 12.8341 349.653 13.1807 349.88 13.3941C350.106 13.5941 350.426 13.6941 350.84 13.6941C351.146 13.6941 351.413 13.6541 351.64 13.5741C351.866 13.4941 352.073 13.3874 352.26 13.2541L352.62 15.3541C352.286 15.5807 351.866 15.7674 351.36 15.9141C350.866 16.0474 350.36 16.1141 349.84 16.1141C348.706 16.1141 347.806 15.8741 347.14 15.3941C346.486 14.9007 346.16 14.0741 346.16 12.9141V3.67406L349.54 2.73406ZM352.46 5.91406V8.33406H344.46V5.91406H352.46ZM354.033 15.9141V5.91406H357.033L357.173 8.07406C357.413 7.3274 357.779 6.7474 358.273 6.33406C358.766 5.92073 359.386 5.71406 360.133 5.71406C360.386 5.71406 360.599 5.73406 360.773 5.77406C360.946 5.81406 361.086 5.8674 361.193 5.93406L360.853 8.73406C360.746 8.69406 360.593 8.65406 360.393 8.61406C360.193 8.57406 359.939 8.55406 359.633 8.55406C359.246 8.55406 358.879 8.64073 358.533 8.81406C358.199 8.9874 357.933 9.2474 357.733 9.59406C357.533 9.9274 357.433 10.3541 357.433 10.8741V15.9141H354.033ZM365.929 5.91406V15.9141H362.529V5.91406H365.929ZM364.229 4.75406C363.535 4.75406 363.029 4.6274 362.709 4.37406C362.402 4.1074 362.249 3.69406 362.249 3.13406C362.249 2.56073 362.402 2.1474 362.709 1.89406C363.029 1.6274 363.535 1.49406 364.229 1.49406C364.922 1.49406 365.422 1.6274 365.729 1.89406C366.049 2.1474 366.209 2.56073 366.209 3.13406C366.209 3.69406 366.049 4.1074 365.729 4.37406C365.422 4.6274 364.922 4.75406 364.229 4.75406ZM373.849 9.57406C373.849 9.1074 373.722 8.74073 373.469 8.47406C373.216 8.19406 372.876 8.05406 372.449 8.05406C372.022 8.05406 371.656 8.1674 371.349 8.39406C371.042 8.6074 370.829 8.99406 370.709 9.55406L367.829 8.87406C368.016 7.91406 368.502 7.1474 369.289 6.57406C370.089 6.00073 371.209 5.71406 372.649 5.71406C373.609 5.71406 374.429 5.86073 375.109 6.15406C375.802 6.43406 376.329 6.86073 376.689 7.43406C377.049 7.99406 377.229 8.6874 377.229 9.51406V13.1741C377.229 13.6941 377.456 13.9541 377.909 13.9541C378.016 13.9541 378.116 13.9474 378.209 13.9341C378.316 13.9207 378.409 13.9007 378.489 13.8741L378.289 15.8141C378.102 15.9074 377.889 15.9741 377.649 16.0141C377.409 16.0674 377.136 16.0941 376.829 16.0941C376.322 16.0941 375.869 16.0141 375.469 15.8541C375.069 15.6807 374.756 15.4274 374.529 15.0941C374.302 14.7474 374.189 14.3141 374.189 13.7941V13.6741L374.569 13.5341C374.569 14.1074 374.396 14.5874 374.049 14.9741C373.716 15.3607 373.282 15.6474 372.749 15.8341C372.229 16.0207 371.676 16.1141 371.089 16.1141C370.076 16.1141 369.269 15.8807 368.669 15.4141C368.069 14.9341 367.769 14.2474 367.769 13.3541C367.769 12.6474 367.982 12.0541 368.409 11.5741C368.836 11.0941 369.509 10.7607 370.429 10.5741L374.169 9.79406L374.149 11.5941L372.269 11.9941C371.909 12.0741 371.629 12.1874 371.429 12.3341C371.229 12.4807 371.129 12.7141 371.129 13.0341C371.129 13.3274 371.229 13.5474 371.429 13.6941C371.642 13.8407 371.889 13.9141 372.169 13.9141C372.396 13.9141 372.609 13.8807 372.809 13.8141C373.009 13.7474 373.182 13.6474 373.329 13.5141C373.489 13.3674 373.616 13.1874 373.709 12.9741C373.802 12.7607 373.849 12.5074 373.849 12.2141V9.57406ZM383.193 1.67406V12.5141C383.193 12.9141 383.253 13.2207 383.373 13.4341C383.507 13.6341 383.747 13.7341 384.093 13.7341C384.28 13.7341 384.44 13.7207 384.573 13.6941C384.707 13.6674 384.86 13.6274 385.033 13.5741L384.813 15.6141C384.587 15.7607 384.273 15.8807 383.873 15.9741C383.487 16.0674 383.12 16.1141 382.773 16.1141C381.64 16.1141 380.86 15.8407 380.433 15.2941C380.007 14.7341 379.793 13.9541 379.793 12.9541V1.67406H383.193ZM391.099 16.1141C390.005 16.1141 389.059 15.9141 388.259 15.5141C387.459 15.1007 386.839 14.5074 386.399 13.7341C385.972 12.9474 385.759 12.0074 385.759 10.9141C385.759 9.8074 385.979 8.8674 386.419 8.09406C386.859 7.32073 387.465 6.73406 388.239 6.33406C389.025 5.92073 389.925 5.71406 390.939 5.71406C391.979 5.71406 392.865 5.92073 393.599 6.33406C394.332 6.73406 394.892 7.29406 395.279 8.01406C395.665 8.72073 395.859 9.53406 395.859 10.4541C395.859 10.7074 395.852 10.9541 395.839 11.1941C395.825 11.4207 395.805 11.6141 395.779 11.7741H387.959V9.95406H394.279L392.659 10.5741C392.659 10.0407 392.592 9.59406 392.459 9.23406C392.339 8.86073 392.152 8.58073 391.899 8.39406C391.645 8.19406 391.325 8.09406 390.939 8.09406C390.525 8.09406 390.172 8.19406 389.879 8.39406C389.585 8.59406 389.365 8.9074 389.219 9.33406C389.072 9.76073 388.999 10.3074 388.999 10.9741C388.999 11.6274 389.079 12.1607 389.239 12.5741C389.412 12.9741 389.652 13.2674 389.959 13.4541C390.279 13.6274 390.659 13.7141 391.099 13.7141C391.579 13.7141 391.972 13.6141 392.279 13.4141C392.585 13.2141 392.805 12.9341 392.939 12.5741L395.659 13.4741C395.472 14.0474 395.145 14.5341 394.679 14.9341C394.225 15.3207 393.685 15.6141 393.059 15.8141C392.445 16.0141 391.792 16.1141 391.099 16.1141ZM403.486 20.1141V5.91406H406.546L406.726 9.53406L406.326 9.11406C406.472 8.1274 406.859 7.31406 407.486 6.67406C408.112 6.03406 408.912 5.71406 409.886 5.71406C410.699 5.71406 411.406 5.92073 412.006 6.33406C412.606 6.73406 413.072 7.32073 413.406 8.09406C413.752 8.85406 413.926 9.78073 413.926 10.8741C413.926 11.9807 413.752 12.9274 413.406 13.7141C413.059 14.4874 412.579 15.0807 411.966 15.4941C411.366 15.9074 410.659 16.1141 409.846 16.1141C408.952 16.1141 408.226 15.8407 407.666 15.2941C407.119 14.7474 406.752 14.0674 406.566 13.2541L406.886 12.7741V20.1141H403.486ZM408.686 13.6141C409.246 13.6141 409.686 13.3941 410.006 12.9541C410.339 12.5141 410.506 11.8341 410.506 10.9141C410.506 9.99406 410.346 9.31406 410.026 8.87406C409.706 8.43406 409.266 8.21406 408.706 8.21406C408.332 8.21406 408.006 8.32073 407.726 8.53406C407.459 8.73406 407.252 9.03406 407.106 9.43406C406.959 9.83406 406.886 10.3274 406.886 10.9141C406.886 11.4741 406.952 11.9541 407.086 12.3541C407.232 12.7541 407.439 13.0674 407.706 13.2941C407.972 13.5074 408.299 13.6141 408.686 13.6141ZM420.747 16.1141C419.654 16.1141 418.707 15.9141 417.907 15.5141C417.107 15.1007 416.487 14.5074 416.047 13.7341C415.62 12.9474 415.407 12.0074 415.407 10.9141C415.407 9.8074 415.627 8.8674 416.067 8.09406C416.507 7.32073 417.114 6.73406 417.887 6.33406C418.674 5.92073 419.574 5.71406 420.587 5.71406C421.627 5.71406 422.514 5.92073 423.247 6.33406C423.98 6.73406 424.54 7.29406 424.927 8.01406C425.314 8.72073 425.507 9.53406 425.507 10.4541C425.507 10.7074 425.5 10.9541 425.487 11.1941C425.474 11.4207 425.454 11.6141 425.427 11.7741H417.607V9.95406H423.927L422.307 10.5741C422.307 10.0407 422.24 9.59406 422.107 9.23406C421.987 8.86073 421.8 8.58073 421.547 8.39406C421.294 8.19406 420.974 8.09406 420.587 8.09406C420.174 8.09406 419.82 8.19406 419.527 8.39406C419.234 8.59406 419.014 8.9074 418.867 9.33406C418.72 9.76073 418.647 10.3074 418.647 10.9741C418.647 11.6274 418.727 12.1607 418.887 12.5741C419.06 12.9741 419.3 13.2674 419.607 13.4541C419.927 13.6274 420.307 13.7141 420.747 13.7141C421.227 13.7141 421.62 13.6141 421.927 13.4141C422.234 13.2141 422.454 12.9341 422.587 12.5741L425.307 13.4741C425.12 14.0474 424.794 14.5341 424.327 14.9341C423.874 15.3207 423.334 15.6141 422.707 15.8141C422.094 16.0141 421.44 16.1141 420.747 16.1141ZM427.411 15.9141V5.91406H430.411L430.551 8.07406C430.791 7.3274 431.158 6.7474 431.651 6.33406C432.145 5.92073 432.765 5.71406 433.511 5.71406C433.765 5.71406 433.978 5.73406 434.151 5.77406C434.325 5.81406 434.465 5.8674 434.571 5.93406L434.231 8.73406C434.125 8.69406 433.971 8.65406 433.771 8.61406C433.571 8.57406 433.318 8.55406 433.011 8.55406C432.625 8.55406 432.258 8.64073 431.911 8.81406C431.578 8.9874 431.311 9.2474 431.111 9.59406C430.911 9.9274 430.811 10.3541 430.811 10.8741V15.9141H427.411ZM445.301 16.1141C444.301 16.1141 443.381 15.9541 442.541 15.6341C441.715 15.3007 441.015 14.8274 440.441 14.2141L442.021 12.3341C442.355 12.7607 442.795 13.1207 443.341 13.4141C443.901 13.6941 444.508 13.8341 445.161 13.8341C445.548 13.8341 445.875 13.7741 446.141 13.6541C446.408 13.5341 446.541 13.3474 446.541 13.0941C446.541 12.9074 446.475 12.7607 446.341 12.6541C446.208 12.5341 445.948 12.4341 445.561 12.3541L444.201 12.0741C442.948 11.8074 442.061 11.4274 441.541 10.9341C441.035 10.4407 440.781 9.7874 440.781 8.97406C440.781 8.4274 440.948 7.9074 441.281 7.41406C441.615 6.92073 442.121 6.51406 442.801 6.19406C443.495 5.87406 444.368 5.71406 445.421 5.71406C446.435 5.71406 447.321 5.8674 448.081 6.17406C448.841 6.4674 449.448 6.8874 449.901 7.43406L448.301 9.27406C447.981 8.87406 447.568 8.56073 447.061 8.33406C446.568 8.1074 446.075 7.99406 445.581 7.99406C445.261 7.99406 444.995 8.0274 444.781 8.09406C444.581 8.1474 444.428 8.2274 444.321 8.33406C444.215 8.44073 444.161 8.57406 444.161 8.73406C444.161 8.92073 444.248 9.08073 444.421 9.21406C444.595 9.33406 444.888 9.43406 445.301 9.51406L447.101 9.87406C448.115 10.0741 448.841 10.4207 449.281 10.9141C449.735 11.3941 449.961 11.9807 449.961 12.6741C449.961 13.6474 449.575 14.4674 448.801 15.1341C448.028 15.7874 446.861 16.1141 445.301 16.1141ZM456.548 16.1141C455.454 16.1141 454.508 15.9141 453.708 15.5141C452.908 15.1007 452.288 14.5074 451.848 13.7341C451.421 12.9474 451.208 12.0074 451.208 10.9141C451.208 9.8074 451.428 8.8674 451.868 8.09406C452.308 7.32073 452.914 6.73406 453.688 6.33406C454.474 5.92073 455.374 5.71406 456.388 5.71406C457.428 5.71406 458.314 5.92073 459.048 6.33406C459.781 6.73406 460.341 7.29406 460.728 8.01406C461.114 8.72073 461.308 9.53406 461.308 10.4541C461.308 10.7074 461.301 10.9541 461.288 11.1941C461.274 11.4207 461.254 11.6141 461.228 11.7741H453.408V9.95406H459.728L458.108 10.5741C458.108 10.0407 458.041 9.59406 457.908 9.23406C457.788 8.86073 457.601 8.58073 457.348 8.39406C457.094 8.19406 456.774 8.09406 456.388 8.09406C455.974 8.09406 455.621 8.19406 455.328 8.39406C455.034 8.59406 454.814 8.9074 454.668 9.33406C454.521 9.76073 454.448 10.3074 454.448 10.9741C454.448 11.6274 454.528 12.1607 454.688 12.5741C454.861 12.9741 455.101 13.2674 455.408 13.4541C455.728 13.6274 456.108 13.7141 456.548 13.7141C457.028 13.7141 457.421 13.6141 457.728 13.4141C458.034 13.2141 458.254 12.9341 458.388 12.5741L461.108 13.4741C460.921 14.0474 460.594 14.5341 460.128 14.9341C459.674 15.3207 459.134 15.6141 458.508 15.8141C457.894 16.0141 457.241 16.1141 456.548 16.1141ZM467.059 2.73406V12.3541C467.059 12.8341 467.173 13.1807 467.399 13.3941C467.626 13.5941 467.946 13.6941 468.359 13.6941C468.666 13.6941 468.933 13.6541 469.159 13.5741C469.386 13.4941 469.593 13.3874 469.779 13.2541L470.139 15.3541C469.806 15.5807 469.386 15.7674 468.879 15.9141C468.386 16.0474 467.879 16.1141 467.359 16.1141C466.226 16.1141 465.326 15.8741 464.659 15.3941C464.006 14.9007 463.679 14.0741 463.679 12.9141V3.67406L467.059 2.73406ZM469.979 5.91406V8.33406H461.979V5.91406H469.979ZM474.403 2.73406V12.3541C474.403 12.8341 474.516 13.1807 474.743 13.3941C474.97 13.5941 475.29 13.6941 475.703 13.6941C476.01 13.6941 476.276 13.6541 476.503 13.5741C476.73 13.4941 476.936 13.3874 477.123 13.2541L477.483 15.3541C477.15 15.5807 476.73 15.7674 476.223 15.9141C475.73 16.0474 475.223 16.1141 474.703 16.1141C473.57 16.1141 472.67 15.8741 472.003 15.3941C471.35 14.9007 471.023 14.0741 471.023 12.9141V3.67406L474.403 2.73406ZM477.323 5.91406V8.33406H469.323V5.91406H477.323ZM483.596 5.71406C484.636 5.71406 485.549 5.92073 486.336 6.33406C487.122 6.7474 487.736 7.34073 488.176 8.11406C488.629 8.8874 488.856 9.82073 488.856 10.9141C488.856 12.0074 488.629 12.9407 488.176 13.7141C487.736 14.4874 487.122 15.0807 486.336 15.4941C485.549 15.9074 484.636 16.1141 483.596 16.1141C482.569 16.1141 481.662 15.9074 480.876 15.4941C480.089 15.0807 479.476 14.4874 479.036 13.7141C478.596 12.9407 478.376 12.0074 478.376 10.9141C478.376 9.82073 478.596 8.8874 479.036 8.11406C479.476 7.34073 480.089 6.7474 480.876 6.33406C481.662 5.92073 482.569 5.71406 483.596 5.71406ZM483.596 8.13406C483.222 8.13406 482.896 8.23406 482.616 8.43406C482.349 8.62073 482.142 8.92073 481.996 9.33406C481.862 9.73406 481.796 10.2607 481.796 10.9141C481.796 11.5674 481.862 12.1007 481.996 12.5141C482.142 12.9141 482.349 13.2141 482.616 13.4141C482.896 13.6007 483.222 13.6941 483.596 13.6941C483.982 13.6941 484.309 13.6007 484.576 13.4141C484.856 13.2141 485.069 12.9074 485.216 12.4941C485.362 12.0807 485.436 11.5541 485.436 10.9141C485.436 10.2607 485.362 9.73406 485.216 9.33406C485.069 8.92073 484.856 8.62073 484.576 8.43406C484.309 8.23406 483.982 8.13406 483.596 8.13406ZM490.771 15.9141V5.91406H493.771L493.911 8.07406C494.151 7.3274 494.517 6.7474 495.011 6.33406C495.504 5.92073 496.124 5.71406 496.871 5.71406C497.124 5.71406 497.337 5.73406 497.511 5.77406C497.684 5.81406 497.824 5.8674 497.931 5.93406L497.591 8.73406C497.484 8.69406 497.331 8.65406 497.131 8.61406C496.931 8.57406 496.677 8.55406 496.371 8.55406C495.984 8.55406 495.617 8.64073 495.271 8.81406C494.937 8.9874 494.671 9.2474 494.471 9.59406C494.271 9.9274 494.171 10.3541 494.171 10.8741V15.9141H490.771ZM503.774 16.1141C502.681 16.1141 501.734 15.9141 500.934 15.5141C500.134 15.1007 499.514 14.5074 499.074 13.7341C498.648 12.9474 498.434 12.0074 498.434 10.9141C498.434 9.8074 498.654 8.8674 499.094 8.09406C499.534 7.32073 500.141 6.73406 500.914 6.33406C501.701 5.92073 502.601 5.71406 503.614 5.71406C504.654 5.71406 505.541 5.92073 506.274 6.33406C507.008 6.73406 507.568 7.29406 507.954 8.01406C508.341 8.72073 508.534 9.53406 508.534 10.4541C508.534 10.7074 508.528 10.9541 508.514 11.1941C508.501 11.4207 508.481 11.6141 508.454 11.7741H500.634V9.95406H506.954L505.334 10.5741C505.334 10.0407 505.268 9.59406 505.134 9.23406C505.014 8.86073 504.828 8.58073 504.574 8.39406C504.321 8.19406 504.001 8.09406 503.614 8.09406C503.201 8.09406 502.848 8.19406 502.554 8.39406C502.261 8.59406 502.041 8.9074 501.894 9.33406C501.748 9.76073 501.674 10.3074 501.674 10.9741C501.674 11.6274 501.754 12.1607 501.914 12.5741C502.088 12.9741 502.328 13.2674 502.634 13.4541C502.954 13.6274 503.334 13.7141 503.774 13.7141C504.254 13.7141 504.648 13.6141 504.954 13.4141C505.261 13.2141 505.481 12.9341 505.614 12.5741L508.334 13.4741C508.148 14.0474 507.821 14.5341 507.354 14.9341C506.901 15.3207 506.361 15.6141 505.734 15.8141C505.121 16.0141 504.468 16.1141 503.774 16.1141Z" fill="#3E5930"/>
</svg>
